<?xml version="1.0" encoding="UTF-8"?>
<svg id="Layer_2" data-name="Layer 2" xmlns="http://www.w3.org/2000/svg" viewBox="0 0 926.76 127.85">
  <defs>
    <style>
      .cls-1 {
        fill: #fff;
      }
    </style>
  </defs>
  <g id="Layer_1-2" data-name="Layer 1">
    <g>
      <path class="cls-1" d="M66.31,6.1C60.68,2.58,54.32,.79,47.4,.79H0V125.52H29.02v-47.34h18.38c6.68,0,12.94-1.77,18.6-5.26,5.63-3.47,10.21-8.18,13.59-13.99,3.39-5.83,5.11-12.37,5.11-19.44s-1.67-13.44-4.97-19.29c-3.3-5.84-7.81-10.59-13.42-14.09Zm-12.16,37.26c-1.04,1.76-2.42,3.19-4.13,4.24-1.7,1.05-3.52,1.57-5.58,1.57h-15.43V25.98h15.43c2.06,0,3.89,.51,5.58,1.56,1.7,1.06,3.09,2.49,4.13,4.24,1.02,1.74,1.54,3.69,1.54,5.79s-.52,4.05-1.54,5.79Z"/>
      <path class="cls-1" d="M174.33,66.98c3.33-3.57,5.93-7.74,7.73-12.39,1.8-4.64,2.71-9.72,2.71-15.1,0-7.01-1.66-13.53-4.93-19.38-3.27-5.85-7.76-10.58-13.34-14.06-5.61-3.49-11.95-5.27-18.87-5.27h-51.05V125.52h29.02v-47.34h6.76l27.5,47.34h33.47l-29.38-50.62c3.92-2.07,7.41-4.73,10.39-7.92ZM125.6,25.98h18.91c2.06,0,3.89,.51,5.58,1.56,1.7,1.06,3.09,2.49,4.13,4.24,1.02,1.74,1.54,3.69,1.54,5.79s-.52,4.05-1.54,5.79c-1.04,1.76-2.42,3.19-4.13,4.24-1.7,1.05-3.52,1.57-5.58,1.57h-18.91V25.98Z"/>
      <path class="cls-1" d="M463.52,85.79c0,2.42-.61,4.66-1.82,6.66-1.22,2.03-2.87,3.67-4.89,4.89-2,1.21-4.24,1.82-6.66,1.82-2,0-3.7-.34-5.04-1.01-1.47-.73-2.66-1.45-3.56-2.14l-1.1-.84-18.32,21.95,1.08,.92c3.74,3.2,7.99,5.67,12.63,7.32,4.64,1.65,9.45,2.49,14.3,2.49,7.69,0,14.8-1.92,21.14-5.71,6.32-3.78,11.44-8.9,15.22-15.22,3.79-6.34,5.71-13.45,5.71-21.14V2.24h-28.7V85.79Z"/>
      <polygon class="cls-1" points="510 125.62 589.65 125.62 589.65 96.92 538.7 96.92 538.7 73.97 577.95 73.97 577.95 45.27 538.7 45.27 538.7 30.94 589.65 30.94 589.65 2.24 510 2.24 510 125.62"/>
      <path class="cls-1" d="M640.36,38.95c2.93-3.2,6.36-5.74,10.22-7.54,3.83-1.79,7.99-2.7,12.34-2.7,4.57,0,8.91,.99,12.88,2.95,4,1.97,7.47,4.64,10.31,7.92l.75,.87,25.53-13.72-.96-1.33c-5.5-7.66-12.52-13.87-20.88-18.46-8.38-4.6-17.68-6.93-27.63-6.93-8.31,0-16.24,1.68-23.57,4.99-7.31,3.31-13.82,7.93-19.34,13.75-5.52,5.82-9.91,12.66-13.03,20.33-3.13,7.68-4.71,16.05-4.71,24.86s1.58,17.09,4.71,24.77c3.12,7.68,7.51,14.53,13.03,20.37,5.53,5.85,12.04,10.49,19.35,13.79,7.33,3.31,15.26,4.99,23.57,4.99,9.96,0,19.25-2.35,27.64-6.98,8.35-4.61,15.37-10.81,20.87-18.41l.96-1.33-25.53-13.91-.76,.89c-2.84,3.34-6.31,6.04-10.31,8.04-3.96,1.98-8.3,2.99-12.87,2.99s-8.51-.92-12.34-2.74c-3.86-1.83-7.3-4.39-10.23-7.59-2.93-3.21-5.26-6.98-6.91-11.21-1.65-4.23-2.48-8.83-2.48-13.68s.84-9.53,2.48-13.76c1.65-4.23,3.97-8.01,6.91-11.22Z"/>
      <polygon class="cls-1" points="721.73 30.94 756.16 30.94 756.16 125.62 784.86 125.62 784.86 30.94 819.29 30.94 819.29 2.24 721.73 2.24 721.73 30.94"/>
      <path class="cls-1" d="M902.53,56.16c-7.03-3.14-14.84-5.35-23.19-6.57-3.59-.51-6.9-1.09-9.85-1.7-2.77-.58-5.01-1.56-6.65-2.93-1.5-1.24-2.23-3.15-2.23-5.82,0-1.83,.8-3.45,2.46-4.96,1.79-1.64,4.14-2.95,6.98-3.92,2.87-.97,5.91-1.44,9.09-1.39,3.56,0,6.83,.47,9.72,1.39,2.87,.92,5.26,2.1,7.09,3.52,1.74,1.34,2.87,2.72,3.35,4.11l.48,1.38,26.99-9.76-.48-1.35c-2.08-5.89-5.58-11.02-10.39-15.23-4.77-4.18-10.42-7.42-16.79-9.62-6.35-2.19-13.07-3.31-19.97-3.31-8.26,0-16.06,1.64-23.19,4.86-7.16,3.24-13.01,7.84-17.38,13.66-4.42,5.88-6.66,12.82-6.66,20.62s2.12,15,6.29,20.34c4.12,5.28,9.82,9.47,16.93,12.45,7,2.93,15,5.06,23.81,6.34,3.13,.45,6.23,1.14,9.21,2.06,2.88,.89,5.27,2.08,7.1,3.54,1.63,1.3,2.43,2.89,2.43,4.86s-.78,3.64-2.39,5.15c-1.73,1.63-4.04,2.92-6.87,3.86-2.88,.95-6,1.43-9.27,1.43-3.56,0-6.83-.48-9.71-1.43-2.87-.95-5.25-2.16-7.1-3.6-1.75-1.37-2.88-2.77-3.35-4.15l-.48-1.39-27,9.96,.5,1.35c2.14,5.83,5.66,10.9,10.48,15.09,4.76,4.15,10.4,7.37,16.74,9.57,6.32,2.19,13.02,3.31,19.92,3.31,8.37,0,16.22-1.64,23.32-4.86,7.13-3.24,12.95-7.84,17.3-13.66,4.39-5.88,6.61-12.81,6.61-20.61s-2.22-14.35-6.6-19.76c-4.31-5.32-10.11-9.62-17.23-12.8Z"/>
      <path class="cls-1" d="M358.31,.7h-101.14c-34.02,0-61.7,27.68-61.7,61.7,0,34.02,27.68,61.7,61.7,61.7h101.14c34.02,0,61.7-27.68,61.7-61.7,0-34.02-27.68-61.7-61.7-61.7Zm-2.59,98.66h-96.83c-20.69,0-37.53-16.83-37.53-37.53,0-20.69,16.83-37.53,37.53-37.53h96.83c20.69,0,37.53,16.83,37.53,37.53,0,20.69-16.83,37.53-37.53,37.53Z"/>
    </g>
  </g>
</svg>