<?xml version="1.0" encoding="UTF-8"?>
<svg id="Layer_2" data-name="Layer 2" xmlns="http://www.w3.org/2000/svg" viewBox="0 0 124.45 984.93">
  <defs>
    <style>
      .cls-1 {
        fill: none;
        stroke: #fff;
        stroke-miterlimit: 10;
      }
    </style>
  </defs>
  <g id="Layer_1-2" data-name="Layer 1">
    <g>
      <path class="cls-1" d="M121.06,956.74h-44.98v-17.26c0-6.34-1.68-12.29-5-17.66-3.3-5.34-7.76-9.68-13.28-12.89-5.53-3.22-11.74-4.85-18.45-4.85s-12.75,1.59-18.31,4.72c-5.54,3.13-10.04,7.41-13.37,12.73-3.35,5.35-5.04,11.39-5.04,17.95v44.95H120.64l.43-27.69Zm-78.1-23.54c1.65,.97,2.98,2.27,3.97,3.86,.98,1.58,1.46,3.29,1.46,5.22v14.46H26.71v-14.46c0-1.93,.48-3.63,1.46-5.22,.99-1.59,2.33-2.89,3.97-3.86,1.65-.97,3.42-1.44,5.41-1.44s3.77,.47,5.41,1.44Z"/>
      <path class="cls-1" d="M18.5,794.38c-5.6,5.32-10.05,11.57-13.21,18.57-3.17,7.02-4.78,14.65-4.78,22.67s1.61,15.57,4.78,22.59c3.17,7,7.61,13.25,13.21,18.57,5.59,5.31,12.16,9.54,19.51,12.56,7.36,3.02,15.35,4.56,23.74,4.56s16.37-1.53,23.74-4.56c7.36-3.02,13.92-7.25,19.51-12.56,5.6-5.32,10.05-11.57,13.21-18.57,3.17-7.02,4.78-14.62,4.78-22.59s-1.61-15.65-4.78-22.67c-3.16-7-7.61-13.25-13.21-18.57-5.59-5.32-12.16-9.53-19.52-12.52-7.36-2.99-15.35-4.51-23.73-4.51s-16.37,1.52-23.73,4.51c-7.36,2.99-13.92,7.21-19.52,12.52Zm76.81,41.25c0,4.15-.88,8.1-2.61,11.74-1.75,3.67-4.18,6.97-7.23,9.79-3.06,2.82-6.66,5.07-10.69,6.66-4.03,1.6-8.41,2.4-13.03,2.4s-9-.81-13.03-2.4c-4.03-1.6-7.63-3.84-10.69-6.66-3.05-2.82-5.49-6.11-7.23-9.79-1.73-3.65-2.61-7.6-2.61-11.74s.88-8.09,2.61-11.74c1.75-3.68,4.18-6.97,7.23-9.79,3.06-2.82,6.65-5.06,10.69-6.66,4.03-1.6,8.41-2.41,13.03-2.41s9,.81,13.03,2.41c4.03,1.6,7.63,3.84,10.69,6.66,3.05,2.82,5.49,6.11,7.23,9.79,1.73,3.64,2.61,7.59,2.61,11.74Z"/>
      <path class="cls-1" d="M65.44,692.61c-3.39-3.16-7.35-5.63-11.76-7.34-4.41-1.71-9.22-2.57-14.33-2.57-6.65,0-12.83,1.57-18.38,4.68-5.55,3.1-10.04,7.36-13.34,12.65-3.32,5.32-5,11.35-5,17.91v48.41H120.85v-27.69h-44.77v-6.2l44.77-26v-31.94l-47.95,27.83c-1.96-3.67-4.46-6.95-7.46-9.74Zm-38.74,46.05v-17.76c0-1.93,.48-3.63,1.46-5.21,.99-1.59,2.33-2.89,3.97-3.86,1.65-.97,3.42-1.44,5.41-1.44s3.77,.47,5.41,1.44c1.65,.97,2.98,2.27,3.97,3.86,.98,1.58,1.46,3.29,1.46,5.21v17.76H26.71Z"/>
      <polygon class="cls-1" points="30.33 670.4 30.33 637.48 120.85 637.48 120.85 609.79 30.33 609.79 30.33 576.88 2.64 576.88 2.64 670.4 30.33 670.4"/>
      <polygon class="cls-1" points="120.85 563.42 120.85 535.73 71.47 535.73 71.47 499.85 43.79 499.85 43.79 535.73 30.33 535.73 30.33 491.95 2.64 491.95 2.64 563.42 120.85 563.42"/>
      <polygon class="cls-1" points="2.64 223.51 2.64 251.2 120.85 251.2 120.85 178.25 93.16 178.25 93.16 223.51 2.64 223.51"/>
      <rect class="cls-1" x="2.64" y="132.99" width="118.21" height="27.69"/>
      <path class="cls-1" d="M38.01,5.01c-7.36,2.99-13.92,7.21-19.52,12.52-5.6,5.32-10.05,11.57-13.21,18.57C2.11,43.13,.5,50.76,.5,58.78s1.61,15.57,4.78,22.59c3.17,7,7.61,13.25,13.21,18.57,5.59,5.31,12.16,9.54,19.51,12.56,7.36,3.02,15.35,4.56,23.74,4.56s16.37-1.53,23.74-4.56c7.36-3.02,13.92-7.25,19.51-12.56,5.6-5.32,10.05-11.57,13.21-18.58,3.17-7.02,4.78-14.62,4.78-22.59s-1.61-15.65-4.78-22.67c-3.16-7-7.61-13.25-13.21-18.58-5.59-5.32-12.16-9.53-19.52-12.52-7.36-2.99-15.35-4.51-23.73-4.51s-16.37,1.52-23.73,4.51Zm57.29,53.77c0,4.15-.88,8.1-2.61,11.74-1.75,3.67-4.18,6.97-7.23,9.79-3.06,2.83-6.66,5.07-10.69,6.66-4.03,1.6-8.41,2.4-13.03,2.4s-9-.81-13.03-2.4c-4.03-1.6-7.63-3.84-10.69-6.66-3.05-2.82-5.49-6.11-7.23-9.79-1.73-3.65-2.61-7.6-2.61-11.74s.88-8.09,2.61-11.74c1.75-3.68,4.18-6.97,7.23-9.79,3.06-2.82,6.65-5.06,10.69-6.66,4.03-1.6,8.41-2.41,13.03-2.41s9,.81,13.03,2.41c4.03,1.6,7.63,3.84,10.69,6.66,3.05,2.82,5.49,6.11,7.23,9.79,1.73,3.64,2.61,7.59,2.61,11.74Z"/>
      <path class="cls-1" d="M.55,323.89v101.14c0,34.02,27.68,61.7,61.7,61.7s61.7-27.68,61.7-61.7v-101.14c0-34.02-27.68-61.7-61.7-61.7S.55,289.87,.55,323.89Zm98.66,2.59v96.83c0,20.69-16.83,37.53-37.53,37.53s-37.53-16.83-37.53-37.53v-96.83c0-20.69,16.83-37.53,37.53-37.53s37.53,16.83,37.53,37.53Z"/>
    </g>
  </g>
</svg>