<?xml version="1.0" encoding="UTF-8"?>
<svg id="Layer_2" data-name="Layer 2" xmlns="http://www.w3.org/2000/svg" viewBox="0 0 412.4 155.59">
  <defs>
    <style>
      .cls-1 {
        fill: #2845c9;
      }
    </style>
  </defs>
  <g id="Layer_1-2" data-name="Layer 1">
    <g>
      <g>
        <path class="cls-1" d="M149.96,92.99c2.08,8.83,.28,18.25-4.36,25.99-2.31,3.84-5.34,7.32-8.95,9.99-1.67,1.23-3.53,2.57-5.55,3.14-1.31,.37-3.46,.75-4.63-.21-1.82-1.49,1.17-3.93,2.2-4.87,2.02-1.84,4.11-3.6,6.27-5.28,4.44-3.45,9.16-6.55,14.08-9.27s9.67-5.01,14.78-6.79c2.05-.72,4.37-1.36,6.56-1.01,2.59,.42,3.72,2.42,4.19,4.83,.62,3.18,.78,6.52,.89,9.75s.06,6.71-.18,10.05c-.49,6.8-1.75,13.51-3.7,20.03-.56,1.87,2.24,2.59,2.89,.8,3.78-10.44,9.64-20.1,17.16-28.27,1.9-2.06,3.9-4.04,5.99-5.9,1.75-1.56,4.46-4.49,7.08-3.54,1.82,.66,2.58,2.85,2.98,4.55,.6,2.55,.52,5.29,.46,7.9-.14,7.18-1.39,14.28-3.63,21.1-.62,1.88,2.18,2.53,2.89,.8,1.92-4.66,4.06-9.23,6.4-13.69,2.06-3.92,4.13-8,6.95-11.44,2.42-2.96,5.51-5.94,9.3-6.96,3.3-.89,6.71,.48,8.46,3.43,3.74,6.28,.57,14.36,.05,21.03-.29,3.68-.04,7.68,1.93,10.91s5.2,5.17,8.87,5.5c7.83,.69,15.24-5.08,20.43-10.28,5.93-5.96,11.63-12.97,13.63-21.32,.88-3.69,1.23-7.88-.37-11.42-1.5-3.33-5.04-5.18-8.51-3.49s-5.47,5.71-7.26,8.88c-2.02,3.6-3.82,7.43-4.82,11.45-.91,3.67-1.18,7.67,.11,11.28s3.94,6.62,7.41,8.3c8.02,3.89,16.85,1.18,24.16-2.95,2.01-1.14,3.96-2.38,5.91-3.62,1.62-1.03,.12-3.63-1.51-2.59-6.76,4.31-14.5,9.28-22.92,7.84-3.5-.6-6.86-2.27-8.87-5.27s-2.39-6.52-1.86-9.97c.59-3.81,2.08-7.44,3.83-10.84,.9-1.75,1.89-3.45,2.92-5.12,.92-1.47,1.9-3,3.27-4.09,1.18-.94,2.78-1.36,4.07-.37,1.18,.91,1.72,2.53,1.98,3.94,.68,3.62-.32,7.67-1.65,11.03-2.89,7.28-8.61,13.77-14.45,18.87-4.6,4.01-12.74,9.34-18.92,5.62-6.53-3.93-4.38-13.22-3.35-19.34s1.36-13.93-3.8-18.21c-6.15-5.11-13.73-1.22-18.5,3.76-2.79,2.92-4.88,6.31-6.85,9.82-2.27,4.03-4.36,8.15-6.28,12.36-.93,2.04-1.82,4.11-2.67,6.18l2.89,.8c2.19-6.69,3.45-13.69,3.7-20.73,.17-4.86,.63-12.07-3.7-15.48-5.25-4.13-11.24,2.49-14.76,5.94-4.39,4.3-8.32,9.08-11.72,14.2-3.86,5.81-6.98,12.09-9.35,18.64l2.89,.8c3.85-12.9,5.08-26.71,3.21-40.06-.39-2.78-1.25-5.56-3.71-7.19-2.19-1.45-4.94-1.46-7.44-1.03-2.77,.47-5.41,1.62-7.99,2.7-2.84,1.19-5.63,2.49-8.36,3.91-5.62,2.91-10.98,6.31-16.02,10.15-2.45,1.86-4.83,3.81-7.12,5.87-2.02,1.81-4.45,3.95-4.03,6.96,.7,4.94,7.28,4.45,10.63,2.91,4.47-2.06,8.47-5.67,11.51-9.5,7.24-9.1,10.4-21.26,7.71-32.66-.44-1.88-3.34-1.08-2.89,.8h0Z"/>
        <path class="cls-1" d="M332.06,63.5c-2.06,20.28-4.12,40.57-6.17,60.85-.59,5.77-1.17,11.54-1.76,17.32l2.8-.76c-2.21-4.27-1.83-9.24-2.82-13.84-.8-3.69-2.64-7.6-5.99-9.62-7.99-4.8-14.95,4.3-17.71,10.77-1.65,3.87-2.98,8.19-2.51,12.44,.44,3.95,2.56,7.64,6.17,9.48,6.67,3.4,15.2,.43,20.96-3.51,8.46-5.79,15.33-13.8,19.79-23.02l-2.74-1.16c-2.22,7.07-1.64,14.81,1.5,21.5,1.38,2.93,3.45,6.44,6.85,7.23,3.61,.84,7.54-1.86,10.41-3.74,3.62-2.38,6.89-5.26,9.7-8.56,1.25-1.46-.87-3.59-2.12-2.12-2.74,3.21-5.89,6.04-9.45,8.32-1.75,1.12-3.67,2.35-5.66,2.99s-3.55-.15-4.84-1.73c-2.46-3.02-3.84-7.15-4.45-10.95-.65-4.06-.3-8.23,.93-12.14,.5-1.6-1.99-2.7-2.74-1.16-3.5,7.25-8.48,13.68-14.64,18.85-5.09,4.28-11.71,8.34-18.67,7.56-3.16-.35-5.96-2.14-7.27-5.09-1.51-3.37-.8-7.34,.27-10.73s2.75-7.08,5.2-9.88c2.12-2.42,5.18-4.49,8.5-3.26,3.54,1.32,5.11,5.58,5.73,8.98,.86,4.71,.74,9.52,2.99,13.87,.75,1.44,2.66,.59,2.8-.76,2.06-20.28,4.12-40.57,6.17-60.85,.59-5.77,1.17-11.54,1.76-17.32,.19-1.92-2.81-1.91-3,0h0Z"/>
        <path class="cls-1" d="M399.46,120.7c-4.57-4.9-12.27-3.08-17.29,.08-5.91,3.71-10.73,9.28-13.73,15.57-1.42,2.98-2.69,6.27-3.02,9.58-.27,2.63,.23,5.89,2.64,7.44,3.22,2.07,7-.64,9.7-2.38,3.05-1.96,5.93-4.2,8.58-6.66,5.9-5.48,10.7-12.13,14.03-19.46,.78-1.73-1.72-3.26-2.59-1.51-3.19,6.42-6.08,15.31-1.49,21.82,3.31,4.69,10.37,7.74,15.46,3.94,1.53-1.14,.04-3.75-1.51-2.59-3.92,2.93-9.36,.38-11.71-3.39-3.46-5.56-.8-12.95,1.84-18.26l-2.59-1.51c-5.09,11.22-13.85,21.19-24.8,27-1.08,.57-2.58,1.25-3.61,.25-.75-.72-.95-1.95-1-2.94-.13-2.73,.89-5.53,1.89-8.03,2.23-5.55,5.97-10.52,10.63-14.26,4.13-3.32,11.93-7.4,16.46-2.55,1.32,1.41,3.44-.71,2.12-2.12h0Z"/>
        <path class="cls-1" d="M352.95,103.14c-.89,.87-1.78,1.73-2.68,2.6-.27,.27-.44,.68-.44,1.06s.16,.81,.44,1.06,.66,.46,1.06,.44,.77-.16,1.06-.44c.89-.87,1.78-1.73,2.68-2.6,.27-.27,.44-.68,.44-1.06s-.16-.81-.44-1.06-.66-.46-1.06-.44-.77,.16-1.06,.44h0Z"/>
      </g>
      <g>
        <path class="cls-1" d="M1.8,81.83c15.02-5.87,27.43-16.57,37.33-29.14,5.02-6.37,9.46-13.17,13.44-20.24,4.08-7.25,9.09-16.4,5.23-24.77-1.52-3.31-4.42-6.15-7.93-7.26s-7.49-.02-9.86,2.84c-2.95,3.57-1.98,7.8-.1,11.62,2.15,4.38,4.64,8.58,7.11,12.78,4.93,8.39,9.62,16.83,13,25.98,1.66,4.49,3.07,9.08,4.2,13.73,.99,4.06,2.52,9.22-.21,12.93-3.04,4.14-7.6,1.04-10.86-1.06-4.16-2.69-8.27-5.44-12.35-8.26-6.33-4.37-13.9-9.19-16.95-16.62-.7-1.71-1.07-3.5-1.11-5.35l-2.56,1.06c16.43,13.3,36.32,22.18,57.21,25.47,5.89,.93,11.84,1.43,17.81,1.48,1.93,.02,1.93-2.98,0-3-20.55-.17-40.94-5.84-58.67-16.24-4.98-2.92-9.74-6.2-14.23-9.83-.95-.77-2.59-.35-2.56,1.06,.18,7.8,5.53,13.9,11.31,18.56,3.4,2.74,7.04,5.19,10.65,7.65,4.04,2.75,8.08,5.56,12.26,8.08,3.55,2.13,7.7,3.14,11.12,.22,3.2-2.73,3.76-7.13,3.23-11.07-.62-4.63-1.98-9.25-3.37-13.7s-3.07-8.86-4.95-13.15c-3.86-8.79-8.98-16.86-13.7-25.19-1.17-2.06-2.3-4.13-3.38-6.24-1-1.96-2.21-4.24-1.81-6.52,.64-3.63,4.66-5.39,7.96-4.36s5.93,4.37,6.76,7.72c1.08,4.37-.44,9.1-2.27,13.05-3.41,7.39-7.87,14.47-12.57,21.11-9.06,12.82-20.48,24.38-34.69,31.39-1.73,.86-3.5,1.63-5.3,2.34s-1,3.6,.8,2.89h0Z"/>
        <path class="cls-1" d="M120.32,33.05c-2.85-3.05-7.28-1.07-9.95,1.17-3.22,2.7-5.97,6.21-8.27,9.71-4.76,7.23-8.02,16.01-8.36,24.71-.17,4.42,.75,8.97,3.66,12.42,2.55,3.01,6.49,4.84,10.44,4.14,4.13-.73,7.89-3.98,10.93-6.69s5.81-5.89,8.15-9.29c4.65-6.76,7.8-14.75,8.67-22.93,.42-3.89-.14-8.25-3.51-10.74-3.18-2.35-7.83-2.29-11.4-.93-6.55,2.49-12.25,9.89-9.87,17.13s9.96,9.44,16.66,9.65c3.89,.12,7.77-.51,11.56-1.31,4.26-.91,8.44-2.18,12.48-3.78,8.1-3.21,15.63-7.7,22.29-13.32,1.66-1.41,3.26-2.88,4.8-4.42,1.2-1.2-.34-3.23-1.82-2.36-12.06,7.11-19.56,21.21-18.72,35.2,.22,3.56,.76,7.49,3.06,10.36s6.29,3.8,9.91,3.7c7.55-.23,14.54-4.41,19.42-10,6.1-6.98,9.17-15.95,11.7-24.71l-2.89-.8c-.69,4.56-1.01,9.15-.86,13.76,.07,2.23,.25,4.46,.52,6.68,.25,2.02,.46,4.15,1.46,5.97,1.67,3.03,5.29,4.09,8.55,3.6,3.86-.59,6.87-3.38,9.59-5.97,1.4-1.34-.72-3.45-2.12-2.12-2.23,2.13-4.74,4.64-7.93,5.15-2.89,.46-5.35-.84-6.06-3.74-.87-3.52-.99-7.38-1.04-10.99-.05-3.85,.21-7.71,.79-11.52,.28-1.86-2.34-2.7-2.89-.8-3.75,13.05-9.9,28.79-24.79,32.08-3.04,.67-6.8,.85-9.56-.85s-3.47-5.62-3.76-8.68c-.58-6.22,.59-12.57,3.25-18.22,3.02-6.4,7.78-11.88,13.89-15.48l-1.82-2.36c-10.82,10.8-24.83,18.22-39.85,21.08-5.93,1.13-12.89,1.77-18.38-1.32-2.42-1.36-4.31-3.58-4.84-6.36-.56-2.95,.66-6.01,2.53-8.26,2.01-2.43,4.86-4.23,7.99-4.74,3.34-.54,7.21,.37,8.34,3.94,1.04,3.31,.21,7.13-.57,10.41-.83,3.52-2.05,6.94-3.65,10.18-3.21,6.49-7.8,12.26-13.47,16.77-2.74,2.18-6.24,4.93-9.97,4.08-3.39-.78-5.96-3.63-7.04-6.84-1.3-3.88-.94-8.13-.17-12.08,.72-3.7,1.85-7.34,3.4-10.77s3.48-6.7,5.76-9.7c2.09-2.76,4.63-6.02,7.75-7.64,1.24-.64,2.82-1.14,3.9,.01,1.32,1.41,3.44-.71,2.12-2.12h0Z"/>
        <path class="cls-1" d="M242.56,41.84c-4.48-5.01-12.06-1.1-15.79,2.84-2.53,2.67-4.69,5.77-6.45,8.99-1.64,3-3.13,6.28-3.88,9.63-.62,2.76-.8,5.85,.26,8.52,1.13,2.86,3.68,4.79,6.8,4.86,3.61,.08,6.87-2.13,9.49-4.4s4.88-4.9,6.79-7.76c4.31-6.46,6.65-14.18,6.63-21.95,0-1.96-2.84-1.9-3,0-.91,10.78,.16,21.72,3.18,32.11,1.16,3.99,2.44,9.63,7.22,10.61,2.39,.49,4.81-.26,7-1.19s4.3-2.11,6.26-3.49c8.1-5.7,14.33-13.98,20.26-21.79,6.39-8.41,12.23-17.24,17.47-26.41,2.52-4.42,5.44-8.98,6.71-13.96,1.08-4.22,.81-8.85-3-11.57-.54-.38-1.37-.2-1.82,.23-10.21,10.06-17.97,22.47-22.68,36-2.35,6.73-3.89,13.73-4.64,20.82-.37,3.51-.78,7.29,.77,10.59,1.42,3.02,4.41,4.86,7.45,5.94,7.85,2.77,16.96,1.61,24.23-2.22,1.71-.9,.19-3.49-1.51-2.59-6.18,3.25-13.55,4.2-20.32,2.41-2.73-.73-5.7-2.03-7.07-4.67-1.51-2.92-.85-6.74-.5-9.85,1.42-12.96,5.82-25.59,12.55-36.74,3.87-6.41,8.52-12.3,13.85-17.56l-1.82,.23c2.86,2.04,2.27,6.11,1.39,9.02-1.19,3.97-3.48,7.62-5.5,11.21-4.74,8.41-9.98,16.53-15.69,24.32-5.39,7.35-11.08,14.92-17.91,21.01-3.2,2.85-6.9,5.48-11,6.85-1.99,.67-4.35,1.03-5.87-.74-1.33-1.54-1.86-3.79-2.45-5.69-3.31-10.62-4.48-21.8-3.54-32.88h-3c.02,5.88-1.41,11.7-4.13,16.91s-6.57,10.15-11.58,12.96c-2.31,1.29-5.55,2.05-7.46-.33-1.37-1.71-1.44-4.21-1.21-6.29,.29-2.7,1.33-5.34,2.45-7.79,1.34-2.95,3.01-5.76,4.98-8.34s3.98-4.73,6.8-6.14c2.34-1.18,5.24-1.73,7.17,.42,1.29,1.44,3.41-.69,2.12-2.12h0Z"/>
        <path class="cls-1" d="M205.84,35.21c-.3,.22-.58,.44-.81,.72-.15,.19-.3,.37-.42,.58-.1,.16-.17,.34-.24,.51s-.14,.34-.19,.51-.07,.36-.1,.54-.05,.36-.05,.55c0,.25,.04,.5,.08,.75,.05,.2,.14,.37,.27,.51,.11,.16,.25,.29,.42,.39,.32,.19,.8,.27,1.16,.15s.71-.34,.9-.69l.15-.36c.07-.27,.07-.53,0-.8v-.04c.01,.13,.03,.27,.05,.4-.03-.22-.02-.44,0-.66l-.05,.4c.03-.23,.1-.46,.19-.68l-.15,.36c.09-.22,.21-.42,.35-.61l-.23,.3c.13-.17,.28-.31,.44-.44l-.3,.23s.04-.03,.06-.04c.17-.09,.32-.22,.42-.39,.13-.14,.22-.31,.27-.51,.1-.36,.05-.84-.15-1.16s-.51-.6-.9-.69-.84-.08-1.16,.15h0Z"/>
      </g>
    </g>
  </g>
</svg>