<?xml version="1.0" encoding="UTF-8"?>
<svg id="Layer_2" data-name="Layer 2" xmlns="http://www.w3.org/2000/svg" viewBox="0 0 168.82 167.89">
  <defs>
    <style>
      .cls-1 {
        fill: #2845c9;
      }
    </style>
  </defs>
  <g id="Layer_1-2" data-name="Layer 1">
    <polygon class="cls-1" points="84.41 40.58 102.05 0 101.67 44.25 134.3 14.35 115.95 54.62 157.91 40.58 124.77 69.91 168.82 74.15 126.61 87.45 165.13 109.25 121.16 104.24 147.48 139.81 109.35 117.35 118.93 160.55 93.23 124.53 84.41 167.89 75.59 124.53 49.89 160.55 59.46 117.35 21.34 139.81 47.66 104.24 3.69 109.25 42.2 87.45 0 74.15 44.05 69.91 10.91 40.58 52.87 54.62 34.52 14.35 67.15 44.25 66.76 0 84.41 40.58"/>
  </g>
</svg>