<?xml version="1.0" encoding="UTF-8"?>
<svg id="Layer_2" data-name="Layer 2" xmlns="http://www.w3.org/2000/svg" viewBox="0 0 77.99 77.56">
  <defs>
    <style>
      .cls-1 {
        fill: #f7c843;
      }
    </style>
  </defs>
  <g id="Layer_1-2" data-name="Layer 1">
    <polygon class="cls-1" points="39 18.75 47.15 0 46.97 20.44 62.04 6.63 53.57 25.24 72.95 18.75 57.64 32.3 77.99 34.25 58.49 40.4 76.29 50.47 55.97 48.16 68.13 64.59 50.52 54.21 54.94 74.17 43.07 57.53 39 77.56 34.92 57.53 23.05 74.17 27.47 54.21 9.86 64.59 22.02 48.16 1.7 50.47 19.5 40.4 0 34.25 20.35 32.3 5.04 18.75 24.43 25.24 15.95 6.63 31.02 20.44 30.84 0 39 18.75"/>
  </g>
</svg>