<?xml version="1.0" encoding="UTF-8"?>
<svg id="Layer_2" data-name="Layer 2" xmlns="http://www.w3.org/2000/svg" xmlns:xlink="http://www.w3.org/1999/xlink" viewBox="0 0 328.85 438.61">
  <defs>
    <style>
      .cls-1 {
        fill: #e31921;
      }

      .cls-2 {
        fill: #0054a6;
      }

      .cls-3 {
        fill: #8bc53b;
      }

      .cls-4 {
        fill: #fd0;
      }

      .cls-5 {
        clip-path: url(#clippath);
      }

      .cls-6 {
        fill: #f7922f;
      }

      .cls-7 {
        fill: #bbb7da;
      }

      .cls-8 {
        fill: #00baf1;
      }

      .cls-9 {
        fill: #83378a;
      }
    </style>
    <clipPath id="clippath">
      <path class="cls-8" d="M253.72,247.49c-1.67-6.39-5.97-18.18-13.6-31.49-6.28-10.95-11.04-19.22-20.64-26.64-6.68-5.16-15.33-9.61-25.31-14.75-.68-.34-2.11-.81-6.49-3.37-.08-.05-.19-.12-.32-.23-1.92-1.53-3.21-3.73-3.71-6.14l-.31-1.49v-9.52c0-5.06,2.83-9.49,7.02-12.31,9.46-6.34,16.1-15.68,16.1-26.04,0-16.99-17.09-30.75-38.17-30.75-.11,0-.22,0-.33,0-.11,0-.22,0-.33,0-21.08,0-38.17,13.77-38.17,30.75,0,10.35,6.64,19.69,16.1,26.04,4.2,2.82,7.02,7.25,7.02,12.31v9.52l-.31,1.49c-.5,2.41-1.79,4.6-3.71,6.14-.13,.1-.24,.18-.32,.23-4.38,2.56-5.81,3.03-6.49,3.37-9.98,5.14-18.63,9.59-25.31,14.75-9.61,7.41-14.36,15.69-20.64,26.64-7.64,13.3-11.93,25.1-13.6,31.49-3.35,12.76-4.19,18.5-4.19,40.38,0,6.24,1.19,12.46,3.23,17.37,1.4,3.34,4.19,7.79,9.42,9.04,5.92,1.41,11.32-3.99,12.47-5.14,2.18-2.2,3.42-4.53,5.42-9.99,4.33-11.82,5.9-20.74,5.9-20.74,.65-3.73,1.17-9.36,2.18-20.45,.51-5.58,1.23-13.84,3.24-24.07,.79-4.02,1.68-7.9,4.56-11.89,3.68-5.09,6.15-6.35,7.23-6.66,.69-.2,3.36-.96,5.99,.38,2.69,1.38,3.66,4.11,4.09,5.33,.69,1.97,.68,3.64,.66,4.56-.12,6.12-.19,9.18-1.52,13.79-2.37,8.19-6.34,14.37-8.28,17.51-4.07,6.61-7.28,14.08-13.7,29.01-5.6,13.03-8.9,20.82-11.13,32.06-.27,1.36-1.3,6.68-1.99,13.79-.65,6.62-.8,12.66-.57,21.4,.35,13.88,.54,21.05,1.99,30.73,1.98,13.1,3.62,21.31,9.61,35.01,3.57,8.16,9.61,19.69,19.79,19.69,13.6,0,19.94-22.49,22.54-33.78,1.07-4.63,1.39-11.7,1.9-17.22,.62-6.5,1.45-18.19,.29-32.82-.44-5.49-.33-9.99-1.39-18.07-.94-7.17-1.33-14.42-.97-21.64,.14-2.88,.39-5.88,.8-8.78,.38-2.65,3.01-5.14,3.42-5.42,.96-.65,1.92-1.05,2.9-1.24v.1c.64-.14,1.24-.22,1.84-.25,.6,.02,1.2,.11,1.83,.25,2.5,.58,3.99,2.14,5.01,3.5,.61,.9,1.16,1.97,1.32,3.07,.41,2.9,.67,5.91,.8,8.78,.36,7.23-.03,14.47-.97,21.64-1.06,8.07-.95,12.58-1.39,18.07-1.16,14.63-.33,26.32,.29,32.82,.51,5.52,.83,12.59,1.9,17.22,2.6,11.28,8.94,33.78,22.54,33.78,10.18,0,16.22-11.53,19.79-19.69,5.99-13.7,7.64-21.91,9.61-35.01,1.46-9.67,1.64-16.85,1.99-30.73,.22-8.74,.08-14.79-.57-21.4-.69-7.11-1.72-12.43-1.99-13.79-2.23-11.24-5.53-19.03-11.13-32.06-6.42-14.93-9.63-22.4-13.7-29.01-1.93-3.14-5.91-9.32-8.28-17.51-1.33-4.61-1.4-7.67-1.52-13.79-.03-.92-.03-2.59,.66-4.56,.44-1.22,1.4-3.96,4.09-5.33,2.63-1.34,5.3-.57,5.99-.38,1.09,.31,3.55,1.58,7.23,6.66,2.89,3.99,3.78,7.88,4.56,11.89,2,10.23,2.72,18.48,3.24,24.07,1.01,11.1,1.53,16.72,2.18,20.45,0,0,1.57,8.91,5.9,20.74,2,5.46,3.24,7.79,5.42,9.99,1.15,1.15,6.54,6.55,12.47,5.14,5.23-1.25,8.02-5.7,9.42-9.04,2.05-4.91,3.23-11.13,3.23-17.37,0-21.88-.84-27.62-4.19-40.38Z"/>
    </clipPath>
  </defs>
  <g id="Layer_1-2" data-name="Layer 1">
    <g>
      <g>
        <path class="cls-8" d="M253.72,247.49c-1.67-6.39-5.97-18.18-13.6-31.49-6.28-10.95-11.04-19.22-20.64-26.64-6.68-5.16-15.33-9.61-25.31-14.75-.68-.34-2.11-.81-6.49-3.37-.08-.05-.19-.12-.32-.23-1.92-1.53-3.21-3.73-3.71-6.14l-.31-1.49v-9.52c0-5.06,2.83-9.49,7.02-12.31,9.46-6.34,16.1-15.68,16.1-26.04,0-16.99-17.09-30.75-38.17-30.75-.11,0-.22,0-.33,0-.11,0-.22,0-.33,0-21.08,0-38.17,13.77-38.17,30.75,0,10.35,6.64,19.69,16.1,26.04,4.2,2.82,7.02,7.25,7.02,12.31v9.52l-.31,1.49c-.5,2.41-1.79,4.6-3.71,6.14-.13,.1-.24,.18-.32,.23-4.38,2.56-5.81,3.03-6.49,3.37-9.98,5.14-18.63,9.59-25.31,14.75-9.61,7.41-14.36,15.69-20.64,26.64-7.64,13.3-11.93,25.1-13.6,31.49-3.35,12.76-4.19,18.5-4.19,40.38,0,6.24,1.19,12.46,3.23,17.37,1.4,3.34,4.19,7.79,9.42,9.04,5.92,1.41,11.32-3.99,12.47-5.14,2.18-2.2,3.42-4.53,5.42-9.99,4.33-11.82,5.9-20.74,5.9-20.74,.65-3.73,1.17-9.36,2.18-20.45,.51-5.58,1.23-13.84,3.24-24.07,.79-4.02,1.68-7.9,4.56-11.89,3.68-5.09,6.15-6.35,7.23-6.66,.69-.2,3.36-.96,5.99,.38,2.69,1.38,3.66,4.11,4.09,5.33,.69,1.97,.68,3.64,.66,4.56-.12,6.12-.19,9.18-1.52,13.79-2.37,8.19-6.34,14.37-8.28,17.51-4.07,6.61-7.28,14.08-13.7,29.01-5.6,13.03-8.9,20.82-11.13,32.06-.27,1.36-1.3,6.68-1.99,13.79-.65,6.62-.8,12.66-.57,21.4,.35,13.88,.54,21.05,1.99,30.73,1.98,13.1,3.62,21.31,9.61,35.01,3.57,8.16,9.61,19.69,19.79,19.69,13.6,0,19.94-22.49,22.54-33.78,1.07-4.63,1.39-11.7,1.9-17.22,.62-6.5,1.45-18.19,.29-32.82-.44-5.49-.33-9.99-1.39-18.07-.94-7.17-1.33-14.42-.97-21.64,.14-2.88,.39-5.88,.8-8.78,.38-2.65,3.01-5.14,3.42-5.42,.96-.65,1.92-1.05,2.9-1.24v.1c.64-.14,1.24-.22,1.84-.25,.6,.02,1.2,.11,1.83,.25,2.5,.58,3.99,2.14,5.01,3.5,.61,.9,1.16,1.97,1.32,3.07,.41,2.9,.67,5.91,.8,8.78,.36,7.23-.03,14.47-.97,21.64-1.06,8.07-.95,12.58-1.39,18.07-1.16,14.63-.33,26.32,.29,32.82,.51,5.52,.83,12.59,1.9,17.22,2.6,11.28,8.94,33.78,22.54,33.78,10.18,0,16.22-11.53,19.79-19.69,5.99-13.7,7.64-21.91,9.61-35.01,1.46-9.67,1.64-16.85,1.99-30.73,.22-8.74,.08-14.79-.57-21.4-.69-7.11-1.72-12.43-1.99-13.79-2.23-11.24-5.53-19.03-11.13-32.06-6.42-14.93-9.63-22.4-13.7-29.01-1.93-3.14-5.91-9.32-8.28-17.51-1.33-4.61-1.4-7.67-1.52-13.79-.03-.92-.03-2.59,.66-4.56,.44-1.22,1.4-3.96,4.09-5.33,2.63-1.34,5.3-.57,5.99-.38,1.09,.31,3.55,1.58,7.23,6.66,2.89,3.99,3.78,7.88,4.56,11.89,2,10.23,2.72,18.48,3.24,24.07,1.01,11.1,1.53,16.72,2.18,20.45,0,0,1.57,8.91,5.9,20.74,2,5.46,3.24,7.79,5.42,9.99,1.15,1.15,6.54,6.55,12.47,5.14,5.23-1.25,8.02-5.7,9.42-9.04,2.05-4.91,3.23-11.13,3.23-17.37,0-21.88-.84-27.62-4.19-40.38Z"/>
        <g class="cls-5">
          <path class="cls-2" d="M223.09,225.98c-1.34-5.13-4.79-14.59-10.92-25.27-5.04-8.79-8.86-15.42-16.57-21.37-5.36-4.14-12.3-7.72-20.31-11.84-.54-.27-1.69-.65-5.21-2.71-.06-.04-.15-.1-.25-.18-1.54-1.23-2.57-2.99-2.98-4.92l-.25-1.2v-7.64c0-4.06,2.27-7.62,5.63-9.88,7.59-5.09,12.92-12.59,12.92-20.89,0-13.63-13.71-24.68-30.63-24.68-.09,0-.18,0-.27,0-.09,0-.18,0-.27,0-16.92,0-30.63,11.05-30.63,24.68,0,8.31,5.32,15.8,12.92,20.89,3.37,2.26,5.63,5.82,5.63,9.88v7.64l-.25,1.2c-.4,1.93-1.43,3.69-2.98,4.92-.1,.08-.19,.14-.25,.18-3.52,2.05-4.67,2.43-5.21,2.71-8.01,4.12-14.95,7.7-20.31,11.84-7.71,5.95-11.52,12.59-16.57,21.37-6.13,10.68-9.58,20.14-10.92,25.27-2.69,10.24-3.36,14.85-3.36,32.4,0,5.01,.95,10,2.6,13.94,1.12,2.68,3.36,6.25,7.56,7.26,4.75,1.13,9.08-3.2,10-4.12,1.75-1.77,2.74-3.63,4.35-8.02,3.48-9.49,4.73-16.64,4.73-16.64,.52-3,.94-7.51,1.75-16.41,.41-4.48,.99-11.1,2.6-19.31,.63-3.22,1.35-6.34,3.66-9.54,2.95-4.08,4.93-5.1,5.81-5.35,.56-.16,2.7-.77,4.81,.3,2.16,1.11,2.93,3.3,3.28,4.28,.56,1.58,.55,2.92,.53,3.66-.1,4.91-.15,7.37-1.22,11.07-1.9,6.58-5.09,11.53-6.64,14.05-3.26,5.3-5.84,11.3-10.99,23.28-4.49,10.46-7.14,16.71-8.93,25.73-.22,1.09-1.04,5.36-1.6,11.07-.52,5.31-.64,10.16-.46,17.18,.28,11.14,.43,16.89,1.6,24.66,1.59,10.51,2.91,17.1,7.72,28.09,2.87,6.55,7.71,15.8,15.88,15.8,10.92,0,16-18.05,18.09-27.1,.86-3.72,1.11-9.39,1.53-13.82,.49-5.21,1.16-14.59,.23-26.33-.35-4.4-.26-8.02-1.11-14.5-.76-5.76-1.06-11.57-.78-17.37,.11-2.31,.32-4.72,.65-7.05,.3-2.12,2.41-4.12,2.75-4.35,.77-.52,1.54-.84,2.32-1v.08c.51-.11,1-.18,1.48-.2,.48,.02,.97,.08,1.47,.2,2.01,.46,3.2,1.72,4.02,2.81,.49,.72,.93,1.58,1.06,2.46,.33,2.33,.54,4.74,.65,7.05,.29,5.8-.02,11.61-.78,17.37-.85,6.48-.76,10.09-1.11,14.5-.93,11.74-.26,21.12,.23,26.33,.41,4.43,.67,10.1,1.53,13.82,2.09,9.06,7.17,27.1,18.09,27.1,8.17,0,13.01-9.25,15.88-15.8,4.81-10.99,6.13-17.58,7.72-28.09,1.17-7.76,1.32-13.52,1.6-24.66,.18-7.01,.06-11.87-.46-17.18-.56-5.71-1.38-9.98-1.6-11.07-1.79-9.02-4.44-15.27-8.93-25.73-5.15-11.98-7.73-17.97-10.99-23.28-1.55-2.52-4.74-7.48-6.64-14.05-1.06-3.7-1.12-6.16-1.22-11.07-.02-.74-.03-2.08,.53-3.66,.35-.98,1.13-3.17,3.28-4.28,2.11-1.07,4.25-.46,4.81-.3,.87,.25,2.85,1.26,5.81,5.35,2.32,3.2,3.03,6.32,3.66,9.54,1.61,8.21,2.18,14.83,2.6,19.31,.81,8.9,1.23,13.42,1.75,16.41,0,0,1.26,7.15,4.73,16.64,1.61,4.38,2.6,6.25,4.35,8.02,.92,.92,5.25,5.26,10,4.12,4.2-1,6.44-4.58,7.56-7.26,1.64-3.94,2.6-8.93,2.6-13.94,0-17.55-.67-22.16-3.36-32.4Z"/>
          <path class="cls-4" d="M242.4,271.45c-1-3.83-3.58-10.9-8.16-18.88-3.77-6.57-6.62-11.53-12.38-15.97-4.01-3.1-9.19-5.77-15.18-8.85-.41-.21-1.26-.49-3.89-2.02-.05-.03-.11-.07-.19-.14-1.15-.92-1.92-2.24-2.23-3.68l-.19-.89v-5.71c0-3.03,1.69-5.69,4.21-7.38,5.67-3.8,9.65-9.41,9.65-15.62,0-10.19-10.25-18.44-22.89-18.44-.07,0-.13,0-.2,0-.07,0-.13,0-.2,0-12.64,0-22.89,8.26-22.89,18.44,0,6.21,3.98,11.81,9.65,15.62,2.52,1.69,4.21,4.35,4.21,7.38v5.71l-.19,.89c-.3,1.44-1.07,2.76-2.23,3.68-.08,.06-.14,.11-.19,.14-2.63,1.54-3.49,1.82-3.89,2.02-5.99,3.08-11.17,5.75-15.18,8.85-5.76,4.45-8.61,9.41-12.38,15.97-4.58,7.98-7.16,15.05-8.16,18.88-2.01,7.65-2.51,11.1-2.51,24.22,0,3.74,.71,7.47,1.94,10.42,.84,2,2.51,4.67,5.65,5.42,3.55,.85,6.79-2.39,7.48-3.08,1.31-1.32,2.05-2.72,3.25-5.99,2.6-7.09,3.54-12.44,3.54-12.44,.39-2.24,.7-5.61,1.31-12.27,.31-3.35,.74-8.3,1.94-14.43,.47-2.41,1.01-4.74,2.74-7.13,2.21-3.05,3.69-3.81,4.34-3.99,.42-.12,2.02-.58,3.59,.23,1.61,.83,2.19,2.46,2.45,3.2,.42,1.18,.41,2.18,.4,2.74-.07,3.67-.11,5.5-.91,8.27-1.42,4.91-3.8,8.62-4.97,10.5-2.44,3.96-4.36,8.44-8.22,17.4-3.36,7.82-5.34,12.49-6.68,19.23-.16,.82-.78,4.01-1.2,8.27-.39,3.97-.48,7.59-.34,12.84,.21,8.32,.32,12.63,1.2,18.43,1.19,7.86,2.17,12.78,5.77,21,2.14,4.89,5.76,11.81,11.87,11.81,8.16,0,11.96-13.49,13.52-20.26,.64-2.78,.83-7.01,1.14-10.33,.37-3.9,.87-10.91,.17-19.68-.26-3.29-.2-5.99-.83-10.83-.56-4.3-.8-8.65-.58-12.98,.08-1.73,.24-3.53,.48-5.27,.23-1.59,1.8-3.08,2.05-3.25,.58-.39,1.15-.63,1.74-.75v.06c.38-.09,.75-.13,1.1-.15,.36,.01,.72,.06,1.1,.15,1.5,.35,2.39,1.28,3.01,2.1,.37,.54,.7,1.18,.79,1.84,.25,1.74,.4,3.54,.48,5.27,.22,4.33-.02,8.68-.58,12.98-.64,4.84-.57,7.54-.83,10.83-.69,8.78-.2,15.78,.17,19.68,.31,3.31,.5,7.55,1.14,10.33,1.56,6.77,5.36,20.26,13.52,20.26,6.11,0,9.73-6.92,11.87-11.81,3.59-8.22,4.58-13.14,5.77-21,.87-5.8,.99-10.11,1.2-18.43,.13-5.24,.05-8.87-.34-12.84-.42-4.27-1.03-7.46-1.2-8.27-1.34-6.74-3.32-11.41-6.68-19.23-3.85-8.96-5.78-13.43-8.22-17.4-1.16-1.88-3.54-5.59-4.97-10.5-.8-2.77-.84-4.6-.91-8.27-.02-.55-.02-1.56,.4-2.74,.26-.73,.84-2.37,2.45-3.2,1.58-.8,3.18-.34,3.59-.23,.65,.18,2.13,.94,4.34,3.99,1.73,2.39,2.26,4.72,2.74,7.13,1.2,6.14,1.63,11.09,1.94,14.43,.61,6.65,.92,10.03,1.31,12.27,0,0,.94,5.35,3.54,12.44,1.2,3.28,1.94,4.67,3.25,5.99,.69,.69,3.92,3.93,7.48,3.08,3.14-.75,4.81-3.42,5.65-5.42,1.23-2.94,1.94-6.68,1.94-10.42,0-13.12-.5-16.56-2.51-24.22Z"/>
          <path class="cls-1" d="M240.51,359.17c-.68-2.59-2.42-7.37-5.51-12.76-2.55-4.44-4.47-7.79-8.36-10.79-2.71-2.09-6.21-3.89-10.25-5.98-.27-.14-.85-.33-2.63-1.37-.03-.02-.08-.05-.13-.09-.78-.62-1.3-1.51-1.5-2.49l-.13-.6v-3.86c0-2.05,1.14-3.85,2.84-4.99,3.83-2.57,6.52-6.35,6.52-10.55,0-6.88-6.92-12.46-15.46-12.46-.05,0-.09,0-.13,0-.04,0-.09,0-.13,0-8.54,0-15.46,5.58-15.46,12.46,0,4.19,2.69,7.98,6.52,10.55,1.7,1.14,2.84,2.94,2.84,4.99v3.86l-.13,.6c-.2,.98-.72,1.87-1.5,2.49-.05,.04-.1,.07-.13,.09-1.78,1.04-2.35,1.23-2.63,1.37-4.04,2.08-7.55,3.88-10.25,5.98-3.89,3-5.82,6.35-8.36,10.79-3.09,5.39-4.83,10.17-5.51,12.76-1.36,5.17-1.7,7.49-1.7,16.36,0,2.53,.48,5.05,1.31,7.04,.57,1.35,1.7,3.16,3.82,3.66,2.4,.57,4.59-1.62,5.05-2.08,.88-.89,1.38-1.83,2.2-4.05,1.75-4.79,2.39-8.4,2.39-8.4,.26-1.51,.48-3.79,.88-8.29,.21-2.26,.5-5.6,1.31-9.75,.32-1.63,.68-3.2,1.85-4.82,1.49-2.06,2.49-2.57,2.93-2.7,.28-.08,1.36-.39,2.43,.15,1.09,.56,1.48,1.66,1.66,2.16,.28,.8,.28,1.47,.27,1.85-.05,2.48-.08,3.72-.61,5.59-.96,3.32-2.57,5.82-3.35,7.09-1.65,2.68-2.95,5.7-5.55,11.75-2.27,5.28-3.6,8.44-4.51,12.99-.11,.55-.53,2.71-.81,5.59-.26,2.68-.32,5.13-.23,8.67,.14,5.62,.22,8.53,.81,12.45,.8,5.31,1.47,8.63,3.89,14.18,1.45,3.31,3.89,7.98,8.02,7.98,5.51,0,8.08-9.11,9.13-13.68,.43-1.88,.56-4.74,.77-6.97,.25-2.63,.59-7.37,.12-13.29-.18-2.22-.13-4.05-.56-7.32-.38-2.91-.54-5.84-.39-8.77,.06-1.17,.16-2.38,.33-3.56,.15-1.07,1.22-2.08,1.39-2.2,.39-.26,.78-.42,1.17-.5v.04c.26-.06,.5-.09,.75-.1,.24,0,.49,.04,.74,.1,1.01,.23,1.62,.87,2.03,1.42,.25,.36,.47,.8,.53,1.24,.17,1.18,.27,2.39,.33,3.56,.15,2.93-.01,5.86-.39,8.77-.43,3.27-.38,5.09-.56,7.32-.47,5.93-.13,10.66,.12,13.29,.21,2.24,.34,5.1,.77,6.97,1.05,4.57,3.62,13.68,9.13,13.68,4.12,0,6.57-4.67,8.02-7.98,2.43-5.55,3.09-8.88,3.89-14.18,.59-3.92,.67-6.83,.81-12.45,.09-3.54,.03-5.99-.23-8.67-.28-2.88-.7-5.04-.81-5.59-.91-4.55-2.24-7.71-4.51-12.99-2.6-6.05-3.9-9.07-5.55-11.75-.78-1.27-2.39-3.77-3.35-7.09-.54-1.87-.57-3.11-.61-5.59-.01-.37-.01-1.05,.27-1.85,.18-.5,.57-1.6,1.66-2.16,1.06-.54,2.15-.23,2.43-.15,.44,.12,1.44,.64,2.93,2.7,1.17,1.62,1.53,3.19,1.85,4.82,.81,4.14,1.1,7.49,1.31,9.75,.41,4.49,.62,6.77,.88,8.29,0,0,.63,3.61,2.39,8.4,.81,2.21,1.31,3.16,2.2,4.05,.46,.46,2.65,2.65,5.05,2.08,2.12-.51,3.25-2.31,3.82-3.66,.83-1.99,1.31-4.51,1.31-7.04,0-8.86-.34-11.19-1.7-16.36Z"/>
        </g>
      </g>
      <g>
        <g>
          <path class="cls-6" d="M82.62,61.98c4.08,1.55,7.53,2.61,10.16,3.35,1.77,.49,3.32,.88,5.12,.35,1.8-.53,2.91-1.72,4.14-3.09,1.18-1.3,2.88-3.52,4.13-6.85,.34-.7,.76-1.71,1.15-2.94,.55-1.77,.82-2.68,.54-3.4-.24-.59-.82-1.2-3.93-2.05-2.51-.69-4.3-1.18-6.98-1.2-1.03,0-3.38,.04-6.84,1-2.76,.76-7.29,2.39-12.34,6.11,1.01-6.19,.38-10.96-.19-13.76-.74-3.52-1.76-5.63-2.24-6.54-1.24-2.38-2.5-3.75-4.26-5.66-2.18-2.38-2.99-2.62-3.62-2.55-.78,.07-1.45,.72-2.77,2.03-.93,.91-1.62,1.74-2.1,2.37-2.39,2.63-3.58,5.16-4.21,6.8-.65,1.72-1.2,3.25-.85,5.1,.34,1.84,1.4,3.04,2.64,4.39,1.86,2.01,4.4,4.61,7.64,7.52-4.14-1.35-7.64-2.26-10.3-2.87-1.79-.41-3.36-.72-5.12-.11-1.78,.62-2.83,1.86-3.99,3.28-1.12,1.35-2.72,3.65-3.81,7.03-.3,.72-.68,1.74-1.01,2.99-.47,1.8-.7,2.71-.38,3.42,.26,.59,.87,1.16,4.03,1.87,2.54,.58,4.35,.99,7.02,.88,1.03-.04,3.37-.2,6.79-1.32,2.61-.84,6.83-2.58,11.48-6.23-1.12,5.8-.74,10.34-.29,13.05,.56,3.54,1.49,5.71,1.92,6.64,1.13,2.42,2.32,3.85,3.99,5.85,2.08,2.47,2.87,2.76,3.5,2.73,.78-.05,1.48-.66,2.87-1.9,.96-.87,1.7-1.67,2.21-2.26,2.5-2.52,3.82-4.99,4.51-6.6,.74-1.69,1.35-3.18,1.1-5.05-.26-1.86-1.26-3.1-2.44-4.51-1.76-2.09-4.14-4.79-7.24-7.86Z"/>
          <path class="cls-6" d="M226.89,188.5c4.08,1.55,7.53,2.61,10.16,3.35,1.77,.49,3.32,.88,5.12,.35,1.8-.53,2.91-1.72,4.14-3.09,1.18-1.3,2.88-3.52,4.13-6.85,.34-.7,.76-1.71,1.15-2.94,.55-1.77,.82-2.68,.54-3.4-.24-.59-.82-1.2-3.93-2.05-2.51-.69-4.3-1.18-6.98-1.2-1.03,0-3.38,.04-6.84,1-2.76,.76-7.29,2.39-12.34,6.11,1.01-6.19,.38-10.96-.19-13.76-.74-3.52-1.76-5.63-2.24-6.54-1.24-2.38-2.5-3.75-4.26-5.66-2.18-2.38-2.99-2.62-3.62-2.55-.78,.07-1.45,.72-2.77,2.03-.93,.91-1.62,1.74-2.1,2.37-2.39,2.63-3.58,5.16-4.21,6.8-.65,1.72-1.2,3.25-.85,5.1,.34,1.84,1.4,3.04,2.64,4.39,1.86,2.01,4.4,4.61,7.64,7.52-4.14-1.35-7.64-2.26-10.3-2.87-1.79-.41-3.36-.72-5.12-.11-1.78,.62-2.83,1.86-3.99,3.28-1.12,1.35-2.72,3.65-3.81,7.03-.3,.72-.68,1.74-1.01,2.99-.47,1.8-.7,2.71-.38,3.42,.26,.59,.87,1.16,4.03,1.87,2.54,.58,4.35,.99,7.02,.88,1.03-.04,3.37-.2,6.79-1.32,2.61-.84,6.83-2.58,11.48-6.23-1.12,5.8-.74,10.34-.29,13.05,.56,3.54,1.49,5.71,1.92,6.64,1.13,2.42,2.32,3.85,3.99,5.85,2.08,2.47,2.87,2.76,3.5,2.73,.78-.05,1.48-.66,2.87-1.9,.96-.87,1.7-1.67,2.21-2.26,2.5-2.52,3.82-4.99,4.51-6.6,.74-1.69,1.35-3.18,1.1-5.05-.26-1.86-1.26-3.1-2.44-4.51-1.76-2.09-4.14-4.79-7.24-7.86Z"/>
          <path class="cls-9" d="M219.66,280.78c4.08,1.55,7.53,2.61,10.16,3.35,1.77,.49,3.32,.88,5.12,.35,1.8-.53,2.91-1.72,4.14-3.09,1.18-1.3,2.88-3.52,4.13-6.85,.34-.7,.76-1.71,1.15-2.94,.55-1.77,.82-2.68,.54-3.4-.24-.59-.82-1.2-3.93-2.05-2.51-.69-4.3-1.18-6.98-1.2-1.03,0-3.38,.04-6.84,1-2.76,.76-7.29,2.39-12.34,6.11,1.01-6.19,.38-10.96-.19-13.76-.74-3.52-1.76-5.63-2.24-6.54-1.24-2.38-2.5-3.75-4.26-5.66-2.18-2.38-2.99-2.62-3.62-2.55-.78,.07-1.45,.72-2.77,2.03-.93,.91-1.62,1.74-2.1,2.37-2.39,2.63-3.58,5.16-4.21,6.8-.65,1.72-1.2,3.25-.85,5.1,.34,1.84,1.4,3.04,2.64,4.39,1.86,2.01,4.4,4.61,7.64,7.52-4.14-1.35-7.64-2.26-10.3-2.87-1.79-.41-3.36-.72-5.12-.11-1.78,.62-2.83,1.86-3.99,3.28-1.12,1.35-2.72,3.65-3.81,7.03-.3,.72-.68,1.74-1.01,2.99-.47,1.8-.7,2.71-.38,3.42,.26,.59,.87,1.16,4.03,1.87,2.54,.58,4.35,.99,7.02,.88,1.03-.04,3.37-.2,6.79-1.32,2.61-.84,6.83-2.58,11.48-6.23-1.12,5.8-.74,10.34-.29,13.05,.56,3.54,1.49,5.71,1.92,6.64,1.13,2.42,2.32,3.85,3.99,5.85,2.08,2.47,2.87,2.76,3.5,2.73,.78-.05,1.48-.66,2.87-1.9,.96-.87,1.7-1.67,2.21-2.26,2.5-2.52,3.82-4.99,4.51-6.6,.74-1.69,1.35-3.18,1.1-5.05-.26-1.86-1.26-3.1-2.44-4.51-1.76-2.09-4.14-4.79-7.24-7.86Z"/>
          <path class="cls-3" d="M94.03,179.56c4.08,1.55,7.53,2.61,10.16,3.35,1.77,.49,3.32,.88,5.12,.35,1.8-.53,2.91-1.72,4.14-3.09,1.18-1.3,2.88-3.52,4.13-6.85,.34-.7,.76-1.71,1.15-2.94,.55-1.77,.82-2.68,.54-3.4-.24-.59-.82-1.2-3.93-2.05-2.51-.69-4.3-1.18-6.98-1.2-1.03,0-3.38,.04-6.84,1-2.76,.76-7.29,2.39-12.34,6.11,1.01-6.19,.38-10.96-.19-13.76-.74-3.52-1.76-5.63-2.24-6.54-1.24-2.38-2.5-3.75-4.26-5.66-2.18-2.38-2.99-2.62-3.62-2.55-.78,.07-1.45,.72-2.77,2.03-.93,.91-1.62,1.74-2.1,2.37-2.39,2.63-3.58,5.16-4.21,6.8-.65,1.72-1.2,3.25-.85,5.1,.34,1.84,1.4,3.04,2.64,4.39,1.86,2.01,4.4,4.61,7.64,7.52-4.14-1.35-7.64-2.26-10.3-2.87-1.79-.41-3.36-.72-5.12-.11-1.78,.62-2.83,1.86-3.99,3.28-1.12,1.35-2.72,3.65-3.81,7.03-.3,.72-.68,1.74-1.01,2.99-.47,1.8-.7,2.71-.38,3.42,.26,.59,.87,1.16,4.03,1.87,2.54,.58,4.35,.99,7.02,.88,1.03-.04,3.37-.2,6.79-1.32,2.61-.84,6.83-2.58,11.48-6.23-1.12,5.8-.74,10.34-.29,13.05,.56,3.54,1.49,5.71,1.92,6.64,1.13,2.42,2.32,3.85,3.99,5.85,2.08,2.47,2.87,2.76,3.5,2.73,.78-.05,1.48-.66,2.87-1.9,.96-.87,1.7-1.67,2.21-2.26,2.5-2.52,3.82-4.99,4.51-6.6,.74-1.69,1.35-3.18,1.1-5.05-.26-1.86-1.26-3.1-2.44-4.51-1.76-2.09-4.14-4.79-7.24-7.86Z"/>
          <path class="cls-3" d="M303.51,146.85c4.08,1.55,7.53,2.61,10.16,3.35,1.77,.49,3.32,.88,5.12,.35,1.8-.53,2.91-1.72,4.14-3.09,1.18-1.3,2.88-3.52,4.13-6.85,.34-.7,.76-1.71,1.15-2.94,.55-1.77,.82-2.68,.54-3.4-.24-.59-.82-1.2-3.93-2.05-2.51-.69-4.3-1.18-6.98-1.2-1.03,0-3.38,.04-6.84,1-2.76,.76-7.29,2.39-12.34,6.11,1.01-6.19,.38-10.96-.19-13.76-.74-3.52-1.76-5.63-2.24-6.54-1.24-2.38-2.5-3.75-4.26-5.66-2.18-2.38-2.99-2.62-3.62-2.55-.78,.07-1.45,.72-2.77,2.03-.93,.91-1.62,1.74-2.1,2.37-2.39,2.63-3.58,5.16-4.21,6.8-.65,1.72-1.2,3.25-.85,5.1,.34,1.84,1.4,3.04,2.64,4.39,1.86,2.01,4.4,4.61,7.64,7.52-4.14-1.35-7.64-2.26-10.3-2.87-1.79-.41-3.36-.72-5.12-.11-1.78,.62-2.83,1.86-3.99,3.28-1.12,1.35-2.72,3.65-3.81,7.03-.3,.72-.68,1.74-1.01,2.99-.47,1.8-.7,2.71-.38,3.42,.26,.59,.87,1.16,4.03,1.87,2.54,.58,4.35,.99,7.02,.88,1.03-.04,3.37-.2,6.79-1.32,2.61-.84,6.83-2.58,11.48-6.23-1.12,5.8-.74,10.34-.29,13.05,.56,3.54,1.49,5.71,1.92,6.64,1.13,2.42,2.32,3.85,3.99,5.85,2.08,2.47,2.87,2.76,3.5,2.73,.78-.05,1.48-.66,2.87-1.9,.96-.87,1.7-1.67,2.21-2.26,2.5-2.52,3.82-4.99,4.51-6.6,.74-1.69,1.35-3.18,1.1-5.05-.26-1.86-1.26-3.1-2.44-4.51-1.76-2.09-4.14-4.79-7.24-7.86Z"/>
          <path class="cls-9" d="M163.12,38.72c3.36-2.78,5.99-5.25,7.93-7.18,1.3-1.29,2.4-2.45,2.83-4.28,.43-1.83-.06-3.38-.64-5.12-.55-1.67-1.64-4.24-3.92-6.98-.44-.64-1.11-1.5-1.99-2.45-1.27-1.36-1.92-2.04-2.69-2.15-.63-.09-1.45,.12-3.73,2.4-1.84,1.84-3.15,3.16-4.49,5.47-.52,.89-1.63,2.96-2.52,6.44-.7,2.77-1.53,7.52-.78,13.75-4.88-3.94-9.34-5.75-12.06-6.63-3.42-1.1-5.76-1.25-6.79-1.28-2.68-.1-4.49,.32-7.03,.91-3.14,.73-3.76,1.3-4.01,1.89-.32,.71-.09,1.62,.39,3.41,.33,1.26,.71,2.27,1.02,3,1.11,3.38,2.71,5.66,3.83,7.02,1.18,1.41,2.23,2.65,4.01,3.26,1.77,.61,3.33,.29,5.12-.13,2.66-.63,6.18-1.55,10.32-2.92-3.22,2.93-5.74,5.53-7.59,7.54-1.24,1.35-2.29,2.56-2.62,4.4-.34,1.85,.22,3.38,.88,5.09,.62,1.64,1.83,4.16,4.23,6.78,.48,.62,1.18,1.45,2.1,2.36,1.33,1.3,2.01,1.94,2.78,2.02,.64,.06,1.44-.19,3.62-2.58,1.76-1.93,3.01-3.29,4.24-5.67,.47-.92,1.49-3.03,2.2-6.56,.55-2.68,1.13-7.21,.26-13.06,4.49,3.84,8.63,5.75,11.2,6.7,3.36,1.26,5.7,1.53,6.72,1.61,2.66,.22,4.49-.12,7.05-.58,3.18-.58,3.82-1.13,4.1-1.7,.35-.7,.16-1.62-.24-3.43-.28-1.27-.61-2.3-.88-3.04-.95-3.42-2.45-5.79-3.51-7.19-1.11-1.48-2.09-2.75-3.85-3.45-1.75-.69-3.31-.44-5.12-.11-2.69,.5-6.21,1.24-10.41,2.42Z"/>
          <path class="cls-4" d="M250.92,96.18c3.36-2.78,5.99-5.25,7.93-7.18,1.3-1.29,2.4-2.45,2.83-4.28,.43-1.83-.06-3.38-.64-5.12-.55-1.67-1.64-4.24-3.92-6.98-.44-.64-1.11-1.5-1.99-2.45-1.27-1.36-1.92-2.04-2.69-2.15-.63-.09-1.45,.12-3.73,2.4-1.84,1.84-3.15,3.16-4.49,5.47-.52,.89-1.63,2.96-2.52,6.44-.7,2.77-1.53,7.52-.78,13.75-4.88-3.94-9.34-5.75-12.06-6.63-3.42-1.1-5.76-1.25-6.79-1.28-2.68-.1-4.49,.32-7.03,.91-3.14,.73-3.76,1.3-4.01,1.89-.32,.71-.09,1.62,.39,3.41,.33,1.26,.71,2.27,1.02,3,1.11,3.38,2.71,5.66,3.83,7.02,1.18,1.41,2.23,2.65,4.01,3.26,1.77,.61,3.33,.29,5.12-.13,2.66-.63,6.18-1.55,10.32-2.92-3.22,2.93-5.74,5.53-7.59,7.54-1.24,1.35-2.29,2.56-2.62,4.4-.34,1.85,.22,3.38,.88,5.09,.62,1.64,1.83,4.16,4.23,6.78,.48,.62,1.18,1.45,2.1,2.36,1.33,1.3,2.01,1.94,2.78,2.02,.64,.06,1.44-.19,3.62-2.58,1.76-1.93,3.01-3.29,4.24-5.67,.47-.92,1.49-3.03,2.2-6.56,.55-2.68,1.13-7.21,.26-13.06,4.49,3.84,8.63,5.75,11.2,6.7,3.36,1.26,5.7,1.53,6.72,1.61,2.66,.22,4.49-.12,7.05-.58,3.18-.58,3.82-1.13,4.1-1.7,.35-.7,.16-1.62-.24-3.43-.28-1.27-.61-2.3-.88-3.04-.95-3.42-2.45-5.79-3.51-7.19-1.11-1.48-2.09-2.75-3.85-3.45-1.75-.69-3.31-.44-5.12-.11-2.69,.5-6.21,1.24-10.41,2.42Z"/>
          <path class="cls-7" d="M133.63,104.6c3.36-2.78,5.99-5.25,7.93-7.18,1.3-1.29,2.4-2.45,2.83-4.28,.43-1.83-.06-3.38-.64-5.12-.55-1.67-1.64-4.24-3.92-6.98-.44-.64-1.11-1.5-1.99-2.45-1.27-1.36-1.92-2.04-2.69-2.15-.63-.09-1.45,.12-3.73,2.4-1.84,1.84-3.15,3.16-4.49,5.47-.52,.89-1.63,2.96-2.52,6.44-.7,2.77-1.53,7.52-.78,13.75-4.88-3.94-9.34-5.75-12.06-6.63-3.42-1.1-5.76-1.25-6.79-1.28-2.68-.1-4.49,.32-7.03,.91-3.14,.73-3.76,1.3-4.01,1.89-.32,.71-.09,1.62,.39,3.41,.33,1.26,.71,2.27,1.02,3,1.11,3.38,2.71,5.66,3.83,7.02,1.18,1.41,2.23,2.65,4.01,3.26,1.77,.61,3.33,.29,5.12-.13,2.66-.63,6.18-1.55,10.32-2.92-3.22,2.93-5.74,5.53-7.59,7.54-1.24,1.35-2.29,2.56-2.62,4.4-.34,1.85,.22,3.38,.88,5.09,.62,1.64,1.83,4.16,4.23,6.78,.48,.62,1.18,1.45,2.1,2.36,1.33,1.3,2.01,1.94,2.78,2.02,.64,.06,1.44-.19,3.62-2.58,1.76-1.93,3.01-3.29,4.24-5.67,.47-.92,1.49-3.03,2.2-6.56,.55-2.68,1.13-7.21,.26-13.06,4.49,3.84,8.63,5.75,11.2,6.7,3.36,1.26,5.7,1.53,6.72,1.61,2.66,.22,4.49-.12,7.05-.58,3.18-.58,3.82-1.13,4.1-1.7,.35-.7,.16-1.62-.24-3.43-.28-1.27-.61-2.3-.88-3.04-.95-3.42-2.45-5.79-3.51-7.19-1.11-1.48-2.09-2.75-3.85-3.45-1.75-.69-3.31-.44-5.12-.11-2.69,.5-6.21,1.24-10.41,2.42Z"/>
          <path class="cls-7" d="M295.35,225.61c3.36-2.78,5.99-5.25,7.93-7.18,1.3-1.29,2.4-2.45,2.83-4.28,.43-1.83-.06-3.38-.64-5.12-.55-1.67-1.64-4.24-3.92-6.98-.44-.64-1.11-1.5-1.99-2.45-1.27-1.36-1.92-2.04-2.69-2.15-.63-.09-1.45,.12-3.73,2.4-1.84,1.84-3.15,3.16-4.49,5.47-.52,.89-1.63,2.96-2.52,6.44-.7,2.77-1.53,7.52-.78,13.75-4.88-3.94-9.34-5.75-12.06-6.63-3.42-1.1-5.76-1.25-6.79-1.28-2.68-.1-4.49,.32-7.03,.91-3.14,.73-3.76,1.3-4.01,1.89-.32,.71-.09,1.62,.39,3.41,.33,1.26,.71,2.27,1.02,3,1.11,3.38,2.71,5.66,3.83,7.02,1.18,1.41,2.23,2.65,4.01,3.26,1.77,.61,3.33,.29,5.12-.13,2.66-.63,6.18-1.55,10.32-2.92-3.22,2.93-5.74,5.53-7.59,7.54-1.24,1.35-2.29,2.56-2.62,4.4-.34,1.85,.22,3.38,.88,5.09,.62,1.64,1.83,4.16,4.23,6.78,.48,.62,1.18,1.45,2.1,2.36,1.33,1.3,2.01,1.94,2.78,2.02,.64,.06,1.44-.19,3.62-2.58,1.76-1.93,3.01-3.29,4.24-5.67,.47-.92,1.49-3.03,2.2-6.56,.55-2.68,1.13-7.21,.26-13.06,4.49,3.84,8.63,5.75,11.2,6.7,3.36,1.26,5.7,1.53,6.72,1.61,2.66,.22,4.49-.12,7.05-.58,3.18-.58,3.82-1.13,4.1-1.7,.35-.7,.16-1.62-.24-3.43-.28-1.27-.61-2.3-.88-3.04-.95-3.42-2.45-5.79-3.51-7.19-1.11-1.48-2.09-2.75-3.85-3.45-1.75-.69-3.31-.44-5.12-.11-2.69,.5-6.21,1.24-10.41,2.42Z"/>
          <path class="cls-7" d="M81.5,278.12c3.36-2.78,5.99-5.25,7.93-7.18,1.3-1.29,2.4-2.45,2.83-4.28,.43-1.83-.06-3.38-.64-5.12-.55-1.67-1.64-4.24-3.92-6.98-.44-.64-1.11-1.5-1.99-2.45-1.27-1.36-1.92-2.04-2.69-2.15-.63-.09-1.45,.12-3.73,2.4-1.84,1.84-3.15,3.16-4.49,5.47-.52,.89-1.63,2.96-2.52,6.44-.7,2.77-1.53,7.52-.78,13.75-4.88-3.94-9.34-5.75-12.06-6.63-3.42-1.1-5.76-1.25-6.79-1.28-2.68-.1-4.49,.32-7.03,.91-3.14,.73-3.76,1.3-4.01,1.89-.32,.71-.09,1.62,.39,3.41,.33,1.26,.71,2.27,1.02,3,1.11,3.38,2.71,5.66,3.83,7.02,1.18,1.41,2.23,2.65,4.01,3.26,1.77,.61,3.33,.29,5.12-.13,2.66-.63,6.18-1.55,10.32-2.92-3.22,2.93-5.74,5.53-7.59,7.54-1.24,1.35-2.29,2.56-2.62,4.4-.34,1.85,.22,3.38,.88,5.09,.62,1.64,1.83,4.16,4.23,6.78,.48,.62,1.18,1.45,2.1,2.36,1.33,1.3,2.01,1.94,2.78,2.02,.64,.06,1.44-.19,3.62-2.58,1.76-1.93,3.01-3.29,4.24-5.67,.47-.92,1.49-3.03,2.2-6.56,.55-2.68,1.13-7.21,.26-13.06,4.49,3.84,8.63,5.75,11.2,6.7,3.36,1.26,5.7,1.53,6.72,1.61,2.66,.22,4.49-.12,7.05-.58,3.18-.58,3.82-1.13,4.1-1.7,.35-.7,.16-1.62-.24-3.43-.28-1.27-.61-2.3-.88-3.04-.95-3.42-2.45-5.79-3.51-7.19-1.11-1.48-2.09-2.75-3.85-3.45-1.75-.69-3.31-.44-5.12-.11-2.69,.5-6.21,1.24-10.41,2.42Z"/>
          <path class="cls-1" d="M40.02,127.19c3.36-2.78,5.99-5.25,7.93-7.18,1.3-1.29,2.4-2.45,2.83-4.28,.43-1.83-.06-3.38-.64-5.12-.55-1.67-1.64-4.24-3.92-6.98-.44-.64-1.11-1.5-1.99-2.45-1.27-1.36-1.92-2.04-2.69-2.15-.63-.09-1.45,.12-3.73,2.4-1.84,1.84-3.15,3.16-4.49,5.47-.52,.89-1.63,2.96-2.52,6.44-.7,2.77-1.53,7.52-.78,13.75-4.88-3.94-9.34-5.75-12.06-6.63-3.42-1.1-5.76-1.25-6.79-1.28-2.68-.1-4.49,.32-7.03,.91-3.14,.73-3.76,1.3-4.01,1.89-.32,.71-.09,1.62,.39,3.41,.33,1.26,.71,2.27,1.02,3,1.11,3.38,2.71,5.66,3.83,7.02,1.18,1.41,2.23,2.65,4.01,3.26,1.77,.61,3.33,.29,5.12-.13,2.66-.63,6.18-1.55,10.32-2.92-3.22,2.93-5.74,5.53-7.59,7.54-1.24,1.35-2.29,2.56-2.62,4.4-.34,1.85,.22,3.38,.88,5.09,.62,1.64,1.83,4.16,4.23,6.78,.48,.62,1.18,1.45,2.1,2.36,1.33,1.3,2.01,1.94,2.78,2.02,.64,.06,1.44-.19,3.62-2.58,1.76-1.93,3.01-3.29,4.24-5.67,.47-.92,1.49-3.03,2.2-6.56,.55-2.68,1.13-7.21,.26-13.06,4.49,3.84,8.63,5.75,11.2,6.7,3.36,1.26,5.7,1.53,6.72,1.61,2.66,.22,4.49-.12,7.05-.58,3.18-.58,3.82-1.13,4.1-1.7,.35-.7,.16-1.62-.24-3.43-.28-1.27-.61-2.3-.88-3.04-.95-3.42-2.45-5.79-3.51-7.19-1.11-1.48-2.09-2.75-3.85-3.45-1.75-.69-3.31-.44-5.12-.11-2.69,.5-6.21,1.24-10.41,2.42Z"/>
          <path class="cls-7" d="M234.34,37.28c4.08,1.56,7.52,2.63,10.15,3.37,1.77,.5,3.31,.89,5.12,.36,1.8-.53,2.91-1.71,4.14-3.08,1.18-1.3,2.89-3.51,4.15-6.84,.34-.7,.76-1.71,1.15-2.94,.56-1.77,.83-2.67,.55-3.4-.23-.6-.82-1.2-3.93-2.06-2.51-.7-4.3-1.19-6.97-1.21-1.03-.01-3.38,.03-6.84,.98-2.76,.75-7.29,2.37-12.36,6.09,1.03-6.19,.41-10.96-.16-13.76-.73-3.52-1.75-5.63-2.22-6.54-1.24-2.38-2.49-3.75-4.25-5.67C220.69,.19,219.89-.06,219.25,0c-.78,.07-1.45,.72-2.77,2.02-.93,.91-1.63,1.74-2.11,2.37-2.4,2.62-3.59,5.15-4.22,6.79-.65,1.72-1.21,3.24-.86,5.1,.34,1.84,1.39,3.04,2.63,4.39,1.86,2.01,4.39,4.62,7.62,7.54-4.14-1.36-7.64-2.28-10.3-2.89-1.79-.41-3.36-.73-5.12-.12-1.78,.62-2.83,1.85-4,3.28-1.12,1.35-2.72,3.64-3.82,7.02-.3,.72-.68,1.74-1.02,2.99-.47,1.8-.7,2.71-.39,3.42,.26,.59,.87,1.16,4.02,1.88,2.54,.58,4.35,1,7.02,.9,1.03-.04,3.37-.2,6.79-1.31,2.61-.84,6.83-2.57,11.5-6.2-1.13,5.8-.76,10.34-.32,13.05,.56,3.55,1.48,5.71,1.91,6.64,1.12,2.43,2.31,3.85,3.97,5.85,2.07,2.48,2.86,2.77,3.5,2.73,.78-.04,1.48-.66,2.87-1.9,.96-.87,1.7-1.67,2.21-2.26,2.51-2.51,3.83-4.98,4.53-6.59,.74-1.69,1.36-3.18,1.11-5.05-.26-1.86-1.25-3.1-2.42-4.51-1.76-2.09-4.13-4.8-7.23-7.87Z"/>
        </g>
        <path class="cls-3" d="M118.03,396.08c3.36-2.78,5.99-5.25,7.93-7.18,1.3-1.29,2.4-2.45,2.83-4.28,.43-1.83-.06-3.38-.64-5.12-.55-1.67-1.64-4.24-3.92-6.98-.44-.64-1.11-1.5-1.99-2.45-1.27-1.36-1.92-2.04-2.69-2.15-.63-.09-1.45,.12-3.73,2.4-1.84,1.84-3.15,3.16-4.49,5.47-.52,.89-1.63,2.96-2.52,6.44-.7,2.77-1.53,7.52-.78,13.75-4.88-3.94-9.34-5.75-12.06-6.63-3.42-1.1-5.76-1.25-6.79-1.28-2.68-.1-4.49,.32-7.03,.91-3.14,.73-3.76,1.3-4.01,1.89-.32,.71-.09,1.62,.39,3.41,.33,1.26,.71,2.27,1.02,3,1.11,3.38,2.71,5.66,3.83,7.02,1.18,1.41,2.23,2.65,4.01,3.26,1.77,.61,3.33,.29,5.12-.13,2.66-.63,6.18-1.55,10.32-2.92-3.22,2.93-5.74,5.53-7.59,7.54-1.24,1.35-2.29,2.56-2.62,4.4-.34,1.85,.22,3.38,.88,5.09,.62,1.64,1.83,4.16,4.23,6.78,.48,.62,1.18,1.45,2.1,2.36,1.33,1.3,2.01,1.94,2.78,2.02,.64,.06,1.44-.19,3.62-2.58,1.76-1.93,3.01-3.29,4.24-5.67,.47-.92,1.49-3.03,2.2-6.56,.55-2.68,1.13-7.21,.26-13.06,4.49,3.84,8.63,5.75,11.2,6.7,3.36,1.26,5.7,1.53,6.72,1.61,2.66,.22,4.49-.12,7.05-.58,3.18-.58,3.82-1.13,4.1-1.7,.35-.7,.16-1.62-.24-3.43-.28-1.27-.61-2.3-.88-3.04-.95-3.42-2.45-5.79-3.51-7.19-1.11-1.48-2.09-2.75-3.85-3.45-1.75-.69-3.31-.44-5.12-.11-2.69,.5-6.21,1.24-10.41,2.42Z"/>
      </g>
    </g>
  </g>
</svg>