<?xml version="1.0" encoding="UTF-8"?>
<svg id="Layer_2" data-name="Layer 2" xmlns="http://www.w3.org/2000/svg" xmlns:xlink="http://www.w3.org/1999/xlink" viewBox="0 0 623.87 413.79">
  <defs>
    <style>
      .cls-1 {
        fill: #e31921;
      }

      .cls-2 {
        clip-path: url(#clippath-2);
      }

      .cls-3, .cls-4 {
        stroke: #606060;
        stroke-miterlimit: 10;
      }

      .cls-3, .cls-5 {
        fill: #ebebeb;
      }

      .cls-6 {
        fill: #0054a6;
      }

      .cls-7 {
        clip-path: url(#clippath-1);
      }

      .cls-8 {
        clip-path: url(#clippath-4);
      }

      .cls-4 {
        fill: none;
      }

      .cls-9 {
        fill: #8bc53b;
      }

      .cls-10 {
        fill: #fd0;
      }

      .cls-11 {
        clip-path: url(#clippath);
      }

      .cls-12 {
        clip-path: url(#clippath-3);
      }

      .cls-13 {
        fill: #f7922f;
      }

      .cls-14 {
        clip-path: url(#clippath-5);
      }

      .cls-15 {
        fill: #bbb7da;
      }

      .cls-16 {
        fill: #00baf1;
      }

      .cls-17 {
        fill: #83378a;
      }
    </style>
    <clipPath id="clippath">
      <rect class="cls-3" x=".5" y=".5" width="622.87" height="412.79"/>
    </clipPath>
    <clipPath id="clippath-1">
      <path class="cls-17" d="M107.51-49.26C88.04-31.15,64.41-2.84,60.51,34.71c-2.74,26.37,6.37,36.92,2,61.03-8.16,45.04-54.18,86.99-76,80-19.48-6.25-32.13-55.53-10-230,43.67,1.67,87.33,3.33,131,5Z"/>
    </clipPath>
    <clipPath id="clippath-2">
      <path class="cls-1" d="M423.19-6.85c8.87,22.6,24.18,49.99,51,59,32.92,11.06,53.25-15.61,88-8,52.7,11.54,69.32,86.76,83,83,7.63-2.1,12.56-28.28-6-150-72,5.33-144,10.67-216,16Z"/>
    </clipPath>
    <clipPath id="clippath-3">
      <path class="cls-13" d="M-1.47,309.09c14.95,1.79,35.63,6.76,53,22,12.56,11.02,12.07,17.48,23,28,21.49,20.68,43.49,15.08,76,26,35.3,11.85,71.86,39.45,69,52-2.8,12.32-45.97,20.78-231,1,3.33-43,6.67-86,10-129Z"/>
    </clipPath>
    <clipPath id="clippath-4">
      <path class="cls-9" d="M626.19,270.23c-22.18,1.47-48.05,7.1-60,26-15.36,24.29,5.11,50.2-11,70-14.37,17.66-36.8,4.57-74,22-25.2,11.81-52.56,35.45-49,47,3.66,11.87,42.3,18.46,205-9-3.67-52-7.33-104-11-156Z"/>
    </clipPath>
    <clipPath id="clippath-5">
      <path class="cls-16" d="M360.89,221.66c-.92-3.5-3.27-9.97-7.46-17.26-3.45-6-6.05-10.54-11.32-14.6-3.66-2.83-8.4-5.27-13.87-8.09-.37-.19-1.15-.45-3.56-1.85-.04-.03-.1-.07-.17-.12-1.06-.84-1.76-2.04-2.03-3.36l-.17-.82v-5.22c0-2.77,1.55-5.21,3.85-6.75,5.19-3.48,8.82-8.6,8.82-14.27,0-9.31-9.37-16.86-20.92-16.86-.06,0-.12,0-.18,0-.06,0-.12,0-.18,0-11.56,0-20.92,7.55-20.92,16.86,0,5.67,3.64,10.8,8.82,14.27,2.3,1.54,3.85,3.98,3.85,6.75v5.22l-.17,.82c-.28,1.32-.98,2.52-2.03,3.36-.07,.06-.13,.1-.17,.12-2.4,1.4-3.19,1.66-3.56,1.85-5.47,2.82-10.21,5.26-13.87,8.09-5.27,4.06-7.87,8.6-11.32,14.6-4.19,7.29-6.54,13.76-7.46,17.26-1.84,6.99-2.29,10.14-2.29,22.13,0,3.42,.65,6.83,1.77,9.52,.77,1.83,2.3,4.27,5.16,4.96,3.25,.77,6.21-2.19,6.83-2.82,1.2-1.21,1.87-2.48,2.97-5.48,2.37-6.48,3.23-11.37,3.23-11.37,.36-2.05,.64-5.13,1.2-11.21,.28-3.06,.68-7.58,1.77-13.19,.43-2.2,.92-4.33,2.5-6.52,2.02-2.79,3.37-3.48,3.97-3.65,.38-.11,1.84-.53,3.29,.21,1.47,.76,2,2.25,2.24,2.92,.38,1.08,.38,1.99,.36,2.5-.07,3.36-.1,5.03-.83,7.56-1.3,4.49-3.48,7.88-4.54,9.6-2.23,3.62-3.99,7.72-7.51,15.9-3.07,7.14-4.88,11.42-6.1,17.58-.15,.75-.71,3.66-1.09,7.56-.36,3.63-.44,6.94-.31,11.73,.19,7.61,.3,11.54,1.09,16.85,1.08,7.18,1.99,11.68,5.27,19.19,1.96,4.47,5.27,10.8,10.85,10.8,7.46,0,10.93-12.33,12.36-18.52,.59-2.54,.76-6.41,1.04-9.44,.34-3.56,.79-9.97,.16-17.99-.24-3.01-.18-5.48-.76-9.9-.52-3.93-.73-7.9-.53-11.87,.08-1.58,.22-3.22,.44-4.82,.21-1.45,1.65-2.82,1.88-2.97,.53-.36,1.05-.57,1.59-.68v.05c.35-.08,.68-.12,1.01-.14,.33,.01,.66,.06,1,.14,1.37,.32,2.19,1.17,2.75,1.92,.34,.49,.64,1.08,.72,1.68,.23,1.59,.37,3.24,.44,4.82,.2,3.96-.01,7.93-.53,11.87-.58,4.43-.52,6.89-.76,9.9-.63,8.02-.18,14.43,.16,17.99,.28,3.03,.46,6.9,1.04,9.44,1.43,6.19,4.9,18.52,12.36,18.52,5.58,0,8.89-6.32,10.85-10.8,3.29-7.51,4.19-12.01,5.27-19.19,.8-5.3,.9-9.24,1.09-16.85,.12-4.79,.04-8.11-.31-11.73-.38-3.9-.94-6.82-1.09-7.56-1.23-6.16-3.03-10.43-6.1-17.58-3.52-8.19-5.28-12.28-7.51-15.9-1.06-1.72-3.24-5.11-4.54-9.6-.73-2.53-.77-4.21-.83-7.56-.01-.51-.02-1.42,.36-2.5,.24-.67,.77-2.17,2.24-2.92,1.44-.73,2.91-.31,3.29-.21,.6,.17,1.95,.86,3.97,3.65,1.58,2.19,2.07,4.32,2.5,6.52,1.1,5.61,1.49,10.13,1.77,13.19,.55,6.08,.84,9.17,1.2,11.21,0,0,.86,4.89,3.23,11.37,1.1,2.99,1.77,4.27,2.97,5.48,.63,.63,3.59,3.59,6.83,2.82,2.87-.69,4.4-3.13,5.16-4.96,1.12-2.69,1.77-6.1,1.77-9.52,0-11.99-.46-15.14-2.29-22.13Z"/>
    </clipPath>
  </defs>
  <g id="Layer_1-2" data-name="Layer 1">
    <g>
      <rect class="cls-5" x=".5" y=".5" width="622.87" height="412.79"/>
      <g class="cls-11">
        <g>
          <path class="cls-17" d="M107.51-49.26C88.04-31.15,64.41-2.84,60.51,34.71c-2.74,26.37,6.37,36.92,2,61.03-8.16,45.04-54.18,86.99-76,80-19.48-6.25-32.13-55.53-10-230,43.67,1.67,87.33,3.33,131,5Z"/>
          <g class="cls-7">
            <path class="cls-10" d="M53.47,121.3c3.5-26.36,3.71-63.23-17.17-94.68C21.64,4.53,7.9,2.19-4.08-19.2c-22.36-39.93-13.55-101.59,7.73-110.07,19-7.58,60.12,22.4,154.06,171.07-34.75,26.5-69.49,53-104.24,79.5Z"/>
          </g>
        </g>
        <g>
          <path class="cls-1" d="M423.19-6.85c8.87,22.6,24.18,49.99,51,59,32.92,11.06,53.25-15.61,88-8,52.7,11.54,69.32,86.76,83,83,7.63-2.1,12.56-28.28-6-150-72,5.33-144,10.67-216,16Z"/>
          <g class="cls-2">
            <path class="cls-16" d="M394.26,20.6c20.06,13.68,48.13,27.68,75.37,20.03,33.43-9.4,35.21-42.89,68.21-56.18,50.04-20.14,106.15,32.65,115.33,21.83,5.12-6.03-5.55-30.44-89.44-120.56-56.49,44.96-112.98,89.92-169.47,134.88Z"/>
          </g>
        </g>
        <g>
          <path class="cls-13" d="M-1.47,309.09c14.95,1.79,35.63,6.76,53,22,12.56,11.02,12.07,17.48,23,28,21.49,20.68,43.49,15.08,76,26,35.3,11.85,71.86,39.45,69,52-2.8,12.32-45.97,20.78-231,1,3.33-43,6.67-86,10-129Z"/>
          <g class="cls-12">
            <path class="cls-6" d="M-33.86,402.07c13.72-6.2,33.99-12.65,56.74-8.59,16.45,2.93,19.37,8.72,34.17,12.06,29.09,6.58,45.02-9.59,78.49-17.06,36.34-8.11,81.9-3.41,85.95,8.81,3.97,11.99-28.59,41.56-197.17,120.35-19.39-38.52-38.78-77.05-58.17-115.57Z"/>
          </g>
        </g>
        <g>
          <path class="cls-9" d="M626.19,270.23c-22.18,1.47-48.05,7.1-60,26-15.36,24.29,5.11,50.2-11,70-14.37,17.66-36.8,4.57-74,22-25.2,11.81-52.56,35.45-49,47,3.66,11.87,42.3,18.46,205-9-3.67-52-7.33-104-11-156Z"/>
          <g class="cls-8">
            <path class="cls-15" d="M592.44,214.98c-13.94,17.31-27.32,40.16-21.52,61.75,7.46,27.76,40.39,30.25,44.04,55.51,3.26,22.54-21.56,30.17-33.94,69.34-8.39,26.54-9.52,62.68,1.38,67.88,11.21,5.35,42.24-18.61,132.24-156.9-40.74-32.53-81.47-65.05-122.21-97.58Z"/>
          </g>
        </g>
      </g>
      <rect class="cls-4" x=".5" y=".5" width="622.87" height="412.79"/>
    </g>
    <g>
      <g>
        <path class="cls-16" d="M360.89,221.66c-.92-3.5-3.27-9.97-7.46-17.26-3.45-6-6.05-10.54-11.32-14.6-3.66-2.83-8.4-5.27-13.87-8.09-.37-.19-1.15-.45-3.56-1.85-.04-.03-.1-.07-.17-.12-1.06-.84-1.76-2.04-2.03-3.36l-.17-.82v-5.22c0-2.77,1.55-5.21,3.85-6.75,5.19-3.48,8.82-8.6,8.82-14.27,0-9.31-9.37-16.86-20.92-16.86-.06,0-.12,0-.18,0-.06,0-.12,0-.18,0-11.56,0-20.92,7.55-20.92,16.86,0,5.67,3.64,10.8,8.82,14.27,2.3,1.54,3.85,3.98,3.85,6.75v5.22l-.17,.82c-.28,1.32-.98,2.52-2.03,3.36-.07,.06-.13,.1-.17,.12-2.4,1.4-3.19,1.66-3.56,1.85-5.47,2.82-10.21,5.26-13.87,8.09-5.27,4.06-7.87,8.6-11.32,14.6-4.19,7.29-6.54,13.76-7.46,17.26-1.84,6.99-2.29,10.14-2.29,22.13,0,3.42,.65,6.83,1.77,9.52,.77,1.83,2.3,4.27,5.16,4.96,3.25,.77,6.21-2.19,6.83-2.82,1.2-1.21,1.87-2.48,2.97-5.48,2.37-6.48,3.23-11.37,3.23-11.37,.36-2.05,.64-5.13,1.2-11.21,.28-3.06,.68-7.58,1.77-13.19,.43-2.2,.92-4.33,2.5-6.52,2.02-2.79,3.37-3.48,3.97-3.65,.38-.11,1.84-.53,3.29,.21,1.47,.76,2,2.25,2.24,2.92,.38,1.08,.38,1.99,.36,2.5-.07,3.36-.1,5.03-.83,7.56-1.3,4.49-3.48,7.88-4.54,9.6-2.23,3.62-3.99,7.72-7.51,15.9-3.07,7.14-4.88,11.42-6.1,17.58-.15,.75-.71,3.66-1.09,7.56-.36,3.63-.44,6.94-.31,11.73,.19,7.61,.3,11.54,1.09,16.85,1.08,7.18,1.99,11.68,5.27,19.19,1.96,4.47,5.27,10.8,10.85,10.8,7.46,0,10.93-12.33,12.36-18.52,.59-2.54,.76-6.41,1.04-9.44,.34-3.56,.79-9.97,.16-17.99-.24-3.01-.18-5.48-.76-9.9-.52-3.93-.73-7.9-.53-11.87,.08-1.58,.22-3.22,.44-4.82,.21-1.45,1.65-2.82,1.88-2.97,.53-.36,1.05-.57,1.59-.68v.05c.35-.08,.68-.12,1.01-.14,.33,.01,.66,.06,1,.14,1.37,.32,2.19,1.17,2.75,1.92,.34,.49,.64,1.08,.72,1.68,.23,1.59,.37,3.24,.44,4.82,.2,3.96-.01,7.93-.53,11.87-.58,4.43-.52,6.89-.76,9.9-.63,8.02-.18,14.43,.16,17.99,.28,3.03,.46,6.9,1.04,9.44,1.43,6.19,4.9,18.52,12.36,18.52,5.58,0,8.89-6.32,10.85-10.8,3.29-7.51,4.19-12.01,5.27-19.19,.8-5.3,.9-9.24,1.09-16.85,.12-4.79,.04-8.11-.31-11.73-.38-3.9-.94-6.82-1.09-7.56-1.23-6.16-3.03-10.43-6.1-17.58-3.52-8.19-5.28-12.28-7.51-15.9-1.06-1.72-3.24-5.11-4.54-9.6-.73-2.53-.77-4.21-.83-7.56-.01-.51-.02-1.42,.36-2.5,.24-.67,.77-2.17,2.24-2.92,1.44-.73,2.91-.31,3.29-.21,.6,.17,1.95,.86,3.97,3.65,1.58,2.19,2.07,4.32,2.5,6.52,1.1,5.61,1.49,10.13,1.77,13.19,.55,6.08,.84,9.17,1.2,11.21,0,0,.86,4.89,3.23,11.37,1.1,2.99,1.77,4.27,2.97,5.48,.63,.63,3.59,3.59,6.83,2.82,2.87-.69,4.4-3.13,5.16-4.96,1.12-2.69,1.77-6.1,1.77-9.52,0-11.99-.46-15.14-2.29-22.13Z"/>
        <g class="cls-14">
          <path class="cls-6" d="M344.09,209.86c-.73-2.81-2.62-8-5.98-13.85-2.76-4.82-4.86-8.46-9.08-11.72-2.94-2.27-6.74-4.23-11.13-6.49-.3-.15-.93-.36-2.86-1.48-.04-.02-.08-.05-.14-.1-.85-.67-1.41-1.64-1.63-2.7l-.14-.66v-4.19c0-2.23,1.24-4.18,3.09-5.42,4.16-2.79,7.08-6.9,7.08-11.45,0-7.47-7.52-13.53-16.79-13.53-.05,0-.1,0-.15,0-.05,0-.1,0-.15,0-9.27,0-16.79,6.06-16.79,13.53,0,4.55,2.92,8.66,7.08,11.45,1.85,1.24,3.09,3.19,3.09,5.42v4.19l-.14,.66c-.22,1.06-.79,2.03-1.63,2.7-.06,.04-.1,.08-.14,.1-1.93,1.13-2.56,1.33-2.86,1.48-4.39,2.26-8.2,4.22-11.13,6.49-4.23,3.26-6.32,6.9-9.08,11.72-3.36,5.85-5.25,11.04-5.98,13.85-1.47,5.61-1.84,8.14-1.84,17.76,0,2.74,.52,5.48,1.42,7.64,.61,1.47,1.84,3.43,4.14,3.98,2.61,.62,4.98-1.76,5.48-2.26,.96-.97,1.5-1.99,2.38-4.4,1.91-5.2,2.6-9.12,2.6-9.12,.29-1.64,.52-4.12,.96-9,.23-2.46,.54-6.09,1.42-10.59,.35-1.77,.74-3.48,2.01-5.23,1.62-2.24,2.7-2.79,3.18-2.93,.31-.09,1.48-.42,2.64,.17,1.18,.61,1.61,1.81,1.8,2.35,.31,.87,.3,1.6,.29,2.01-.05,2.69-.08,4.04-.67,6.07-1.04,3.6-2.79,6.32-3.64,7.7-1.79,2.91-3.2,6.19-6.03,12.76-2.46,5.73-3.91,9.16-4.9,14.11-.12,.6-.57,2.94-.88,6.07-.29,2.91-.35,5.57-.25,9.42,.15,6.11,.24,9.26,.88,13.52,.87,5.76,1.59,9.38,4.23,15.4,1.57,3.59,4.23,8.66,8.7,8.66,5.99,0,8.77-9.89,9.92-14.86,.47-2.04,.61-5.15,.84-7.57,.27-2.86,.64-8,.13-14.44-.19-2.41-.14-4.4-.61-7.95-.41-3.16-.58-6.34-.43-9.52,.06-1.27,.17-2.59,.35-3.86,.17-1.16,1.32-2.26,1.51-2.38,.42-.29,.84-.46,1.27-.55v.04c.28-.06,.55-.1,.81-.11,.26,.01,.53,.05,.81,.11,1.1,.25,1.75,.94,2.21,1.54,.27,.4,.51,.87,.58,1.35,.18,1.28,.29,2.6,.35,3.86,.16,3.18-.01,6.37-.43,9.52-.47,3.55-.42,5.53-.61,7.95-.51,6.44-.14,11.58,.13,14.44,.23,2.43,.37,5.54,.84,7.57,1.15,4.96,3.93,14.86,9.92,14.86,4.48,0,7.13-5.07,8.7-8.66,2.64-6.03,3.36-9.64,4.23-15.4,.64-4.26,.72-7.41,.88-13.52,.1-3.85,.03-6.5-.25-9.42-.31-3.13-.76-5.47-.88-6.07-.98-4.95-2.43-8.37-4.9-14.11-2.82-6.57-4.24-9.85-6.03-12.76-.85-1.38-2.6-4.1-3.64-7.7-.58-2.03-.61-3.37-.67-6.07-.01-.41-.02-1.14,.29-2.01,.19-.54,.62-1.74,1.8-2.35,1.16-.59,2.33-.25,2.64-.17,.48,.14,1.56,.69,3.18,2.93,1.27,1.76,1.66,3.47,2.01,5.23,.88,4.5,1.2,8.13,1.42,10.59,.44,4.88,.67,7.36,.96,9,0,0,.69,3.92,2.6,9.12,.88,2.4,1.42,3.43,2.38,4.4,.5,.5,2.88,2.88,5.48,2.26,2.3-.55,3.53-2.51,4.14-3.98,.9-2.16,1.42-4.9,1.42-7.64,0-9.62-.37-12.15-1.84-17.76Z"/>
          <path class="cls-10" d="M354.68,234.79c-.55-2.1-1.96-5.98-4.47-10.35-2.07-3.6-3.63-6.32-6.79-8.76-2.2-1.7-5.04-3.16-8.32-4.85-.22-.11-.69-.27-2.13-1.11-.03-.02-.06-.04-.1-.07-.63-.5-1.05-1.23-1.22-2.02l-.1-.49v-3.13c0-1.66,.93-3.12,2.31-4.05,3.11-2.09,5.29-5.16,5.29-8.56,0-5.58-5.62-10.11-12.55-10.11-.04,0-.07,0-.11,0-.04,0-.07,0-.11,0-6.93,0-12.55,4.53-12.55,10.11,0,3.4,2.18,6.47,5.29,8.56,1.38,.93,2.31,2.38,2.31,4.05v3.13l-.1,.49c-.16,.79-.59,1.51-1.22,2.02-.04,.03-.08,.06-.1,.07-1.44,.84-1.91,1-2.13,1.11-3.28,1.69-6.13,3.15-8.32,4.85-3.16,2.44-4.72,5.16-6.79,8.76-2.51,4.37-3.92,8.25-4.47,10.35-1.1,4.19-1.38,6.08-1.38,13.28,0,2.05,.39,4.1,1.06,5.71,.46,1.1,1.38,2.56,3.1,2.97,1.95,.46,3.72-1.31,4.1-1.69,.72-.72,1.12-1.49,1.78-3.29,1.42-3.89,1.94-6.82,1.94-6.82,.21-1.23,.39-3.08,.72-6.73,.17-1.84,.41-4.55,1.06-7.91,.26-1.32,.55-2.6,1.5-3.91,1.21-1.67,2.02-2.09,2.38-2.19,.23-.06,1.11-.32,1.97,.12,.88,.45,1.2,1.35,1.35,1.75,.23,.65,.23,1.2,.22,1.5-.04,2.01-.06,3.02-.5,4.53-.78,2.69-2.09,4.72-2.72,5.76-1.34,2.17-2.39,4.63-4.5,9.54-1.84,4.28-2.92,6.85-3.66,10.54-.09,.45-.43,2.2-.66,4.53-.21,2.18-.26,4.16-.19,7.04,.12,4.56,.18,6.92,.66,10.1,.65,4.31,1.19,7.01,3.16,11.51,1.17,2.68,3.16,6.47,6.51,6.47,4.47,0,6.56-7.4,7.41-11.11,.35-1.52,.46-3.85,.62-5.66,.2-2.14,.48-5.98,.1-10.79-.14-1.8-.11-3.29-.46-5.94-.31-2.36-.44-4.74-.32-7.12,.05-.95,.13-1.93,.26-2.89,.12-.87,.99-1.69,1.13-1.78,.32-.21,.63-.34,.95-.41v.03c.21-.05,.41-.07,.61-.08,.2,0,.4,.03,.6,.08,.82,.19,1.31,.7,1.65,1.15,.2,.3,.38,.65,.43,1.01,.14,.95,.22,1.94,.26,2.89,.12,2.38,0,4.76-.32,7.12-.35,2.65-.31,4.14-.46,5.94-.38,4.81-.11,8.65,.1,10.79,.17,1.82,.27,4.14,.62,5.66,.86,3.71,2.94,11.11,7.41,11.11,3.35,0,5.33-3.79,6.51-6.47,1.97-4.5,2.51-7.2,3.16-11.51,.48-3.18,.54-5.54,.66-10.1,.07-2.87,.03-4.86-.19-7.04-.23-2.34-.57-4.09-.66-4.53-.73-3.7-1.82-6.26-3.66-10.54-2.11-4.91-3.17-7.36-4.5-9.54-.64-1.03-1.94-3.06-2.72-5.76-.44-1.52-.46-2.52-.5-4.53,0-.3-.01-.85,.22-1.5,.14-.4,.46-1.3,1.35-1.75,.86-.44,1.74-.19,1.97-.12,.36,.1,1.17,.52,2.38,2.19,.95,1.31,1.24,2.59,1.5,3.91,.66,3.36,.9,6.08,1.06,7.91,.33,3.65,.5,5.5,.72,6.73,0,0,.52,2.93,1.94,6.82,.66,1.8,1.06,2.56,1.78,3.29,.38,.38,2.15,2.15,4.1,1.69,1.72-.41,2.64-1.87,3.1-2.97,.67-1.61,1.06-3.66,1.06-5.71,0-7.19-.28-9.08-1.38-13.28Z"/>
          <path class="cls-1" d="M353.64,282.88c-.37-1.42-1.33-4.04-3.02-6.99-1.4-2.43-2.45-4.27-4.58-5.92-1.48-1.15-3.4-2.14-5.62-3.28-.15-.08-.47-.18-1.44-.75-.02-.01-.04-.03-.07-.05-.43-.34-.71-.83-.82-1.36l-.07-.33v-2.11c0-1.12,.63-2.11,1.56-2.73,2.1-1.41,3.57-3.48,3.57-5.78,0-3.77-3.8-6.83-8.48-6.83-.02,0-.05,0-.07,0-.02,0-.05,0-.07,0-4.68,0-8.48,3.06-8.48,6.83,0,2.3,1.47,4.37,3.57,5.78,.93,.63,1.56,1.61,1.56,2.73v2.11l-.07,.33c-.11,.53-.4,1.02-.82,1.36-.03,.02-.05,.04-.07,.05-.97,.57-1.29,.67-1.44,.75-2.22,1.14-4.14,2.13-5.62,3.28-2.13,1.65-3.19,3.48-4.58,5.92-1.7,2.95-2.65,5.57-3.02,6.99-.74,2.83-.93,4.11-.93,8.97,0,1.39,.26,2.77,.72,3.86,.31,.74,.93,1.73,2.09,2.01,1.32,.31,2.51-.89,2.77-1.14,.48-.49,.76-1.01,1.2-2.22,.96-2.63,1.31-4.61,1.31-4.61,.14-.83,.26-2.08,.48-4.54,.11-1.24,.27-3.07,.72-5.34,.17-.89,.37-1.75,1.01-2.64,.82-1.13,1.37-1.41,1.61-1.48,.15-.04,.75-.21,1.33,.08,.6,.31,.81,.91,.91,1.18,.15,.44,.15,.81,.15,1.01-.03,1.36-.04,2.04-.34,3.06-.53,1.82-1.41,3.19-1.84,3.89-.9,1.47-1.62,3.13-3.04,6.44-1.24,2.89-1.98,4.62-2.47,7.12-.06,.3-.29,1.48-.44,3.06-.14,1.47-.18,2.81-.13,4.75,.08,3.08,.12,4.68,.44,6.82,.44,2.91,.8,4.73,2.14,7.77,.79,1.81,2.13,4.37,4.39,4.37,3.02,0,4.43-4.99,5.01-7.5,.24-1.03,.31-2.6,.42-3.82,.14-1.44,.32-4.04,.06-7.29-.1-1.22-.07-2.22-.31-4.01-.21-1.59-.29-3.2-.21-4.81,.03-.64,.09-1.31,.18-1.95,.08-.59,.67-1.14,.76-1.2,.21-.14,.43-.23,.64-.28v.02c.14-.03,.28-.05,.41-.05,.13,0,.27,.02,.41,.05,.55,.13,.89,.48,1.11,.78,.14,.2,.26,.44,.29,.68,.09,.64,.15,1.31,.18,1.95,.08,1.6,0,3.21-.21,4.81-.24,1.79-.21,2.79-.31,4.01-.26,3.25-.07,5.84,.06,7.29,.11,1.23,.18,2.8,.42,3.82,.58,2.51,1.99,7.5,5.01,7.5,2.26,0,3.6-2.56,4.39-4.37,1.33-3.04,1.7-4.87,2.14-7.77,.32-2.15,.37-3.74,.44-6.82,.05-1.94,.02-3.28-.13-4.75-.15-1.58-.38-2.76-.44-3.06-.5-2.5-1.23-4.23-2.47-7.12-1.43-3.32-2.14-4.97-3.04-6.44-.43-.7-1.31-2.07-1.84-3.89-.29-1.02-.31-1.7-.34-3.06,0-.21,0-.58,.15-1.01,.1-.27,.31-.88,.91-1.18,.58-.3,1.18-.13,1.33-.08,.24,.07,.79,.35,1.61,1.48,.64,.89,.84,1.75,1.01,2.64,.44,2.27,.6,4.11,.72,5.34,.22,2.46,.34,3.71,.48,4.54,0,0,.35,1.98,1.31,4.61,.44,1.21,.72,1.73,1.2,2.22,.25,.25,1.45,1.45,2.77,1.14,1.16-.28,1.78-1.27,2.09-2.01,.45-1.09,.72-2.47,.72-3.86,0-4.86-.19-6.13-.93-8.97Z"/>
        </g>
      </g>
      <g>
        <g>
          <path class="cls-13" d="M267.09,119.95c2.24,.85,4.13,1.43,5.57,1.84,.97,.27,1.82,.48,2.81,.19,.99-.29,1.59-.94,2.27-1.69,.65-.71,1.58-1.93,2.27-3.76,.18-.39,.41-.94,.63-1.61,.3-.97,.45-1.47,.3-1.86-.13-.33-.45-.66-2.16-1.13-1.38-.38-2.36-.65-3.82-.66-.56,0-1.85,.02-3.75,.55-1.51,.42-4,1.31-6.77,3.35,.55-3.39,.21-6.01-.11-7.54-.4-1.93-.97-3.09-1.23-3.58-.68-1.3-1.37-2.05-2.34-3.1-1.2-1.3-1.64-1.44-1.99-1.4-.43,.04-.8,.4-1.52,1.11-.51,.5-.89,.96-1.15,1.3-1.31,1.44-1.96,2.83-2.31,3.73-.35,.95-.66,1.78-.47,2.8,.19,1.01,.77,1.67,1.45,2.41,1.02,1.1,2.41,2.53,4.19,4.12-2.27-.74-4.19-1.24-5.65-1.57-.98-.22-1.84-.4-2.81-.06-.98,.34-1.55,1.02-2.19,1.8-.61,.74-1.49,2-2.09,3.85-.17,.4-.37,.95-.55,1.64-.26,.99-.38,1.48-.21,1.87,.14,.32,.48,.64,2.21,1.02,1.39,.32,2.38,.54,3.85,.48,.57-.02,1.85-.11,3.72-.73,1.43-.46,3.74-1.42,6.29-3.41-.61,3.18-.4,5.67-.16,7.15,.31,1.94,.82,3.13,1.05,3.64,.62,1.33,1.27,2.11,2.19,3.2,1.14,1.36,1.57,1.51,1.92,1.49,.43-.03,.81-.36,1.57-1.04,.53-.48,.93-.92,1.21-1.24,1.37-1.38,2.1-2.74,2.47-3.62,.4-.93,.74-1.74,.6-2.77-.15-1.02-.69-1.7-1.34-2.47-.97-1.14-2.27-2.63-3.97-4.31Z"/>
          <path class="cls-13" d="M346.18,189.32c2.24,.85,4.13,1.43,5.57,1.84,.97,.27,1.82,.48,2.81,.19,.99-.29,1.59-.94,2.27-1.69,.65-.71,1.58-1.93,2.27-3.76,.18-.39,.41-.94,.63-1.61,.3-.97,.45-1.47,.3-1.86-.13-.33-.45-.66-2.16-1.13-1.38-.38-2.36-.65-3.82-.66-.56,0-1.85,.02-3.75,.55-1.51,.42-4,1.31-6.77,3.35,.55-3.39,.21-6.01-.11-7.54-.4-1.93-.97-3.09-1.23-3.58-.68-1.3-1.37-2.05-2.34-3.1-1.2-1.3-1.64-1.44-1.99-1.4-.43,.04-.8,.4-1.52,1.11-.51,.5-.89,.96-1.15,1.3-1.31,1.44-1.96,2.83-2.31,3.73-.35,.95-.66,1.78-.47,2.8,.19,1.01,.77,1.67,1.45,2.41,1.02,1.1,2.41,2.53,4.19,4.12-2.27-.74-4.19-1.24-5.65-1.57-.98-.22-1.84-.4-2.81-.06-.98,.34-1.55,1.02-2.19,1.8-.61,.74-1.49,2-2.09,3.85-.17,.4-.37,.95-.55,1.64-.26,.99-.38,1.48-.21,1.87,.14,.32,.48,.64,2.21,1.02,1.39,.32,2.38,.54,3.85,.48,.57-.02,1.85-.11,3.72-.73,1.43-.46,3.74-1.42,6.29-3.41-.61,3.18-.4,5.67-.16,7.15,.31,1.94,.82,3.13,1.05,3.64,.62,1.33,1.27,2.11,2.19,3.2,1.14,1.36,1.57,1.51,1.92,1.49,.43-.03,.81-.36,1.57-1.04,.53-.48,.93-.92,1.21-1.24,1.37-1.38,2.1-2.74,2.47-3.62,.4-.93,.74-1.74,.6-2.77-.15-1.02-.69-1.7-1.34-2.47-.97-1.14-2.27-2.63-3.97-4.31Z"/>
          <path class="cls-17" d="M342.22,239.9c2.24,.85,4.13,1.43,5.57,1.84,.97,.27,1.82,.48,2.81,.19,.99-.29,1.59-.94,2.27-1.69,.65-.71,1.58-1.93,2.27-3.76,.18-.39,.41-.94,.63-1.61,.3-.97,.45-1.47,.3-1.86-.13-.33-.45-.66-2.16-1.13-1.38-.38-2.36-.65-3.82-.66-.56,0-1.85,.02-3.75,.55-1.51,.42-4,1.31-6.77,3.35,.55-3.39,.21-6.01-.11-7.54-.4-1.93-.97-3.09-1.23-3.58-.68-1.3-1.37-2.05-2.34-3.1-1.2-1.3-1.64-1.44-1.99-1.4-.43,.04-.8,.4-1.52,1.11-.51,.5-.89,.96-1.15,1.3-1.31,1.44-1.96,2.83-2.31,3.73-.35,.95-.66,1.78-.47,2.8,.19,1.01,.77,1.67,1.45,2.41,1.02,1.1,2.41,2.53,4.19,4.12-2.27-.74-4.19-1.24-5.65-1.57-.98-.22-1.84-.4-2.81-.06-.98,.34-1.55,1.02-2.19,1.8-.61,.74-1.49,2-2.09,3.85-.17,.4-.37,.95-.55,1.64-.26,.99-.38,1.48-.21,1.87,.14,.32,.48,.64,2.21,1.02,1.39,.32,2.38,.54,3.85,.48,.57-.02,1.85-.11,3.72-.73,1.43-.46,3.74-1.42,6.29-3.41-.61,3.18-.4,5.67-.16,7.15,.31,1.94,.82,3.13,1.05,3.64,.62,1.33,1.27,2.11,2.19,3.2,1.14,1.36,1.57,1.51,1.92,1.49,.43-.03,.81-.36,1.57-1.04,.53-.48,.93-.92,1.21-1.24,1.37-1.38,2.1-2.74,2.47-3.62,.4-.93,.74-1.74,.6-2.77-.15-1.02-.69-1.7-1.34-2.47-.97-1.14-2.27-2.63-3.97-4.31Z"/>
          <path class="cls-9" d="M273.34,184.41c2.24,.85,4.13,1.43,5.57,1.84,.97,.27,1.82,.48,2.81,.19,.99-.29,1.59-.94,2.27-1.69,.65-.71,1.58-1.93,2.27-3.76,.18-.39,.41-.94,.63-1.61,.3-.97,.45-1.47,.3-1.86-.13-.33-.45-.66-2.16-1.13-1.38-.38-2.36-.65-3.82-.66-.56,0-1.85,.02-3.75,.55-1.51,.42-4,1.31-6.77,3.35,.55-3.39,.21-6.01-.11-7.54-.4-1.93-.97-3.09-1.23-3.58-.68-1.3-1.37-2.05-2.34-3.1-1.2-1.3-1.64-1.44-1.99-1.4-.43,.04-.8,.4-1.52,1.11-.51,.5-.89,.96-1.15,1.3-1.31,1.44-1.96,2.83-2.31,3.73-.35,.95-.66,1.78-.47,2.8,.19,1.01,.77,1.67,1.45,2.41,1.02,1.1,2.41,2.53,4.19,4.12-2.27-.74-4.19-1.24-5.65-1.57-.98-.22-1.84-.4-2.81-.06-.98,.34-1.55,1.02-2.19,1.8-.61,.74-1.49,2-2.09,3.85-.17,.4-.37,.95-.55,1.64-.26,.99-.38,1.48-.21,1.87,.14,.32,.48,.64,2.21,1.02,1.39,.32,2.38,.54,3.85,.48,.57-.02,1.85-.11,3.72-.73,1.43-.46,3.74-1.42,6.29-3.41-.61,3.18-.4,5.67-.16,7.15,.31,1.94,.82,3.13,1.05,3.64,.62,1.33,1.27,2.11,2.19,3.2,1.14,1.36,1.57,1.51,1.92,1.49,.43-.03,.81-.36,1.57-1.04,.53-.48,.93-.92,1.21-1.24,1.37-1.38,2.1-2.74,2.47-3.62,.4-.93,.74-1.74,.6-2.77-.15-1.02-.69-1.7-1.34-2.47-.97-1.14-2.27-2.63-3.97-4.31Z"/>
          <path class="cls-9" d="M388.18,166.48c2.24,.85,4.13,1.43,5.57,1.84,.97,.27,1.82,.48,2.81,.19,.99-.29,1.59-.94,2.27-1.69,.65-.71,1.58-1.93,2.27-3.76,.18-.39,.41-.94,.63-1.61,.3-.97,.45-1.47,.3-1.86-.13-.33-.45-.66-2.16-1.13-1.38-.38-2.36-.65-3.82-.66-.56,0-1.85,.02-3.75,.55-1.51,.42-4,1.31-6.77,3.35,.55-3.39,.21-6.01-.11-7.54-.4-1.93-.97-3.09-1.23-3.58-.68-1.3-1.37-2.05-2.34-3.1-1.2-1.3-1.64-1.44-1.99-1.4-.43,.04-.8,.4-1.52,1.11-.51,.5-.89,.96-1.15,1.3-1.31,1.44-1.96,2.83-2.31,3.73-.35,.95-.66,1.78-.47,2.8,.19,1.01,.77,1.67,1.45,2.41,1.02,1.1,2.41,2.53,4.19,4.12-2.27-.74-4.19-1.24-5.65-1.57-.98-.22-1.84-.4-2.81-.06-.98,.34-1.55,1.02-2.19,1.8-.61,.74-1.49,2-2.09,3.85-.17,.4-.37,.95-.55,1.64-.26,.99-.38,1.48-.21,1.87,.14,.32,.48,.64,2.21,1.02,1.39,.32,2.38,.54,3.85,.48,.57-.02,1.85-.11,3.72-.73,1.43-.46,3.74-1.42,6.29-3.41-.61,3.18-.4,5.67-.16,7.15,.31,1.94,.82,3.13,1.05,3.64,.62,1.33,1.27,2.11,2.19,3.2,1.14,1.36,1.57,1.51,1.92,1.49,.43-.03,.81-.36,1.57-1.04,.53-.48,.93-.92,1.21-1.24,1.37-1.38,2.1-2.74,2.47-3.62,.4-.93,.74-1.74,.6-2.77-.15-1.02-.69-1.7-1.34-2.47-.97-1.14-2.27-2.63-3.97-4.31Z"/>
          <path class="cls-17" d="M311.22,107.2c1.84-1.52,3.29-2.88,4.35-3.93,.71-.71,1.32-1.34,1.55-2.34,.23-1-.03-1.85-.35-2.81-.3-.92-.9-2.33-2.15-3.83-.24-.35-.61-.82-1.09-1.34-.69-.74-1.05-1.12-1.47-1.18-.35-.05-.79,.07-2.04,1.32-1.01,1.01-1.73,1.73-2.46,3-.28,.49-.9,1.62-1.38,3.53-.39,1.52-.84,4.12-.43,7.54-2.68-2.16-5.12-3.15-6.61-3.64-1.88-.6-3.16-.69-3.72-.7-1.47-.05-2.46,.18-3.85,.5-1.72,.4-2.06,.71-2.2,1.04-.18,.39-.05,.89,.22,1.87,.18,.69,.39,1.25,.56,1.64,.61,1.85,1.49,3.1,2.1,3.85,.65,.77,1.22,1.45,2.2,1.79,.97,.34,1.83,.16,2.81-.07,1.46-.34,3.39-.85,5.66-1.6-1.77,1.61-3.15,3.03-4.16,4.13-.68,.74-1.25,1.41-1.44,2.41-.19,1.02,.12,1.85,.48,2.79,.34,.9,1,2.28,2.32,3.72,.26,.34,.64,.8,1.15,1.29,.73,.71,1.1,1.07,1.53,1.11,.35,.03,.79-.1,1.98-1.41,.96-1.06,1.65-1.8,2.32-3.11,.26-.5,.82-1.66,1.21-3.59,.3-1.47,.62-3.95,.14-7.16,2.46,2.1,4.73,3.15,6.14,3.67,1.84,.69,3.12,.84,3.69,.88,1.46,.12,2.46-.06,3.87-.32,1.74-.32,2.09-.62,2.25-.93,.19-.39,.09-.89-.13-1.88-.15-.69-.34-1.26-.48-1.66-.52-1.88-1.34-3.17-1.92-3.94-.61-.81-1.15-1.51-2.11-1.89-.96-.38-1.82-.24-2.81-.06-1.47,.27-3.41,.68-5.71,1.32Z"/>
          <path class="cls-10" d="M359.35,138.7c1.84-1.52,3.29-2.88,4.35-3.93,.71-.71,1.32-1.34,1.55-2.34,.23-1-.03-1.85-.35-2.81-.3-.92-.9-2.33-2.15-3.83-.24-.35-.61-.82-1.09-1.34-.69-.74-1.05-1.12-1.47-1.18-.35-.05-.79,.07-2.04,1.32-1.01,1.01-1.73,1.73-2.46,3-.28,.49-.9,1.62-1.38,3.53-.39,1.52-.84,4.12-.43,7.54-2.68-2.16-5.12-3.15-6.61-3.64-1.88-.6-3.16-.69-3.72-.7-1.47-.05-2.46,.18-3.85,.5-1.72,.4-2.06,.71-2.2,1.04-.18,.39-.05,.89,.22,1.87,.18,.69,.39,1.25,.56,1.64,.61,1.85,1.49,3.1,2.1,3.85,.65,.77,1.22,1.45,2.2,1.79,.97,.34,1.83,.16,2.81-.07,1.46-.34,3.39-.85,5.66-1.6-1.77,1.61-3.15,3.03-4.16,4.13-.68,.74-1.25,1.41-1.44,2.41-.19,1.02,.12,1.85,.48,2.79,.34,.9,1,2.28,2.32,3.72,.26,.34,.64,.8,1.15,1.29,.73,.71,1.1,1.07,1.53,1.11,.35,.03,.79-.1,1.98-1.41,.96-1.06,1.65-1.8,2.32-3.11,.26-.5,.82-1.66,1.21-3.59,.3-1.47,.62-3.95,.14-7.16,2.46,2.1,4.73,3.15,6.14,3.67,1.84,.69,3.12,.84,3.69,.88,1.46,.12,2.46-.06,3.87-.32,1.74-.32,2.09-.62,2.25-.93,.19-.39,.09-.89-.13-1.88-.15-.69-.34-1.26-.48-1.66-.52-1.88-1.34-3.17-1.92-3.94-.61-.81-1.15-1.51-2.11-1.89-.96-.38-1.82-.24-2.81-.06-1.47,.27-3.41,.68-5.71,1.32Z"/>
          <path class="cls-15" d="M295.05,143.32c1.84-1.52,3.29-2.88,4.35-3.93,.71-.71,1.32-1.34,1.55-2.34,.23-1-.03-1.85-.35-2.81-.3-.92-.9-2.33-2.15-3.83-.24-.35-.61-.82-1.09-1.34-.69-.74-1.05-1.12-1.47-1.18-.35-.05-.79,.07-2.04,1.32-1.01,1.01-1.73,1.73-2.46,3-.28,.49-.9,1.62-1.38,3.53-.39,1.52-.84,4.12-.43,7.54-2.68-2.16-5.12-3.15-6.61-3.64-1.88-.6-3.16-.69-3.72-.7-1.47-.05-2.46,.18-3.85,.5-1.72,.4-2.06,.71-2.2,1.04-.18,.39-.05,.89,.22,1.87,.18,.69,.39,1.25,.56,1.64,.61,1.85,1.49,3.1,2.1,3.85,.65,.77,1.22,1.45,2.2,1.79,.97,.34,1.83,.16,2.81-.07,1.46-.34,3.39-.85,5.66-1.6-1.77,1.61-3.15,3.03-4.16,4.13-.68,.74-1.25,1.41-1.44,2.41-.19,1.02,.12,1.85,.48,2.79,.34,.9,1,2.28,2.32,3.72,.26,.34,.64,.8,1.15,1.29,.73,.71,1.1,1.07,1.53,1.11,.35,.03,.79-.1,1.98-1.41,.96-1.06,1.65-1.8,2.32-3.11,.26-.5,.82-1.66,1.21-3.59,.3-1.47,.62-3.95,.14-7.16,2.46,2.1,4.73,3.15,6.14,3.67,1.84,.69,3.12,.84,3.69,.88,1.46,.12,2.46-.06,3.87-.32,1.74-.32,2.09-.62,2.25-.93,.19-.39,.09-.89-.13-1.88-.15-.69-.34-1.26-.48-1.66-.52-1.88-1.34-3.17-1.92-3.94-.61-.81-1.15-1.51-2.11-1.89-.96-.38-1.82-.24-2.81-.06-1.47,.27-3.41,.68-5.71,1.32Z"/>
          <path class="cls-15" d="M383.71,209.66c1.84-1.52,3.29-2.88,4.35-3.93,.71-.71,1.32-1.34,1.55-2.34,.23-1-.03-1.85-.35-2.81-.3-.92-.9-2.33-2.15-3.83-.24-.35-.61-.82-1.09-1.34-.69-.74-1.05-1.12-1.47-1.18-.35-.05-.79,.07-2.04,1.32-1.01,1.01-1.73,1.73-2.46,3-.28,.49-.9,1.62-1.38,3.53-.39,1.52-.84,4.12-.43,7.54-2.68-2.16-5.12-3.15-6.61-3.64-1.88-.6-3.16-.69-3.72-.7-1.47-.05-2.46,.18-3.85,.5-1.72,.4-2.06,.71-2.2,1.04-.18,.39-.05,.89,.22,1.87,.18,.69,.39,1.25,.56,1.64,.61,1.85,1.49,3.1,2.1,3.85,.65,.77,1.22,1.45,2.2,1.79,.97,.34,1.83,.16,2.81-.07,1.46-.34,3.39-.85,5.66-1.6-1.77,1.61-3.15,3.03-4.16,4.13-.68,.74-1.25,1.41-1.44,2.41-.19,1.02,.12,1.85,.48,2.79,.34,.9,1,2.28,2.32,3.72,.26,.34,.64,.8,1.15,1.29,.73,.71,1.1,1.07,1.53,1.11,.35,.03,.79-.1,1.98-1.41,.96-1.06,1.65-1.8,2.32-3.11,.26-.5,.82-1.66,1.21-3.59,.3-1.47,.62-3.95,.14-7.16,2.46,2.1,4.73,3.15,6.14,3.67,1.84,.69,3.12,.84,3.69,.88,1.46,.12,2.46-.06,3.87-.32,1.74-.32,2.09-.62,2.25-.93,.19-.39,.09-.89-.13-1.88-.15-.69-.34-1.26-.48-1.66-.52-1.88-1.34-3.17-1.92-3.94-.61-.81-1.15-1.51-2.11-1.89-.96-.38-1.82-.24-2.81-.06-1.47,.27-3.41,.68-5.71,1.32Z"/>
          <path class="cls-15" d="M266.47,238.44c1.84-1.52,3.29-2.88,4.35-3.93,.71-.71,1.32-1.34,1.55-2.34,.23-1-.03-1.85-.35-2.81-.3-.92-.9-2.33-2.15-3.83-.24-.35-.61-.82-1.09-1.34-.69-.74-1.05-1.12-1.47-1.18-.35-.05-.79,.07-2.04,1.32-1.01,1.01-1.73,1.73-2.46,3-.28,.49-.9,1.62-1.38,3.53-.39,1.52-.84,4.12-.43,7.54-2.68-2.16-5.12-3.15-6.61-3.64-1.88-.6-3.16-.69-3.72-.7-1.47-.05-2.46,.18-3.85,.5-1.72,.4-2.06,.71-2.2,1.04-.18,.39-.05,.89,.22,1.87,.18,.69,.39,1.25,.56,1.64,.61,1.85,1.49,3.1,2.1,3.85,.65,.77,1.22,1.45,2.2,1.79,.97,.34,1.83,.16,2.81-.07,1.46-.34,3.39-.85,5.66-1.6-1.77,1.61-3.15,3.03-4.16,4.13-.68,.74-1.25,1.41-1.44,2.41-.19,1.02,.12,1.85,.48,2.79,.34,.9,1,2.28,2.32,3.72,.26,.34,.64,.8,1.15,1.29,.73,.71,1.1,1.07,1.53,1.11,.35,.03,.79-.1,1.98-1.41,.96-1.06,1.65-1.8,2.32-3.11,.26-.5,.82-1.66,1.21-3.59,.3-1.47,.62-3.95,.14-7.16,2.46,2.1,4.73,3.15,6.14,3.67,1.84,.69,3.12,.84,3.69,.88,1.46,.12,2.46-.06,3.87-.32,1.74-.32,2.09-.62,2.25-.93,.19-.39,.09-.89-.13-1.88-.15-.69-.34-1.26-.48-1.66-.52-1.88-1.34-3.17-1.92-3.94-.61-.81-1.15-1.51-2.11-1.89-.96-.38-1.82-.24-2.81-.06-1.47,.27-3.41,.68-5.71,1.32Z"/>
          <path class="cls-1" d="M243.73,155.7c1.84-1.52,3.29-2.88,4.35-3.93,.71-.71,1.32-1.34,1.55-2.34,.23-1-.03-1.85-.35-2.81-.3-.92-.9-2.33-2.15-3.83-.24-.35-.61-.82-1.09-1.34-.69-.74-1.05-1.12-1.47-1.18-.35-.05-.79,.07-2.04,1.32-1.01,1.01-1.73,1.73-2.46,3-.28,.49-.9,1.62-1.38,3.53-.39,1.52-.84,4.12-.43,7.54-2.68-2.16-5.12-3.15-6.61-3.64-1.88-.6-3.16-.69-3.72-.7-1.47-.05-2.46,.18-3.85,.5-1.72,.4-2.06,.71-2.2,1.04-.18,.39-.05,.89,.22,1.87,.18,.69,.39,1.25,.56,1.64,.61,1.85,1.49,3.1,2.1,3.85,.65,.77,1.22,1.45,2.2,1.79,.97,.34,1.83,.16,2.81-.07,1.46-.34,3.39-.85,5.66-1.6-1.77,1.61-3.15,3.03-4.16,4.13-.68,.74-1.25,1.41-1.44,2.41-.19,1.02,.12,1.85,.48,2.79,.34,.9,1,2.28,2.32,3.72,.26,.34,.64,.8,1.15,1.29,.73,.71,1.1,1.07,1.53,1.11,.35,.03,.79-.1,1.98-1.41,.96-1.06,1.65-1.8,2.32-3.11,.26-.5,.82-1.66,1.21-3.59,.3-1.47,.62-3.95,.14-7.16,2.46,2.1,4.73,3.15,6.14,3.67,1.84,.69,3.12,.84,3.69,.88,1.46,.12,2.46-.06,3.87-.32,1.74-.32,2.09-.62,2.25-.93,.19-.39,.09-.89-.13-1.88-.15-.69-.34-1.26-.48-1.66-.52-1.88-1.34-3.17-1.92-3.94-.61-.81-1.15-1.51-2.11-1.89-.96-.38-1.82-.24-2.81-.06-1.47,.27-3.41,.68-5.71,1.32Z"/>
          <path class="cls-15" d="M350.26,106.41c2.23,.85,4.12,1.44,5.56,1.85,.97,.27,1.82,.49,2.8,.2,.99-.29,1.6-.94,2.27-1.69,.65-.71,1.58-1.93,2.27-3.75,.19-.38,.42-.94,.63-1.61,.31-.97,.45-1.47,.3-1.86-.13-.33-.45-.66-2.15-1.13-1.38-.38-2.36-.65-3.82-.67-.56,0-1.85,.02-3.75,.54-1.51,.41-4,1.3-6.77,3.34,.56-3.39,.22-6.01-.09-7.54-.4-1.93-.96-3.09-1.22-3.59-.68-1.31-1.37-2.06-2.33-3.11-1.19-1.3-1.63-1.44-1.98-1.4-.43,.04-.8,.39-1.52,1.11-.51,.5-.89,.95-1.16,1.3-1.31,1.44-1.97,2.82-2.31,3.72-.36,.94-.66,1.78-.47,2.79,.19,1.01,.76,1.67,1.44,2.41,1.02,1.1,2.41,2.53,4.18,4.13-2.27-.75-4.19-1.25-5.64-1.59-.98-.23-1.84-.4-2.81-.07-.98,.34-1.55,1.02-2.19,1.8-.61,.74-1.49,2-2.1,3.85-.17,.4-.38,.95-.56,1.64-.26,.99-.39,1.48-.21,1.87,.14,.32,.48,.64,2.21,1.03,1.39,.32,2.38,.55,3.85,.49,.57-.02,1.85-.11,3.72-.72,1.43-.46,3.75-1.41,6.3-3.4-.62,3.18-.42,5.67-.18,7.15,.3,1.94,.81,3.13,1.05,3.64,.62,1.33,1.27,2.11,2.18,3.21,1.14,1.36,1.57,1.52,1.92,1.5,.43-.02,.81-.36,1.57-1.04,.53-.47,.93-.91,1.21-1.24,1.38-1.38,2.1-2.73,2.48-3.61,.41-.93,.75-1.74,.61-2.77-.14-1.02-.68-1.7-1.33-2.47-.96-1.15-2.27-2.63-3.96-4.32Z"/>
        </g>
        <path class="cls-9" d="M286.5,303.11c1.84-1.52,3.29-2.88,4.35-3.93,.71-.71,1.32-1.34,1.55-2.34,.23-1-.03-1.85-.35-2.81-.3-.92-.9-2.33-2.15-3.83-.24-.35-.61-.82-1.09-1.34-.69-.74-1.05-1.12-1.47-1.18-.35-.05-.79,.07-2.04,1.32-1.01,1.01-1.73,1.73-2.46,3-.28,.49-.9,1.62-1.38,3.53-.39,1.52-.84,4.12-.43,7.54-2.68-2.16-5.12-3.15-6.61-3.64-1.88-.6-3.16-.69-3.72-.7-1.47-.05-2.46,.18-3.85,.5-1.72,.4-2.06,.71-2.2,1.04-.18,.39-.05,.89,.22,1.87,.18,.69,.39,1.25,.56,1.64,.61,1.85,1.49,3.1,2.1,3.85,.65,.77,1.22,1.45,2.2,1.79,.97,.34,1.83,.16,2.81-.07,1.46-.34,3.39-.85,5.66-1.6-1.77,1.61-3.15,3.03-4.16,4.13-.68,.74-1.25,1.41-1.44,2.41-.19,1.02,.12,1.85,.48,2.79,.34,.9,1,2.28,2.32,3.72,.26,.34,.64,.8,1.15,1.29,.73,.71,1.1,1.07,1.53,1.11,.35,.03,.79-.1,1.98-1.41,.96-1.06,1.65-1.8,2.32-3.11,.26-.5,.82-1.66,1.21-3.59,.3-1.47,.62-3.95,.14-7.16,2.46,2.1,4.73,3.15,6.14,3.67,1.84,.69,3.12,.84,3.69,.88,1.46,.12,2.46-.06,3.87-.32,1.74-.32,2.09-.62,2.25-.93,.19-.39,.09-.89-.13-1.88-.15-.69-.34-1.26-.48-1.66-.52-1.88-1.34-3.17-1.92-3.94-.61-.81-1.15-1.51-2.11-1.89-.96-.38-1.82-.24-2.81-.06-1.47,.27-3.41,.68-5.71,1.32Z"/>
      </g>
    </g>
  </g>
</svg>