<?xml version="1.0" encoding="UTF-8"?>
<svg id="Layer_2" data-name="Layer 2" xmlns="http://www.w3.org/2000/svg" viewBox="0 0 146.68 150.48">
  <defs>
    <style>
      .cls-1 {
        fill: #fd0;
      }

      .cls-2 {
        fill: #f7922f;
      }

      .cls-3 {
        fill: #83378a;
      }
    </style>
  </defs>
  <g id="Layer_1-2" data-name="Layer 1">
    <path class="cls-3" d="M102.74,35.01c4.18-3.46,7.45-6.53,9.86-8.92,1.62-1.61,2.99-3.04,3.52-5.32,.53-2.27-.07-4.2-.8-6.37-.68-2.08-2.04-5.28-4.87-8.67-.55-.79-1.38-1.87-2.48-3.04-1.57-1.69-2.39-2.53-3.34-2.68-.79-.11-1.8,.15-4.63,2.99-2.29,2.29-3.92,3.92-5.58,6.8-.64,1.1-2.03,3.68-3.13,8-.87,3.44-1.9,9.34-.97,17.09-6.07-4.89-11.61-7.15-14.99-8.24-4.25-1.36-7.16-1.55-8.44-1.6-3.33-.12-5.58,.4-8.74,1.13-3.91,.9-4.67,1.62-4.98,2.35-.4,.88-.11,2.01,.49,4.24,.41,1.57,.89,2.83,1.27,3.73,1.37,4.2,3.37,7.04,4.76,8.72,1.47,1.76,2.77,3.3,4.99,4.05,2.2,.76,4.14,.36,6.36-.16,3.31-.78,7.68-1.93,12.82-3.63-4,3.64-7.14,6.87-9.43,9.37-1.54,1.68-2.84,3.19-3.26,5.47-.42,2.31,.27,4.2,1.1,6.33,.77,2.03,2.28,5.18,5.26,8.43,.59,.77,1.46,1.8,2.61,2.93,1.66,1.61,2.5,2.42,3.46,2.51,.8,.08,1.79-.23,4.49-3.2,2.18-2.39,3.74-4.09,5.26-7.04,.59-1.14,1.85-3.77,2.74-8.15,.69-3.33,1.4-8.96,.32-16.23,5.58,4.77,10.73,7.15,13.92,8.33,4.18,1.57,7.08,1.9,8.36,2,3.31,.27,5.58-.15,8.76-.72,3.95-.73,4.75-1.4,5.1-2.11,.43-.87,.2-2.01-.29-4.27-.35-1.57-.76-2.86-1.09-3.77-1.19-4.25-3.05-7.19-4.36-8.93-1.38-1.84-2.6-3.42-4.78-4.29-2.17-.85-4.12-.55-6.36-.14-3.34,.62-7.72,1.54-12.94,3Z"/>
    <path class="cls-2" d="M28.49,91.86c3.36,.19,6.15,.18,8.26,.11,1.42-.05,2.65-.12,3.85-.93,1.2-.81,1.74-1.94,2.33-3.23,.57-1.23,1.3-3.26,1.45-6.01,.08-.6,.16-1.44,.16-2.43,0-1.43-.01-2.16-.39-2.63-.31-.38-.88-.69-3.37-.6-2.01,.07-3.44,.13-5.42,.74-.76,.23-2.48,.81-4.81,2.32-1.85,1.2-4.82,3.45-7.67,7.37-.69-4.79-2.26-8.16-3.34-10.09-1.36-2.42-2.6-3.74-3.16-4.3-1.47-1.46-2.71-2.18-4.45-3.18-2.16-1.24-2.81-1.24-3.26-1.04-.55,.23-.9,.87-1.57,2.14-.47,.89-.79,1.66-1,2.23-1.15,2.49-1.44,4.63-1.52,5.98-.08,1.42-.13,2.67,.56,3.95,.68,1.28,1.73,1.91,2.96,2.62,1.84,1.05,4.31,2.37,7.37,3.77-3.36-.04-6.15,.11-8.26,.28-1.41,.11-2.64,.25-3.8,1.11-1.17,.87-1.65,2.03-2.18,3.35-.51,1.25-1.15,3.32-1.17,6.06-.06,.6-.1,1.44-.05,2.44,.07,1.44,.12,2.16,.51,2.61,.33,.37,.91,.65,3.4,.44,2.01-.17,3.43-.28,5.37-.98,.75-.27,2.44-.93,4.69-2.55,1.72-1.23,4.43-3.49,7.01-7.25,.52,4.53,1.86,7.79,2.81,9.68,1.24,2.48,2.42,3.86,2.96,4.44,1.39,1.52,2.6,2.3,4.29,3.38,2.1,1.34,2.75,1.37,3.21,1.19,.57-.22,.94-.83,1.67-2.07,.51-.86,.86-1.62,1.1-2.18,1.26-2.44,1.66-4.56,1.79-5.91,.15-1.42,.26-2.66-.36-3.98-.63-1.31-1.64-1.99-2.84-2.75-1.78-1.13-4.16-2.57-7.16-4.11Z"/>
    <path class="cls-1" d="M109.72,124.93c-2.31,3.33-4.04,6.2-5.29,8.4-.84,1.48-1.54,2.79-1.46,4.53,.08,1.74,.9,3,1.86,4.42,.91,1.36,2.53,3.38,5.25,5.25,.56,.46,1.37,1.06,2.39,1.69,1.47,.9,2.23,1.34,2.94,1.25,.59-.08,1.26-.47,2.73-3.08,1.19-2.11,2.03-3.61,2.64-6.02,.24-.92,.72-3.05,.63-6.38-.07-2.65-.52-7.1-2.75-12.48,5.35,2.3,9.79,2.8,12.44,2.9,3.33,.12,5.46-.33,6.39-.55,2.42-.59,3.93-1.41,6.05-2.57,2.63-1.44,3.03-2.1,3.11-2.69,.11-.71-.33-1.47-1.21-2.95-.61-1.04-1.21-1.85-1.66-2.42-1.83-2.74-3.84-4.38-5.18-5.31-1.41-.97-2.66-1.81-4.4-1.91-1.74-.1-3.05,.58-4.54,1.4-2.22,1.23-5.13,2.93-8.49,5.2,2.14-3.43,3.75-6.38,4.89-8.64,.77-1.52,1.4-2.86,1.24-4.59-.16-1.74-1.04-2.97-2.07-4.33-.97-1.31-2.68-3.26-5.48-5-.58-.43-1.41-1-2.47-1.58-1.52-.83-2.28-1.23-2.99-1.11-.59,.1-1.24,.53-2.58,3.21-1.09,2.16-1.86,3.7-2.37,6.12-.19,.94-.57,3.08-.33,6.41,.18,2.54,.8,6.73,3.04,11.73-4.97-2.31-9.15-2.98-11.69-3.18-3.32-.28-5.48,.07-6.41,.25-2.44,.47-3.99,1.23-6.16,2.28-2.69,1.32-3.13,1.97-3.24,2.55-.13,.72,.26,1.48,1.07,3.01,.57,1.06,1.12,1.9,1.54,2.49,1.71,2.82,3.64,4.56,4.94,5.54,1.36,1.04,2.56,1.93,4.31,2.12,1.73,.18,3.07-.44,4.6-1.19,2.27-1.12,5.24-2.66,8.7-4.77Z"/>
  </g>
</svg>