<?xml version="1.0" encoding="UTF-8"?>
<svg id="Layer_2" data-name="Layer 2" xmlns="http://www.w3.org/2000/svg" viewBox="0 0 144.33 125.03">
  <defs>
    <style>
      .cls-1 {
        fill: #e31921;
      }

      .cls-2 {
        fill: #8bc53b;
      }

      .cls-3 {
        fill: #00baf1;
      }
    </style>
  </defs>
  <g id="Layer_1-2" data-name="Layer 1">
    <path class="cls-3" d="M105.35,24.01c3.36,.19,6.15,.18,8.26,.11,1.42-.05,2.65-.12,3.85-.93,1.2-.81,1.74-1.94,2.33-3.23,.57-1.23,1.3-3.26,1.45-6.01,.08-.6,.16-1.44,.16-2.43,0-1.43-.01-2.16-.39-2.63-.31-.38-.88-.69-3.37-.6-2.01,.07-3.44,.13-5.42,.74-.76,.23-2.48,.81-4.81,2.32-1.85,1.2-4.82,3.45-7.67,7.37-.69-4.79-2.26-8.16-3.34-10.09-1.36-2.42-2.6-3.74-3.16-4.3-1.47-1.46-2.71-2.18-4.45-3.18-2.16-1.24-2.81-1.24-3.26-1.04-.55,.23-.9,.87-1.57,2.14-.47,.89-.79,1.66-1,2.23-1.15,2.49-1.44,4.63-1.52,5.98-.08,1.42-.13,2.67,.56,3.95,.68,1.28,1.73,1.91,2.96,2.62,1.84,1.05,4.31,2.37,7.37,3.77-3.36-.04-6.15,.11-8.26,.28-1.41,.11-2.64,.25-3.8,1.11-1.17,.87-1.65,2.03-2.18,3.35-.51,1.25-1.15,3.32-1.17,6.06-.06,.6-.1,1.44-.05,2.44,.07,1.44,.12,2.16,.51,2.61,.33,.37,.91,.65,3.4,.44,2.01-.17,3.43-.28,5.37-.98,.75-.27,2.44-.93,4.69-2.55,1.72-1.23,4.43-3.49,7.01-7.25,.52,4.53,1.86,7.79,2.81,9.68,1.24,2.48,2.42,3.86,2.96,4.44,1.39,1.52,2.6,2.3,4.29,3.38,2.1,1.34,2.75,1.37,3.21,1.19,.57-.22,.94-.83,1.67-2.07,.51-.86,.86-1.62,1.1-2.18,1.26-2.44,1.66-4.56,1.79-5.91,.15-1.42,.26-2.66-.36-3.98-.63-1.31-1.64-1.99-2.84-2.75-1.78-1.13-4.16-2.57-7.16-4.11Z"/>
    <path class="cls-2" d="M45.28,69.54c2.63-4.26,4.58-7.92,5.97-10.73,.94-1.89,1.71-3.55,1.5-5.69-.21-2.15-1.31-3.65-2.59-5.33-1.21-1.61-3.35-4.01-6.83-6.14-.72-.53-1.76-1.22-3.07-1.93-1.88-1.01-2.84-1.51-3.72-1.35-.72,.14-1.53,.67-3.17,3.99-1.33,2.68-2.26,4.6-2.86,7.61-.23,1.16-.68,3.82-.36,7.93,.26,3.27,1.11,8.74,4.22,15.24-6.76-2.48-12.28-2.8-15.56-2.76-4.13,.07-6.73,.77-7.85,1.11-2.95,.89-4.76,2.01-7.31,3.58-3.15,1.95-3.6,2.8-3.66,3.53-.09,.89,.5,1.79,1.69,3.56,.83,1.25,1.61,2.21,2.22,2.88,2.45,3.26,5.04,5.15,6.75,6.21,1.8,1.1,3.4,2.06,5.57,2.07,2.15,.01,3.73-.92,5.52-2.03,2.67-1.66,6.15-3.97,10.14-6.99-2.42,4.38-4.2,8.13-5.46,11-.85,1.93-1.54,3.63-1.23,5.75,.31,2.14,1.49,3.59,2.84,5.21,1.28,1.55,3.53,3.85,7.11,5.81,.75,.5,1.81,1.14,3.15,1.79,1.93,.92,2.9,1.37,3.77,1.17,.72-.17,1.5-.74,2.98-4.14,1.2-2.74,2.05-4.69,2.51-7.72,.18-1.17,.5-3.85-.02-7.94-.39-3.12-1.43-8.26-4.54-14.29,6.3,2.52,11.5,3.07,14.65,3.15,4.12,.13,6.76-.45,7.9-.73,2.98-.75,4.84-1.79,7.45-3.23,3.24-1.81,3.73-2.64,3.83-3.36,.12-.89-.42-1.81-1.52-3.64-.77-1.27-1.52-2.28-2.07-2.98-2.3-3.37-4.8-5.39-6.47-6.52-1.75-1.2-3.29-2.22-5.46-2.33-2.15-.1-3.77,.75-5.61,1.77-2.74,1.53-6.3,3.64-10.42,6.47Z"/>
    <path class="cls-1" d="M126.85,97.52c3.55-1.54,6.4-3,8.52-4.16,1.43-.78,2.65-1.49,3.46-2.95,.81-1.45,.78-2.89,.71-4.52-.06-1.56-.35-4.02-1.62-6.91-.22-.65-.58-1.55-1.09-2.58-.75-1.47-1.13-2.21-1.76-2.5-.52-.23-1.26-.25-3.77,1.13-2.02,1.11-3.46,1.91-5.17,3.56-.66,.63-2.12,2.12-3.73,4.87-1.28,2.19-3.15,6.03-4.05,11.52-3.19-4.56-6.54-7.2-8.64-8.62-2.65-1.78-4.6-2.48-5.47-2.77-2.26-.74-3.91-.83-6.21-.96-2.86-.16-3.52,.18-3.88,.62-.45,.53-.47,1.36-.5,3-.03,1.15,.05,2.11,.13,2.81,.11,3.15,.92,5.49,1.54,6.92,.66,1.49,1.25,2.81,2.61,3.77,1.36,.96,2.77,1.06,4.39,1.15,2.42,.12,5.65,.2,9.51,.05-3.47,1.7-6.25,3.29-8.32,4.56-1.39,.85-2.58,1.62-3.32,3.1-.75,1.5-.65,2.93-.5,4.56,.13,1.55,.53,4,1.93,6.82,.25,.65,.64,1.53,1.21,2.53,.82,1.43,1.23,2.15,1.87,2.41,.53,.21,1.27,.19,3.71-1.31,1.97-1.21,3.37-2.06,5-3.78,.63-.66,2.01-2.22,3.49-5.04,1.13-2.15,2.74-5.87,3.44-11.06,2.88,4.37,5.93,7.02,7.89,8.47,2.55,1.9,4.48,2.7,5.33,3.03,2.22,.84,3.86,1.01,6.15,1.24,2.85,.28,3.53-.02,3.91-.44,.47-.51,.53-1.34,.64-2.98,.07-1.15,.04-2.11,0-2.8,.03-3.15-.66-5.53-1.22-6.98-.58-1.53-1.11-2.86-2.43-3.89-1.32-1.02-2.72-1.19-4.33-1.35-2.41-.24-5.6-.48-9.46-.5Z"/>
  </g>
</svg>