<?xml version="1.0" encoding="UTF-8"?>
<svg id="Layer_2" data-name="Layer 2" xmlns="http://www.w3.org/2000/svg" xmlns:xlink="http://www.w3.org/1999/xlink" viewBox="0 0 969.47 661.4">
  <defs>
    <style>
      .cls-1 {
        fill: #fff;
      }

      .cls-2 {
        fill: url(#linear-gradient);
      }
    </style>
    <linearGradient id="linear-gradient" x1="32.19" y1="53.1" x2="71.25" y2="30.55" gradientUnits="userSpaceOnUse">
      <stop offset="0" stop-color="#fff"/>
      <stop offset="1" stop-color="#7741f9"/>
    </linearGradient>
  </defs>
  <g id="Layer_1-2" data-name="Layer 1">
    <g>
      <path class="cls-2" d="M53.03,.72c-.3,6.14-.91,12.24-1.52,18.36-.64,6.43-1.09,12.87-1.73,19.3-1.09,10.86-2.79,21.82-2.67,32.76,.04,4.02,.38,8.17,1.84,11.95,.35,.89,1.8,.5,1.45-.4-1.28-3.3-1.66-6.85-1.76-10.36-.14-4.69,.21-9.4,.63-14.07,.53-5.92,1.2-11.82,1.8-17.73,.68-6.6,1.16-13.21,1.79-19.8s1.35-13.32,1.68-20.01c.05-.96-1.45-.96-1.5,0h0Z"/>
      <g>
        <g>
          <g>
            <path class="cls-1" d="M50.33,83.78c19.19-2.25,38.27-5.49,57.12-9.74,9.4-2.12,18.74-4.49,28.02-7.1,9.1-2.56,18.22-5.25,27.13-8.42,6.97-2.48,15.09-6.64,15.87-14.88,.12-1.22-1.34-1.75-2.26-1.3-15.69,7.72-30.95,16.28-45.7,25.66-14.73,9.37-28.95,19.54-42.59,30.44s-26.5,22.19-38.47,34.61-22.61,25.66-31.08,40.46c-8.56,14.95-14.81,31.42-17.23,48.52-.6,4.28-.99,8.59-1.1,12.91-.05,2.14-.04,4.27,.03,6.41,.07,1.99,.19,4.06,.93,5.93,3.16,7.95,12.8,4.74,18.71,2.57,17.28-6.35,34.26-13.53,50.85-21.51,8.27-3.98,16.45-8.15,24.52-12.53,7.42-4.02,14.82-8.14,21.75-12.98,6.71-4.69,13.02-10.08,18.04-16.58,4.55-5.9,8.42-14.16,5.42-21.61-2.75-6.83-10.22-10.57-17.18-11.55s-14.01,.51-19.94,4.09c-2.87,1.73-5.45,3.96-7.53,6.59-.79,.99-.33,2.52,1.06,2.56,26.48,.7,50.26-13.08,70.82-28.41,5.96-4.44,11.77-9.09,17.55-13.78l-2.12-2.12c-10.9,9.25-15.79,23.39-17.39,37.21-.93,8.06-.84,16.19-.67,24.29,.13,5.99-.08,13.94,5.27,17.98,4.1,3.1,12.13,2.49,13.31-3.41,.38-1.89-2.51-2.69-2.89-.8-.83,4.13-6.91,3.68-9.27,1.24-1.91-1.97-2.69-4.81-3.04-7.46-.43-3.21-.36-6.49-.42-9.72-.26-13.72-.05-27.96,5.43-40.79,2.69-6.28,6.56-11.99,11.79-16.42,1.48-1.26-.64-3.32-2.12-2.12-19.53,15.86-40.42,32.46-65.24,38.87-6.87,1.77-13.92,2.63-21.01,2.44l1.06,2.56c8.07-10.2,24.86-13.93,35.57-5.53,2.82,2.21,4.77,5.36,4.98,8.99s-1.13,7.53-2.97,10.81c-3.8,6.76-9.84,12.36-15.92,17.07-6.28,4.87-13.14,8.94-20.06,12.81-7.61,4.25-15.33,8.31-23.13,12.19-15.76,7.85-31.87,14.97-48.29,21.32-4.04,1.56-8.09,3.13-12.18,4.55-2.86,.99-6.61,2.13-9.53,.78-3.53-1.63-3.18-6.49-3.23-9.73-.06-4.12,.13-8.24,.54-12.34,1.67-16.49,7.12-32.5,14.83-47.11s17.61-27.68,28.68-39.74c11.13-12.13,23.37-23.22,36.02-33.73,12.95-10.75,26.47-20.81,40.48-30.14,13.93-9.27,28.34-17.82,43.17-25.58,3.64-1.91,7.3-3.77,10.99-5.58l-2.26-1.3c-.63,6.65-8.19,10.04-13.67,11.99-8.54,3.04-17.27,5.62-25.98,8.1-17.85,5.07-35.95,9.23-54.22,12.47-10.38,1.84-20.8,3.37-31.27,4.6-1.89,.22-1.92,3.23,0,3h0Z"/>
            <path class="cls-1" d="M230.25,141.9c-17.64,4.88-33.82,14.9-46.02,28.55-2.61,2.92-5.85,6.13-6.69,10.09-.33,1.54-.37,3.29,.51,4.67,1.04,1.63,3.1,2.13,4.89,1.62,2.15-.6,4.18-2.11,6.04-3.29s3.78-2.49,5.6-3.84c3.69-2.73,7.19-5.71,10.46-8.94,7.34-7.25,13.49-15.69,18.13-24.91l-2.59-1.51c-7.5,15.82-12.35,32.78-14.34,50.17-.57,4.94-.89,9.91-.99,14.88-.03,1.39,1.62,1.85,2.56,1.06,11.53-9.68,22.11-20.48,31.56-32.21,9.49-11.77,17.86-24.43,24.93-37.79,3.97-7.5,7.51-15.23,10.65-23.11l-2.89-.8c-10.74,27.24-20.58,54.82-29.85,82.58-9.28,27.78-17.99,55.74-26.51,83.77-4.76,15.68-9.46,31.38-14.16,47.08-.56,1.88,2.22,2.57,2.89,.8,10.21-27.12,24.19-52.59,38.69-77.61,15.12-26.09,30.62-51.95,46.42-77.63,4.28-6.96,8.5-13.97,12.98-20.8,4.19-6.39,8.77-12.53,14.34-17.79h-2.12c5.15,6.32,5.11,15.42,2.28,22.72-3.17,8.19-9.59,14.7-15.97,20.51-13.07,11.9-28.02,21.72-44.08,29.1-9.09,4.18-18.56,7.53-28.24,10.06-1.87,.49-1.08,3.38,.8,2.89,17.96-4.69,35.17-12.27,50.77-22.34,7.79-5.03,15.19-10.68,22.09-16.88,6.79-6.1,13.45-12.87,17.06-21.41,3.67-8.67,3.54-19.25-2.59-26.78-.52-.64-1.58-.51-2.12,0-10.16,9.57-17.16,21.96-24.42,33.73-8.05,13.03-16.01,26.11-23.9,39.24-15.32,25.53-30.79,51.09-44.58,77.49-7.58,14.51-14.53,29.36-20.3,44.69l2.89,.8c8.4-28.06,16.8-56.12,25.56-84.07,8.76-27.94,17.88-55.77,27.72-83.35,5.5-15.43,11.23-30.78,17.24-46.02,.71-1.8-2.19-2.57-2.89-.8-5.49,13.81-12.34,27.07-20.38,39.56s-17.27,24.22-27.55,34.96c-5.83,6.09-11.99,11.85-18.44,17.27l2.56,1.06c.33-17.09,3.49-34.07,9.32-50.14,1.65-4.55,3.52-9.02,5.6-13.4,.82-1.73-1.72-3.25-2.59-1.51-7.53,14.96-19.1,27.78-33.28,36.71-.85,.53-1.7,1.05-2.56,1.55-.92,.54-2.1,1.44-3.21,1.41-1.29-.04-1.31-1.41-1.16-2.41,.24-1.6,1.03-3.04,2.01-4.31,1.26-1.63,2.59-3.21,3.97-4.75,5.55-6.21,11.93-11.67,18.92-16.19,7.96-5.14,16.64-9.06,25.77-11.59,1.86-.51,1.07-3.41-.8-2.89h0Z"/>
            <path class="cls-1" d="M304.42,190.51c15.21-8.08,29.47-17.92,42.42-29.27,11.43-10.02,22.6-22.51,26.29-37.65,.87-3.58,1.29-7.3,1.12-10.99-.16-3.48-.64-7.27-2.52-10.28-1.73-2.77-4.82-4.56-8.11-3.51s-5.42,4.21-7.12,7.02c-8.91,14.7-17.39,29.74-23.84,45.69-6.31,15.6-10.55,32.24-10.41,49.15,.02,2.07,.1,4.13,.25,6.19,.11,1.57,1.9,1.93,2.8,.76,10.71-13.97,23.19-26.59,37.01-37.5,3.93-3.1,7.99-6.05,12.13-8.87l-2.26-1.3c-1.3,14.17-9.99,26.25-12.88,40.02-.8,3.81-1.13,7.71-.75,11.59,.1,1.03,1.23,2.01,2.26,1.3,15.44-10.71,28.23-25.13,36.97-41.77,2.48-4.71,4.62-9.6,6.44-14.61,.62-1.7-1.82-2.45-2.74-1.16-5.56,7.82-9.37,16.7-12.37,25.77-1.42,4.3-3.1,8.8-3.63,13.31-.44,3.75,.58,7.96,4.42,9.43,2.99,1.14,7.27,.22,7.93-3.37,.34-1.89-2.55-2.7-2.89-.8-.39,2.16-3.37,1.93-4.81,.95-2.8-1.9-1.7-6.6-.99-9.26,2.06-7.74,4.64-15.47,8.07-22.71,1.95-4.13,4.22-8.09,6.87-11.81l-2.74-1.16c-6.22,17.12-16.63,32.63-30.02,44.96-3.78,3.48-7.79,6.69-12.01,9.62l2.26,1.3c-1.38-14.25,6.96-26.94,11.17-40.01,1.22-3.78,2.1-7.64,2.46-11.6,.1-1.11-1.36-1.9-2.26-1.3-14.9,10.12-28.54,22.07-40.47,35.57-3.39,3.84-6.63,7.81-9.75,11.87l2.8,.76c-1.12-15.97,1.86-31.81,7.14-46.84,5.39-15.35,13.01-29.82,21.19-43.84,1.98-3.39,3.92-6.83,6.05-10.12,1.42-2.2,4-5.57,7.04-4.3,2.85,1.19,3.68,5.2,4.06,7.89,.49,3.46,.41,7.04-.19,10.48-2.51,14.54-12.71,26.75-23.25,36.46-11.9,10.96-25.24,20.44-39.3,28.4-1.76,1-3.54,1.97-5.32,2.92s-.19,3.5,1.51,2.59h0Z"/>
            <path class="cls-1" d="M437.63,157.49c-7.32,3.64-14.45,8.24-19.87,14.44-2.68,3.06-4.88,6.48-6.39,10.26-1.61,4.02-2.56,8.72-1.49,13,2.15,8.59,11.77,12.09,19.77,11.39,4.94-.43,9.72-1.94,14.36-3.62,4.36-1.57,8.63-3.4,12.78-5.46,9.4-4.69,18.14-10.65,25.97-17.65,1.44-1.29-.68-3.4-2.12-2.12-12.77,11.4-28.5,20.49-45.15,24.78-7.38,1.9-17.36,2.01-21.7-5.58-2.07-3.62-1.45-8.05-.26-11.86,1.09-3.48,2.91-6.74,5.17-9.59,5.36-6.76,12.8-11.59,20.45-15.39,1.73-.86,.21-3.45-1.51-2.59h0Z"/>
            <path class="cls-1" d="M410.11,140.36c1.93,0,1.93-3,0-3s-1.93,3,0,3h0Z"/>
          </g>
          <g>
            <path class="cls-1" d="M495.15,198.12c-9.4,18.93-19.08,37.73-29.05,56.37-9.97,18.64-20.21,37.14-30.73,55.47-5.94,10.36-11.98,20.66-18.09,30.92l2.8,.76c-.35-9.38,2.04-18.62,1.68-28-.17-4.45-1.04-8.88-3.1-12.86-1.92-3.7-5.31-7.32-9.88-6.11-2.17,.57-3.97,2.08-5.62,3.53-1.74,1.53-3.44,3.11-5.1,4.73-3.37,3.29-6.57,6.74-9.6,10.34-6.04,7.2-11.39,14.98-15.91,23.22-2.21,4.03-4.42,8.2-6.04,12.51-1.4,3.73-1.75,8.48,2.07,10.9,1.8,1.14,4.02,1.39,6.1,1.54,2.72,.2,5.45,.18,8.16,0,5.27-.34,10.49-1.28,15.63-2.45,10.38-2.37,20.62-5.49,30.61-9.17,9.44-3.48,18.82-7.4,27.64-12.27,15.92-8.8,30.81-22.43,34.46-41.03,.43-2.17,.68-4.37,.78-6.59,.06-1.41-1.63-1.84-2.56-1.06-11.52,9.6-22.22,20.16-31.94,31.58-4.73,5.55-9.45,11.25-13.4,17.39-1.83,2.85-3.44,5.84-4.67,9-.61,1.57-1.11,3.18-1.48,4.83s-.82,3.52-.12,5.12c1.37,3.15,5.43,2.35,8.15,2.07,3.09-.32,6.16-.77,9.21-1.37,6.07-1.19,12.03-2.94,17.79-5.19,11.44-4.48,22.08-10.87,31.42-18.86,10.54-9.01,19.34-20.07,25.55-32.48l-2.74-.36c2.53,8.58,5.05,17.15,7.58,25.73,1.12,3.79,2.63,7.78,1.07,11.66-1.31,3.26-4.12,5.76-7.02,7.6-3.82,2.42-8.06,4.1-11.82,6.62-1.35,.9-.55,3.29,1.16,2.74,19.45-6.28,40.11-13.28,52.99-30.17,3.22-4.22,5.72-8.93,7.32-13.99,.51-1.61-1.94-2.66-2.74-1.16-5.04,9.48-8.99,19.53-11.71,29.92-.98,3.75-2.7,8.81-.4,12.44,2.92,4.62,8.64,1.73,12.41,.07,5.65-2.49,11.17-5.27,16.54-8.31,1.68-.95,.17-3.54-1.51-2.59-4.22,2.38-8.52,4.61-12.91,6.66-2.19,1.02-4.4,2.05-6.65,2.94-1.64,.65-4.04,1.49-5.28-.29-.89-1.28-.76-3.21-.55-4.67,.3-2.14,.93-4.26,1.49-6.35,1.24-4.6,2.72-9.14,4.43-13.58,1.94-5.04,4.21-9.96,6.74-14.73l-2.74-1.16c-5.93,18.77-24.05,29.69-41.42,36.31-5.53,2.11-11.17,3.93-16.8,5.75l1.16,2.74c6.58-4.4,15.09-6.65,19.25-13.95,2.14-3.75,2.03-7.75,.92-11.82-1.24-4.53-2.64-9.01-3.97-13.51-1.54-5.24-3.09-10.48-4.63-15.72-.34-1.17-2.14-1.55-2.74-.36-10.51,21.01-28.46,37.81-49.73,47.63-10.58,4.89-22.06,8.02-33.69,8.97-1.01,.08-3.14,.57-3.47-.76-.15-.61,.08-1.39,.19-2,.18-.97,.42-1.93,.7-2.87,.96-3.27,2.45-6.34,4.19-9.25,3.52-5.89,7.93-11.27,12.32-16.53,10.18-12.21,21.47-23.47,33.68-33.64l-2.56-1.06c-.73,17.6-13.11,31.95-27.26,41.14-7.63,4.95-15.92,8.83-24.31,12.29-9.17,3.79-18.57,7.05-28.12,9.75-9.53,2.7-19.35,5.24-29.3,5.45-2.31,.05-4.71,.06-7-.31-1.78-.28-3.65-.93-4.27-2.79s.04-3.82,.65-5.49c.72-1.98,1.69-3.9,2.61-5.8,7.62-15.69,18.16-29.92,30.98-41.75,2.66-2.45,6.78-7.1,10.48-3.82,2.96,2.62,4.32,7.08,4.95,10.86,1.42,8.49-.61,17.23-1.17,25.71-.14,2.15-.19,4.31-.11,6.46,.05,1.47,2.02,2.06,2.8,.76,10.83-18.16,21.39-36.47,31.67-54.94,10.28-18.47,20.28-37.1,30-55.87,5.49-10.6,10.89-21.26,16.2-31.95,.86-1.72-1.73-3.25-2.59-1.51h0Z"/>
            <path class="cls-1" d="M629.85,306.14c-17.47,7.08-32.26,20.19-41.49,36.63-2.6,4.63-4.74,9.52-6.39,14.56-.31,.94,.51,1.89,1.45,1.9,10.2,.06,19.35-6.35,26.47-13.1,6.9-6.53,12.47-14.51,16.24-23.24,2.15-4.98,3.74-10.15,4.69-15.49,.33-1.87-2.42-2.7-2.89-.8-4.91,19.75-9.83,39.49-14.74,59.24-2.47,9.91-4.93,19.83-7.4,29.74-1.18,4.75-2.3,9.51-3.56,14.24-1.06,3.96-2.42,8.19-5.45,11.11-2.55,2.46-6.69,4.17-10.11,2.54s-4.68-5.44-4.57-8.86c.14-4.42,2.49-8.48,4.72-12.17s4.44-6.95,6.88-10.28c9.66-13.17,21.29-24.72,32.63-36.42s22.68-23.79,31.52-37.64c1.07-1.68,2.11-3.39,3.1-5.12l-2.74-1.16c-4.13,19.13-8.26,38.26-12.38,57.39-.3,1.41,1.42,2.59,2.51,1.46,10.89-11.24,20.71-23.52,29.28-36.62,2.45-3.75,4.79-7.56,7.04-11.44l-2.8-.76c.08,10.56-.76,21.11-2.56,31.52-.23,1.35,.97,2.25,2.2,1.69,5.3-2.38,9.75-6.3,12.87-11.19,1.04-1.63-1.55-3.14-2.59-1.51-2.86,4.48-6.96,7.94-11.79,10.11l2.2,1.69c1.84-10.67,2.75-21.49,2.66-32.32-.01-1.48-2.04-2.05-2.8-.76-7.75,13.39-16.76,26.05-26.91,37.72-2.89,3.32-5.87,6.56-8.93,9.73l2.51,1.46c4.13-19.13,8.26-38.26,12.38-57.39,.35-1.61-1.86-2.69-2.74-1.16-8.54,14.85-20.09,27.57-31.92,39.84-11.82,12.27-24.02,24.25-34.27,37.91-2.51,3.35-4.9,6.8-7.12,10.35-2.38,3.82-4.85,7.9-5.67,12.39-.7,3.86-.12,8,2.3,11.18s6.26,4.47,10.15,3.72c9.18-1.77,12.11-11.52,14.07-19.36,2.55-10.24,5.09-20.47,7.64-30.71,5.11-20.55,10.23-41.11,15.34-61.66,.64-2.58,1.28-5.16,1.93-7.74l-2.89-.8c-3.18,17.84-13.76,34.64-29.1,44.47-4.63,2.97-9.83,5.18-15.41,5.14l1.45,1.9c5.6-17.09,17.22-32.07,32.24-41.95,4.27-2.81,8.81-5.23,13.54-7.15,1.77-.72,.99-3.62-.8-2.89h0Z"/>
            <path class="cls-1" d="M586.7,291.43c1.93,0,1.93-3,0-3s-1.93,3,0,3h0Z"/>
          </g>
          <g>
            <path class="cls-1" d="M98.13,417.14c-10.92,2.03-21.44,6.12-30.89,11.94-4.69,2.89-9.13,6.22-13.22,9.9-2.08,1.87-4.06,3.84-5.95,5.89-1.66,1.81-3.33,3.66-4.53,5.82-1.87,3.37-3.48,8.35-1.12,11.88,3.16,4.75,9.79,2.39,14.2,1.16,10.56-2.95,20.68-7.56,29.87-13.54,10.43-6.79,19.63-15.32,27.18-25.22l-2.74-1.16c-2.82,13.07-5.64,26.14-8.46,39.21-.31,1.45,1.39,2.53,2.51,1.46,13.95-13.36,25.93-28.78,35.4-45.61,2.69-4.79,5.18-9.69,7.46-14.69l-2.8-.76c.04,16.97-.2,33.95-.73,50.91-.15,4.88-.33,9.76-.53,14.65-.05,1.32,1.67,1.96,2.56,1.06,12.08-12.13,22.76-25.66,31.71-40.26,2.53-4.12,4.91-8.33,7.16-12.61l-2.8-.76c.02,6.25,.15,12.5,.41,18.75,.25,6.02,.4,12.13,1.12,18.12,.26,2.12,.73,4.3,2.12,5.99,1.56,1.89,3.93,2.51,6.29,2.04,2.49-.49,4.66-2.07,6.64-3.56,2.1-1.58,4.12-3.28,6-5.11,4.28-4.15,7.94-8.95,10.85-14.15,.94-1.69-1.65-3.2-2.59-1.51-2.32,4.14-5.1,7.99-8.34,11.46s-6.8,6.81-10.88,9.04c-1.8,.98-4.28,1.7-5.76-.2-1.14-1.46-1.33-3.59-1.48-5.36-.44-5.49-.74-11-.97-16.5-.26-6.33-.4-12.66-.42-18.99,0-1.44-2.09-2.1-2.8-.76-7.85,14.93-17.41,28.95-28.5,41.66-3.18,3.64-6.48,7.17-9.89,10.6l2.56,1.06c.69-16.96,1.1-33.93,1.22-50.9,.03-4.88,.04-9.77,.03-14.66,0-1.39-2.15-2.17-2.8-.76-7.95,17.41-18.44,33.64-31.12,47.98-3.59,4.06-7.36,7.97-11.27,11.72l2.51,1.46c2.82-13.07,5.64-26.14,8.46-39.21,.38-1.75-1.73-2.48-2.74-1.16-12.44,16.29-29.83,28.78-49.2,35.48-2.44,.84-4.9,1.6-7.4,2.26-2.32,.62-5.44,1.85-7.82,1.02-3.74-1.31-2.3-6.41-1.05-9.02,2.01-4.19,5.73-7.62,9.06-10.76,3.78-3.56,7.87-6.78,12.23-9.61,9.72-6.33,20.62-10.7,32.02-12.82,1.9-.35,1.09-3.24-.8-2.89h0Z"/>
            <path class="cls-1" d="M291.57,359.7c-4.56,23-11.01,45.61-19.29,67.54-2.34,6.21-4.84,12.36-7.47,18.45l2.8,.76c-.43-9.23-.85-18.46-1.28-27.69-.08-1.79,.09-3.93-.81-5.56-.82-1.49-2.39-2.18-4.03-2.29s-3.37,.41-4.97,.88c-1.69,.5-3.36,1.06-5,1.67-13.03,4.83-24.81,12.93-34.03,23.32-5.22,5.88-9.62,12.46-12.98,19.56-.4,.84-.11,1.96,.9,2.2,18.35,4.44,37.91,2.62,55.24-4.81,4.88-2.09,9.55-4.65,13.95-7.63,1.59-1.08,.09-3.68-1.51-2.59-15.14,10.24-33.51,15.26-51.75,14.34-5.11-.26-10.16-1-15.13-2.2l.9,2.2c5.54-11.7,13.92-22,24.22-29.85,5.14-3.92,10.74-7.25,16.65-9.88,2.92-1.3,5.93-2.4,8.99-3.33,1.43-.43,3.01-1.03,4.53-.88,1.91,.19,1.72,2.11,1.78,3.6,.45,9.65,.89,19.29,1.34,28.94,.06,1.34,2.16,2.23,2.8,.76,9.4-21.71,17.03-44.16,22.71-67.13,1.61-6.49,3.06-13.02,4.36-19.58,.37-1.89-2.52-2.69-2.89-.8h0Z"/>
          </g>
          <g>
            <path class="cls-1" d="M237.44,547.14c14.27-6.3,26.32-17.16,34.14-30.65,.98-1.69-1.53-3.11-2.59-1.51-9.08,13.68-15.28,29.26-18.02,45.45-.65,3.87-1.12,7.77-1.39,11.68-.22,3.17,0,7.28,4.07,7.59,1.52,.12,3.09-.37,4.55-.73,2.4-.59,4.77-1.27,7.12-2.02,4.12-1.32,8.16-2.85,12.16-4.51,16.05-6.67,31.52-14.83,46.25-24.03,7.29-4.55,14.4-9.39,21.31-14.49,3.8-2.8,6.9-6.25,9.86-9.91,7.52-9.31,14.09-19.38,20.6-29.4,2.84-4.37,5.94-8.69,8.39-13.29,1.87-3.5,3.39-7.21,4.43-11.04,.54-1.97,.94-3.97,1.21-6,.25-1.84,.6-3.87,.27-5.71-.45-2.59-2.66-4.57-5.27-4.82-3.44-.33-5.43,2.44-7.38,4.83-5.21,6.36-9.38,13.46-13.3,20.66-5.9,10.86-11.39,21.94-16.35,33.26-5.38,12.26-10.31,24.8-13.81,37.73-1.55,5.71-2.8,11.53-3.39,17.42-.42,4.19-1.79,12.87,4.42,13.19,3.14,.16,6.33-1.78,9.07-3.05,3.8-1.76,7.55-3.64,11.24-5.63,7.21-3.89,14.2-8.19,20.91-12.89,13.02-9.11,25.29-19.61,35.61-31.73,9.75-11.45,17.96-24.55,22.19-39.07,2.06-7.08,3.13-14.47,2.96-21.85-.1-4.24-4.5-12.15-9.84-9.2-1.17,.65-1.91,1.84-2.71,2.87-1.07,1.39-2.12,2.8-3.14,4.23-2.12,2.97-4.14,6.02-6.08,9.11-4,6.39-7.65,13-11.09,19.71-7.01,13.71-13.11,27.87-18.83,42.15-2.68,6.68-5.27,13.4-7.82,20.13s-5.19,15.06-2.66,22.4c4.47,12.99,21.08,14.57,32.48,11.28,11.6-3.36,21.12-11.81,28.46-21.12,8.02-10.17,14.1-21.84,18.5-34,1.99-5.5,3.62-11.14,4.77-16.87,.38-1.91-2.22-2.6-2.89-.8-6.25,16.67-10.13,34.2-11.49,51.95-.16,2.05-.28,4.1-.37,6.15-.08,1.85-.44,3.98,.57,5.66,.84,1.41,2.47,2.26,4.11,1.97,1.78-.31,3.12-1.64,4.31-2.9,5.84-6.19,11.35-12.71,16.56-19.43,5.91-7.61,11.42-15.52,16.52-23.69l-2.74-1.16c-6.54,16.31-8.12,34.35-4.64,51.57,.2,.98,1.41,1.34,2.2,.9,21.55-11.92,27.72-37.55,30.99-60.05l-2.74,.36c10.36,13.91,24.37,24.81,40.38,31.47,4.62,1.92,9.38,3.46,14.25,4.62l-.36-2.74c-14.81,9.83-28.91,20.71-42.18,32.54l2.51,.66c-.47-1.78-.94-3.56-1.4-5.35s-3.38-1.07-2.89,.8l1.4,5.35c.3,1.14,1.69,1.39,2.51,.66,13.08-11.66,26.97-22.37,41.57-32.07,1.02-.68,.96-2.43-.36-2.74-20.97-5.01-39.95-17.41-52.84-34.72-.66-.89-2.53-1.07-2.74,.36-3.16,21.68-8.8,46.73-29.62,58.25l2.2,.9c-3.37-16.71-1.7-34.16,4.64-49.97,.65-1.63-1.88-2.54-2.74-1.16-8.22,13.17-17.51,25.64-27.81,37.25-1.25,1.41-2.51,2.8-3.79,4.18-.87,.94-2.97,3.94-4.41,2.88-1.19-.88-.48-4.3-.41-5.63,.1-2.05,.24-4.1,.41-6.15,.67-8.05,1.88-16.06,3.6-23.96,1.93-8.83,4.51-17.51,7.68-25.97l-2.89-.8c-2.31,11.51-6.45,22.68-11.92,33.05s-12.5,20.44-21.66,28.02c-8.6,7.12-19.79,11.78-31.1,9.78-6.11-1.08-11.98-4.36-13.89-10.63-2.12-6.96,.61-14.48,3.07-20.97,10-26.36,20.51-52.87,35.04-77.12,3.45-5.75,7.14-11.38,11.25-16.69,.53-.69,1.14-1.86,2.09-2.06,.85-.18,1.71,.38,2.31,.91,2.63,2.28,2.75,5.73,2.68,8.94-.33,14.02-5.28,27.49-12.48,39.41-7.51,12.45-17.4,23.3-28.26,32.9-11.46,10.15-24.05,19-37.44,26.41-3.33,1.84-6.72,3.6-10.15,5.26-1.71,.83-3.44,1.64-5.18,2.42-1.4,.63-2.83,1.38-4.36,1.63s-2.49-.19-2.74-1.75c-.18-1.1-.1-2.32-.09-3.43,.03-2.4,.23-4.8,.55-7.18,1.56-11.73,5.37-23.18,9.51-34.22s9.3-22.73,14.7-33.75c5.69-11.61,11.56-23.49,19.27-33.9,1.17-1.58,2.4-3.12,3.7-4.6,.9-1.03,1.77-2.28,3.28-2.24,3.48,.07,2.91,4.11,2.65,6.45-.87,7.71-3.99,14.96-8.21,21.4-5.47,8.34-10.81,16.77-16.51,24.96s-11.51,16.78-19.63,22.72c-12.98,9.5-26.65,18.05-40.88,25.56-14.32,7.57-29.38,14.9-45.24,18.59-1.42,.33-3.2,.87-3.69-.98-.45-1.71,.11-4.08,.27-5.82,.36-3.92,.93-7.82,1.7-11.68,1.48-7.43,3.69-14.72,6.58-21.72s6.4-13.46,10.52-19.67l-2.59-1.51c-7.58,13.09-19.23,23.47-33.06,29.57-1.76,.78-.24,3.36,1.51,2.59h0Z"/>
            <g>
              <path class="cls-1" d="M521.62,590.74c3.15-1.55,6.04-3.62,8.82-5.75,3.89-2.99,7.6-6.21,11.22-9.53,9.13-8.38,17.72-17.36,26.06-26.52,9.43-10.35,18.52-21.02,27.29-31.94,7.99-9.95,15.74-20.12,22.92-30.68,5.05-7.44,10.21-15.17,13.51-23.58,.26-.67,.51-1.35,.73-2.04,.6-1.86-2.23-2.58-2.89-.8-6.23,16.59-12.45,33.17-18.68,49.76-6.23,16.59-12.45,33.17-18.68,49.76-3.51,9.34-7.02,18.69-10.52,28.03-.41,1.1,.82,2.13,1.85,1.85,12.34-3.47,23.15-10.57,33.06-18.52,4.87-3.92,9.64-8.01,14.21-12.27,4.33-4.04,8.45-8.39,11.74-13.33,3.6-5.41,5.98-11.58,6.06-18.14,.02-1.21-1.27-1.78-2.26-1.3-5.84,2.85-10.71,7.47-13.9,13.13-.69,1.22,.44,2.42,1.69,2.2,11.9-2.02,23.64-4.86,35.15-8.5l-1.85-1.85c-3.09,13.11-6.18,26.22-9.27,39.32-.17,.72,.22,1.72,1.05,1.85,2.84,.44,5.64-.09,8.01-1.75,1.57-1.1,.07-3.7-1.51-2.59-1.68,1.17-3.65,1.76-5.7,1.44l1.05,1.85c3.09-13.11,6.18-26.22,9.27-39.32,.25-1.07-.71-2.2-1.85-1.85-11.51,3.64-23.25,6.48-35.15,8.5l1.69,2.2c2.96-5.25,7.41-9.41,12.82-12.05l-2.26-1.3c-.15,11.43-7.91,20.74-15.77,28.26-4.28,4.1-8.8,7.97-13.38,11.74s-9.65,7.61-14.88,10.85c-5.9,3.65-12.17,6.64-18.85,8.52l1.85,1.85c6.23-16.59,12.45-33.17,18.68-49.76,6.23-16.59,12.45-33.17,18.68-49.76,3.51-9.34,7.02-18.69,10.52-28.03l-2.89-.8c-1.04,3.26-2.52,6.17-4.25,9.33-2.3,4.21-4.85,8.29-7.49,12.29-6.79,10.3-14.21,20.19-21.87,29.87-8.57,10.83-17.47,21.39-26.68,31.68-8.46,9.44-17.17,18.69-26.38,27.41-6.36,6.03-12.97,12.26-20.58,16.65-.63,.36-1.26,.7-1.91,1.02-1.73,.85-.21,3.44,1.51,2.59h0Z"/>
              <path class="cls-1" d="M729.43,526.33c-18.96,3.09-36.69,13.36-48.78,28.29-2.48,3.06-6.83,7.88-3.53,11.84,2.33,2.79,6.81,2.42,9.95,1.59,2.15-.57,4.15-1.61,6.16-2.52,2.61-1.19,5.22-2.4,7.79-3.67,4.98-2.48,9.86-5.22,14.34-8.54,8.74-6.47,16.17-15.35,18.54-26.19,.29-1.34-1.48-2.7-2.51-1.46-6.65,8.02-10.98,17.78-12.38,28.11-.34,2.54-.52,5.09-.5,7.65,.02,2.26,.4,4.91,2.95,5.62,2.3,.64,4.62-.78,6.57-1.83,2.05-1.1,4.06-2.27,6.02-3.5,15.9-9.99,29.06-24.26,37.92-40.8,4.98-9.3,8.61-19.32,10.63-29.68l-2.89-.8c-4.03,23.67-14.3,45.78-18.16,69.49-1.06,6.53-1.63,13.13-1.43,19.74,.03,.86,.96,1.84,1.9,1.45,15.08-6.34,29.22-14.71,42.01-24.91,3.62-2.89,7.13-5.93,10.51-9.1l-2.36-1.82c-6.67,11.74-10.63,24.85-11.62,38.31-.09,1.18,1.33,1.81,2.26,1.3,9.56-5.3,17.49-13.34,22.63-22.99,.91-1.7-1.68-3.22-2.59-1.51-4.92,9.23-12.41,16.85-21.55,21.92l2.26,1.3c.95-12.92,4.81-25.53,11.21-36.8,.85-1.5-1.11-2.98-2.36-1.82-11.65,10.91-24.78,20.18-38.96,27.51-4,2.07-8.08,3.99-12.23,5.73l1.9,1.45c-.7-23.85,8.56-46.3,14.94-68.86,1.82-6.45,3.43-12.96,4.55-19.57,.32-1.88-2.52-2.71-2.89-.8-3.33,17.08-11.07,33.2-22.16,46.61-5.55,6.72-11.92,12.8-18.95,17.95-3.49,2.56-7.15,4.9-10.94,6.99-.93,.52-1.87,1.03-2.83,1.5-.68,.34-2.09,1.09-2.83,.53-.69-.52-.5-2.08-.5-2.82,0-1.25,.04-2.49,.12-3.74,.73-10.81,4.96-21.37,11.88-29.7l-2.51-1.46c-4.29,19.57-23.66,29.54-40.32,37.08-2.97,1.34-6.61,3.02-9.94,1.95-4.37-1.4,.52-6.76,2.02-8.61,5.57-6.87,12.32-12.73,19.87-17.32,8.45-5.13,17.83-8.61,27.59-10.2,1.9-.31,1.09-3.2-.8-2.89h0Z"/>
              <path class="cls-1" d="M823.52,522.84c1.93,0,1.93-3,0-3s-1.93,3,0,3h0Z"/>
              <path class="cls-1" d="M595.31,493.74c29.64-8.8,59.7-16.18,90.05-22.09,8.58-1.67,17.18-3.22,25.81-4.66,1.9-.32,1.09-3.21-.8-2.89-30.5,5.08-60.75,11.62-90.62,19.62-8.44,2.26-16.86,4.64-25.24,7.13-1.85,.55-1.06,3.44,.8,2.89h0Z"/>
              <path class="cls-1" d="M755.54,513.25c24.32-7.23,48.82-13.86,73.48-19.87,7-1.71,14.01-3.36,21.03-4.97,1.88-.43,1.08-3.32-.8-2.89-24.73,5.66-49.33,11.94-73.75,18.83-6.93,1.96-13.85,3.96-20.76,6.01-1.85,.55-1.06,3.45,.8,2.89h0Z"/>
            </g>
            <path class="cls-1" d="M277.13,500.26c1.93,0,1.93-3,0-3s-1.93,3,0,3h0Z"/>
          </g>
        </g>
        <path class="cls-1" d="M858.03,536.68c-6.39,6.46-11.65,14.02-15.45,22.28-1.91,4.16-3.48,8.47-4.64,12.89-.55,2.1-1.07,4.24-1.37,6.39-.24,1.75-.04,3.58,1.41,4.76,1.88,1.53,4.14,1,6.25,.39,1.88-.55,3.73-1.21,5.54-1.97,3.63-1.52,7.09-3.4,10.32-5.65,6.52-4.54,12.1-10.36,16.37-17.06,4.82-7.56,7.85-16.17,8.69-25.1,.11-1.13-1.35-1.87-2.26-1.3-6.71,4.28-11.74,10.76-14.22,18.32-.35,1.06,.78,2.21,1.85,1.85,16.6-5.65,31.33-15.35,45.27-25.79,3.99-2.99,7.94-6.05,11.88-9.1l-2.51-1.46c-2.64,8.91-5.32,17.82-7.91,26.75s-4.93,17.65-6.28,26.7c-.75,5.07-1.2,10.18-1.18,15.31,0,1.19,1.72,2.13,2.56,1.06,5.26-6.69,10.52-13.37,15.79-20.06,6.28-7.98,12.56-15.95,18.84-23.93,.16-.2,.31-.43,.48-.61,.5-.53,1.27-.83,1.71-.87,2.17-.2,4.43,1.8,6.02,3.43,2.39,2.45,4.34,5.32,6.07,8.26,1.45,2.46,2.82,5.04,3.77,7.74,.48,1.35,.67,2.68,.84,4.11,.33,2.77,.55,5.56,.59,8.35,.06,4.33-.39,8.62-1.18,12.88-1.58,8.48-3.69,16.98-7.54,24.75-3.14,6.32-7.41,11.93-12.8,16.49s-11.64,7.92-18.01,10.83c-7.31,3.33-14.88,6.27-22.46,8.88-6.43,2.22-13.09,3.73-19.76,4.98-16.98,3.19-34.28,4.68-51.51,5.71-18.05,1.08-36.13,1.52-54.21,1.52-7.69,0-15.37-.08-23.06-.25-3.23-.08-6.45-.17-9.68-.28-4.19-.15-8.45-.27-12.47-1.56-2.09-.67-4.09-1.72-5.63-3.32s-2.99-4.11-1.59-6.22c1.06-1.6,3.16-2.27,4.91-2.76,2.69-.74,5.45-1.27,8.21-1.67,11.56-1.66,23.52-.51,34.58,3.23,2.53,.86,5.18,1.76,7.52,3.08,1.7,.96,4.12,2.68,3.28,4.91-.68,1.81,2.22,2.59,2.89,.8,2.09-5.57-5.25-8.74-9.18-10.31-5.65-2.25-11.58-3.8-17.61-4.64s-11.97-1.02-17.95-.47c-3.05,.28-6.09,.73-9.09,1.36-2.34,.5-4.76,1.02-6.9,2.12-1.94,1-3.63,2.67-4.07,4.88-.53,2.69,.63,5.15,2.32,7.18,3.11,3.73,8.02,5.19,12.65,5.82,3.81,.51,7.68,.56,11.52,.68,3.53,.11,7.07,.2,10.6,.26,17.7,.33,35.41,.19,53.11-.43,18.85-.66,37.72-1.82,56.43-4.29,8.1-1.07,16.18-2.37,24.14-4.24,7.26-1.71,14.16-4.2,21.12-6.87,14.11-5.42,28.9-11.54,38.69-23.6,5.12-6.31,8.61-13.7,11.03-21.43,1.42-4.56,2.46-9.22,3.36-13.91,.84-4.42,1.39-8.88,1.38-13.39,0-2.88-.21-5.77-.54-8.63-.19-1.65-.33-3.32-.84-4.9-.95-2.91-2.38-5.71-3.91-8.35-1.81-3.16-3.89-6.23-6.37-8.9-1.91-2.06-4.34-4.25-7.2-4.74-1.97-.34-4.05,.27-5.38,1.8-.78,.89-1.47,1.86-2.19,2.79-3.33,4.23-6.65,8.45-9.98,12.68-7.16,9.1-14.32,18.19-21.48,27.29-.45,.57-.89,1.13-1.34,1.7l2.56,1.06c-.05-18.15,5.68-35.62,10.79-52.84,1.49-5.04,2.99-10.08,4.48-15.12,.47-1.58-1.42-2.3-2.51-1.46-13.47,10.44-27.1,20.95-42.43,28.53-4.34,2.15-8.81,4.02-13.4,5.59l1.85,1.85c2.23-6.8,6.81-12.68,12.84-16.53l-2.26-1.3c-1.36,14.43-9.07,27.84-20.18,37.01-5.53,4.55-11.99,8.03-18.88,9.99-1.48,.42-3.69,.96-3.64-1.25,.04-1.83,.64-3.74,1.07-5.5,.99-4.05,2.31-8.04,3.98-11.87,3.74-8.62,9.04-16.49,15.65-23.17,1.36-1.37-.76-3.5-2.12-2.12h0Z"/>
      </g>
    </g>
  </g>
</svg>