<?xml version="1.0" encoding="UTF-8"?>
<svg id="Layer_2" data-name="Layer 2" xmlns="http://www.w3.org/2000/svg" viewBox="0 0 122.52 124.13">
  <g id="Layer_1-2" data-name="Layer 1">
    <path d="M77.87,66.73c9.06,.85,16.59,1.09,22.29,1.11,3.83,.01,7.16-.06,10.49-2.13,3.33-2.07,4.9-5.07,6.61-8.5,1.66-3.27,3.85-8.68,4.52-16.07,.29-1.6,.57-3.86,.68-6.55,.13-3.87,.17-5.84-.79-7.14-.8-1.07-2.32-1.96-9.05-1.95-5.43,0-9.31,0-14.7,1.45-2.07,.55-6.78,1.95-13.21,5.79-5.12,3.05-13.34,8.84-21.44,19.13-1.39-13.01-5.3-22.26-8.01-27.57-3.43-6.67-6.66-10.35-8.12-11.91-3.81-4.1-7.1-6.15-11.71-9.03C29.72-.22,27.97-.27,26.72,.22c-1.52,.57-2.52,2.26-4.45,5.61-1.37,2.35-2.3,4.4-2.92,5.93-3.35,6.61-4.35,12.36-4.7,16-.34,3.83-.62,7.2,1.11,10.73,1.71,3.52,4.49,5.34,7.74,7.36,4.85,3.01,11.4,6.83,19.53,10.91-9.08-.43-16.62-.32-22.31-.07-3.82,.17-7.15,.41-10.36,2.62-3.24,2.23-4.66,5.31-6.21,8.82-1.5,3.33-3.44,8.85-3.77,16.25-.21,1.62-.41,3.88-.38,6.58,.05,3.88,.1,5.83,1.13,7.09,.85,1.04,2.4,1.85,9.14,1.53,5.43-.25,9.29-.42,14.61-2.11,2.05-.65,6.67-2.28,12.92-6.42,4.78-3.14,12.31-8.97,19.65-18.88,.96,12.28,4.25,21.22,6.64,26.41,3.1,6.82,6.16,10.66,7.54,12.29,3.61,4.25,6.8,6.46,11.26,9.55,5.55,3.82,7.3,3.97,8.56,3.54,1.55-.53,2.62-2.15,4.71-5.41,1.45-2.28,2.49-4.3,3.19-5.77,3.64-6.46,4.93-12.15,5.42-15.78,.55-3.82,.96-7.15-.59-10.77-1.56-3.59-4.24-5.54-7.39-7.72-4.7-3.22-10.99-7.34-18.92-11.79Z"/>
  </g>
</svg>