<?xml version="1.0" encoding="UTF-8"?>
<svg id="Layer_2" data-name="Layer 2" xmlns="http://www.w3.org/2000/svg" viewBox="0 0 405.96 70.23">
  <defs>
    <style>
      .cls-1 {
        fill: #decff3;
      }

      .cls-2 {
        letter-spacing: -.05em;
      }

      .cls-3 {
        fill: #abefbd;
      }

      .cls-4 {
        fill: none;
        stroke: #1d9afa;
        stroke-miterlimit: 10;
      }

      .cls-5 {
        letter-spacing: 0em;
      }

      .cls-6 {
        letter-spacing: 0em;
      }

      .cls-7 {
        fill: #7dd1fc;
      }

      .cls-8 {
        fill: #2845c9;
      }

      .cls-9 {
        letter-spacing: 0em;
      }

      .cls-10 {
        font-family: Urbanist-Regular, Urbanist;
        font-size: 20px;
      }

      .cls-10, .cls-11 {
        fill: #1d9afa;
      }

      .cls-12 {
        letter-spacing: 0em;
      }

      .cls-13 {
        fill: #d2ecfb;
      }
    </style>
  </defs>
  <g id="Layer_1-2" data-name="Layer 1">
    <polygon class="cls-8" points="21.58 59.82 18.01 70.23 17.23 59.25 9.74 67.31 13.49 56.97 3.37 61.28 11 53.36 0 53.18 10.19 49.04 .22 44.41 11.21 44.78 3.99 36.49 13.88 41.3 10.65 30.78 17.73 39.2 19.06 28.28 22.1 38.85 27.75 29.41 26.24 40.31 35.24 33.99 29.42 43.32 40.22 41.21 31.11 47.37 41.83 49.83 31 51.76 39.79 58.37 29.11 55.72 34.46 65.33 25.78 58.57 26.75 69.53 21.58 59.82"/>
    <polygon class="cls-11" points="71.28 59.82 67.71 70.23 66.93 59.25 59.43 67.31 63.18 56.97 53.06 61.28 60.69 53.36 49.7 53.18 59.89 49.04 49.92 44.41 60.91 44.78 53.68 36.49 63.57 41.3 60.35 30.78 67.43 39.2 68.75 28.28 71.8 38.85 77.45 29.41 75.93 40.31 84.94 33.99 79.12 43.32 89.91 41.21 80.8 47.37 91.52 49.83 80.69 51.76 89.49 58.37 78.81 55.72 84.16 65.33 75.48 58.57 76.45 69.53 71.28 59.82"/>
    <polygon class="cls-7" points="120.97 59.82 117.4 70.23 116.62 59.25 109.13 67.31 112.88 56.97 102.76 61.28 110.39 53.36 99.39 53.18 109.59 49.04 99.61 44.41 110.6 44.78 103.38 36.49 113.27 41.3 110.04 30.78 117.12 39.2 118.45 28.28 121.49 38.85 127.15 29.41 125.63 40.31 134.63 33.99 128.82 43.32 139.61 41.21 130.5 47.37 141.22 49.83 130.39 51.76 139.18 58.37 128.51 55.72 133.85 65.33 125.18 58.57 126.15 69.53 120.97 59.82"/>
    <polygon class="cls-13" points="170.67 59.82 167.1 70.23 166.32 59.25 158.83 67.31 162.58 56.97 152.46 61.28 160.09 53.36 149.09 53.18 159.28 49.04 149.31 44.41 160.3 44.78 153.08 36.49 162.97 41.3 159.74 30.78 166.82 39.2 168.15 28.28 171.19 38.85 176.84 29.41 175.33 40.31 184.33 33.99 178.51 43.32 189.31 41.21 180.2 47.37 190.92 49.83 180.09 51.76 188.88 58.37 178.2 55.72 183.55 65.33 174.87 58.57 175.84 69.53 170.67 59.82"/>
    <polygon class="cls-1" points="245.21 59.82 241.65 70.23 240.86 59.25 233.37 67.31 237.12 56.97 227 61.28 234.63 53.36 223.63 53.18 233.83 49.04 223.85 44.41 234.85 44.78 227.62 36.49 237.51 41.3 234.28 30.78 241.36 39.2 242.69 28.28 245.74 38.85 251.39 29.41 249.87 40.31 258.87 33.99 253.06 43.32 263.85 41.21 254.74 47.37 265.46 49.83 254.63 51.76 263.42 58.37 252.75 55.72 258.09 65.33 249.42 58.57 250.39 69.53 245.21 59.82"/>
    <polygon class="cls-3" points="294.91 59.82 291.34 70.23 290.56 59.25 283.07 67.31 286.82 56.97 276.7 61.28 284.33 53.36 273.33 53.18 283.52 49.04 273.55 44.41 284.54 44.78 277.32 36.49 287.21 41.3 283.98 30.78 291.06 39.2 292.39 28.28 295.43 38.85 301.09 29.41 299.57 40.31 308.57 33.99 302.75 43.32 313.55 41.21 304.44 47.37 315.16 49.83 304.33 51.76 313.12 58.37 302.45 55.72 307.79 65.33 299.11 58.57 300.09 69.53 294.91 59.82"/>
    <text class="cls-10" transform="translate(224.36 17)"><tspan class="cls-2" x="0" y="0">A</tspan><tspan class="cls-6" x="12.53" y="0">cc</tspan><tspan class="cls-9" x="32.65" y="0">e</tspan><tspan x="43.72" y="0">nt </tspan><tspan class="cls-6" x="66.14" y="0">c</tspan><tspan class="cls-12" x="76.2" y="0">o</tspan><tspan class="cls-5" x="87.23" y="0">l</tspan><tspan class="cls-9" x="90.96" y="0">o</tspan><tspan class="cls-6" x="102.06" y="0">r</tspan><tspan x="109.08" y="0">s</tspan></text>
    <line class="cls-4" x1="206.49" y1="70.23" x2="206.49" y2="1.95"/>
  </g>
</svg>