<?xml version="1.0" encoding="UTF-8"?>
<svg id="Layer_2" data-name="Layer 2" xmlns="http://www.w3.org/2000/svg" viewBox="0 0 164 43.75">
  <defs>
    <style>
      .cls-1 {
        fill: #7dd1fc;
      }

      .cls-2 {
        fill: #2845c9;
      }

      .cls-3 {
        fill: #1d9afa;
      }

      .cls-4 {
        fill: #d2ecfb;
      }
    </style>
  </defs>
  <g id="Layer_1-2" data-name="Layer 1">
    <g>
      <polygon class="cls-2" points="22 33.17 17.4 43.75 17.5 32.22 9 40.01 13.78 29.52 2.84 33.17 11.48 25.53 0 24.43 11 20.96 .96 15.28 12.42 16.59 5.56 7.32 15.5 13.17 13 1.91 19.7 11.3 22 0 24.29 11.3 30.99 1.91 28.5 13.17 38.43 7.32 31.57 16.59 43.03 15.28 32.99 20.96 43.99 24.43 32.51 25.53 41.15 33.17 30.21 29.52 34.99 40.01 26.49 32.22 26.59 43.75 22 33.17"/>
      <polygon class="cls-3" points="71.36 29.08 68.43 35.83 68.5 28.47 63.07 33.44 66.12 26.75 59.15 29.08 64.66 24.21 57.34 23.5 64.35 21.29 57.95 17.67 65.26 18.5 60.88 12.59 67.22 16.32 65.63 9.14 69.9 15.13 71.36 7.92 72.83 15.13 77.1 9.14 75.51 16.32 81.85 12.59 77.47 18.5 84.78 17.67 78.38 21.29 85.39 23.5 78.07 24.21 83.58 29.08 76.61 26.75 79.66 33.44 74.23 28.47 74.3 35.83 71.36 29.08"/>
      <polygon class="cls-1" points="110.54 29.08 107.61 35.83 107.67 28.47 102.25 33.44 105.3 26.75 98.33 29.08 103.83 24.21 96.51 23.5 103.53 21.29 97.13 17.67 104.43 18.5 100.06 12.59 106.4 16.32 104.8 9.14 109.08 15.13 110.54 7.92 112.01 15.13 116.28 9.14 114.69 16.32 121.02 12.59 116.65 18.5 123.96 17.67 117.56 21.29 124.57 23.5 117.25 24.21 122.76 29.08 115.78 26.75 118.83 33.44 113.41 28.47 113.47 35.83 110.54 29.08"/>
      <polygon class="cls-4" points="149.97 29.08 147.04 35.83 147.1 28.47 141.68 33.44 144.73 26.75 137.76 29.08 143.26 24.21 135.94 23.5 142.96 21.29 136.56 17.67 143.86 18.5 139.49 12.59 145.83 16.32 144.23 9.14 148.51 15.13 149.97 7.92 151.44 15.13 155.71 9.14 154.12 16.32 160.45 12.59 156.08 18.5 163.39 17.67 156.99 21.29 164 23.5 156.68 24.21 162.19 29.08 155.21 26.75 158.26 33.44 152.84 28.47 152.9 35.83 149.97 29.08"/>
    </g>
  </g>
</svg>