<?xml version="1.0" encoding="UTF-8"?>
<svg id="Layer_2" data-name="Layer 2" xmlns="http://www.w3.org/2000/svg" viewBox="0 0 228.6 412.51">
  <defs>
    <style>
      .cls-1 {
        fill: #7dd1fc;
      }

      .cls-2 {
        fill: #2845c9;
      }

      .cls-3 {
        fill: #9cdcfc;
      }

      .cls-4 {
        fill: #1d9afa;
      }
    </style>
  </defs>
  <g id="Layer_1-2" data-name="Layer 1">
    <g>
      <g>
        <path class="cls-3" d="M69.56,342.95v69.56C31.14,412.51,0,381.37,0,342.95"/>
        <path class="cls-1" d="M175.65,69.56c-38.42,0-69.56,0-69.56,0C106.09,31.14,137.23,0,175.65,0"/>
      </g>
      <path class="cls-2" d="M122.7,237.8h-53.14v106.09h106.09v-53.14c-29.24,0-52.95-23.71-52.95-52.95Z"/>
      <path class="cls-1" d="M175.65,184.85c-29.24,0-52.95,23.71-52.95,52.95h52.95v52.95c29.24,0,52.95-23.71,52.95-52.95s-23.71-52.95-52.95-52.95Z"/>
      <path class="cls-4" d="M122.7,237.8c0,29.24,23.71,52.95,52.95,52.95v-52.95h-52.95Z"/>
    </g>
  </g>
</svg>