<?xml version="1.0" encoding="UTF-8"?>
<svg id="Layer_2" data-name="Layer 2" xmlns="http://www.w3.org/2000/svg" viewBox="0 0 399.95 283.79">
  <defs>
    <style>
      .cls-1 {
        fill: #edf1f8;
      }
    </style>
  </defs>
  <g id="Layer_1-2" data-name="Layer 1">
    <g>
      <g>
        <path class="cls-1" d="M399.02,173.06c-.03-6.97-1.01-13.32-2.94-19.06-1.93-5.74-4.7-10.61-8.31-14.6-3.61-3.99-8-7.08-13.17-9.27-5.17-2.19-10.96-3.27-17.36-3.24-6.62,.03-12.6,1.21-17.92,3.56-5.32,2.34-9.83,5.59-13.52,9.72-3.69,4.14-6.53,9-8.53,14.58-2,5.58-2.98,11.57-2.96,17.96,.03,6.5,1.06,12.54,3.1,18.11,2.04,5.57,5.01,10.37,8.9,14.42,3.89,4.05,8.65,7.22,14.27,9.52,5.62,2.3,11.97,3.44,19.05,3.41,8.08-.03,14.82-1.22,20.2-3.57,5.38-2.34,9.8-5.03,13.27-8.07l-9.34-18.95c-2.91,2.68-6.35,4.85-10.33,6.49-3.98,1.64-8.5,2.47-13.55,2.49-2.47,0-4.91-.3-7.33-.93-2.42-.63-4.64-1.64-6.66-3.02-2.03-1.39-3.8-3.12-5.33-5.2-1.52-2.08-2.63-4.58-3.31-7.48l-.17-.35,61.98-.25-.03-6.27Zm-62.19-10.2c1.1-5.23,3.33-9.28,6.69-12.13,3.36-2.86,7.73-4.3,13.12-4.32,5.39-.02,9.61,1.5,12.65,4.57,3.04,3.07,4.86,6.98,5.44,11.74l-37.89,.15Z"/>
        <path class="cls-1" d="M295.82,94.56c-4.38,.02-8.42,.67-12.12,1.97-3.7,1.29-6.89,3.25-9.58,5.87-2.68,2.62-4.8,5.97-6.36,10.04-1.56,4.07-2.32,8.95-2.3,14.64l.02,4.36-17.01,.07,.08,19.34,17.01-.07,.27,67.77,22.23-.09-.27-67.77,23.92-.1-.08-19.34-23.92,.1v-1.92c-.03-4.53,.83-7.9,2.56-10.11,1.73-2.21,4.84-3.33,9.33-3.35,1.91,0,3.87,.1,5.9,.32,2.02,.22,4.33,.56,6.91,1.02l-.09-21.25c-2.81-.45-5.48-.82-8.01-1.1-2.53-.28-5.36-.41-8.51-.4Z"/>
        <rect class="cls-1" x="215.3" y="131.6" width="22.23" height="87.11" transform="translate(-.71 .92) rotate(-.23)"/>
        <path class="cls-1" d="M118.45,129.94c-6.18,.02-11.53,1.41-16.07,4.16-4.54,2.75-8.25,6.28-11.16,10.59l-.05-12.54-21.56,.09,.35,87.11,22.23-.09-.17-41.64c-.03-7.78,1.37-13.97,4.22-18.57,2.84-4.6,7.52-6.91,14.04-6.94,4.72-.02,8.45,1.45,11.22,4.4,2.76,2.95,4.16,7.74,4.18,14.36l.2,48.26,22.74-.09-.22-54.01c-.04-11.03-2.58-19.65-7.6-25.84-5.02-6.19-12.47-9.27-22.35-9.23Z"/>
        <path class="cls-1" d="M23.67,97.58l.49,121.95,23.58-.1-.39-97.56c-.05-13.47-10.66-24.35-23.68-24.29Z"/>
        <path class="cls-1" d="M170.44,118.9v1.25s.38,92.2,.38,92.2l.03,6.58,22.4-.09-.03-6.58-.47-115.36c-12.37,.05-22.36,9.9-22.31,22.01Z"/>
        <path class="cls-1" d="M106.17,0l106.76,72.38h0c-7.59,11.99-23.14,15.33-34.73,7.48L106.29,31.11,34.79,80.43C23.27,88.38,7.69,85.16,0,73.24h0s24.04-16.58,24.04-16.58h-.54s-.1-24.94-.1-24.94l28.14-.11,.02,6.07L106.17,0Z"/>
      </g>
      <g>
        <g>
          <path class="cls-1" d="M32.95,283.32l-9.03-31.56h7.29l5.22,21.93h.26l5.76-21.93h6.24l5.75,21.97h.28l5.22-21.97h7.29l-9.03,31.56h-6.5l-6.01-20.63h-.25l-5.99,20.63h-6.5Z"/>
          <path class="cls-1" d="M78.9,283.79c-2.42,0-4.51-.5-6.27-1.49-1.76-.99-3.11-2.4-4.05-4.22-.94-1.82-1.42-3.98-1.42-6.48s.47-4.57,1.42-6.41c.95-1.84,2.28-3.27,4-4.3,1.72-1.03,3.74-1.54,6.06-1.54,2.08,0,3.97,.44,5.65,1.32,1.68,.88,3.01,2.22,4,4,.99,1.78,1.48,4.01,1.48,6.7v1.8h-16.12v.02c0,1.77,.48,3.16,1.45,4.18,.97,1.02,2.27,1.53,3.91,1.53,1.1,0,2.05-.23,2.85-.69s1.37-1.15,1.7-2.05l6.07,.4c-.46,2.2-1.63,3.95-3.51,5.27-1.88,1.31-4.28,1.97-7.21,1.97Zm-5.25-14.68h9.94c-.01-1.41-.46-2.57-1.36-3.48-.89-.91-2.05-1.37-3.48-1.37s-2.66,.47-3.59,1.42c-.94,.94-1.44,2.09-1.51,3.44Z"/>
          <path class="cls-1" d="M123.8,266.41l-6.01,.37c-.16-.76-.58-1.41-1.25-1.96-.67-.54-1.57-.82-2.71-.82-1.02,0-1.88,.21-2.58,.64-.7,.43-1.05,.99-1.04,1.7-.01,.57,.21,1.04,.67,1.43,.46,.39,1.24,.7,2.33,.94l4.28,.86c4.55,.93,6.83,3.07,6.84,6.41,0,1.55-.45,2.91-1.36,4.08-.91,1.17-2.15,2.08-3.74,2.74-1.58,.65-3.4,.98-5.44,.98-3.13,0-5.63-.65-7.49-1.96-1.86-1.31-2.94-3.09-3.25-5.35l6.46-.34c.21,.97,.68,1.7,1.43,2.19,.74,.49,1.7,.74,2.87,.74s2.08-.23,2.78-.68c.7-.45,1.06-1.03,1.07-1.73-.03-1.17-1.04-1.96-3.03-2.36l-4.1-.82c-4.58-.91-6.86-3.17-6.84-6.76-.01-2.28,.9-4.08,2.73-5.39,1.83-1.31,4.27-1.97,7.3-1.97s5.34,.63,7.06,1.9c1.72,1.26,2.72,2.98,3.01,5.16Z"/>
          <path class="cls-1" d="M135.04,269.64v13.68h-6.56v-31.56h6.38v12.06h.28c.54-1.4,1.41-2.49,2.6-3.29,1.19-.8,2.68-1.19,4.48-1.19,2.47,0,4.45,.79,5.95,2.37,1.5,1.58,2.24,3.76,2.23,6.53v15.07h-6.56v-13.9c.01-1.46-.36-2.59-1.1-3.41-.75-.81-1.78-1.22-3.12-1.22s-2.43,.42-3.27,1.27c-.85,.85-1.28,2.04-1.29,3.57Z"/>
          <path class="cls-1" d="M166.26,283.79c-2.39,0-4.46-.51-6.2-1.53-1.74-1.02-3.08-2.45-4.03-4.28-.94-1.83-1.42-3.96-1.42-6.39s.47-4.58,1.42-6.42c.95-1.83,2.29-3.26,4.03-4.28,1.74-1.02,3.81-1.53,6.2-1.53s4.46,.51,6.2,1.53c1.74,1.02,3.08,2.45,4.03,4.28,.94,1.83,1.42,3.97,1.42,6.42s-.47,4.55-1.42,6.39c-.95,1.83-2.29,3.26-4.03,4.28-1.74,1.02-3.81,1.53-6.2,1.53Zm.03-5.08c1.62,0,2.85-.68,3.69-2.03,.84-1.36,1.26-3.07,1.26-5.13s-.42-3.78-1.26-5.14c-.84-1.36-2.07-2.04-3.69-2.04s-2.9,.68-3.74,2.04-1.26,3.07-1.26,5.14,.42,3.78,1.26,5.13c.84,1.36,2.09,2.03,3.74,2.03Z"/>
          <path class="cls-1" d="M186.27,283.32l-6.44-23.67h6.64l3.67,15.9h.22l3.82-15.9h6.52l3.88,15.81h.2l3.61-15.81h6.63l-6.43,23.67h-6.95l-4.07-14.88h-.29l-4.07,14.88h-6.93Z"/>
          <rect class="cls-1" x="215.84" y="277.11" width="6.51" height="6.51"/>
        </g>
        <g>
          <path class="cls-1" d="M226.78,251.77h7.47l7.2,13.59h.31l7.2-13.59h7.47l-11.51,20.4v11.16h-6.63v-11.16l-11.51-20.4Z"/>
          <path class="cls-1" d="M265.71,283.79c-2.39,0-4.46-.51-6.2-1.53-1.74-1.02-3.08-2.45-4.03-4.28-.94-1.83-1.42-3.96-1.42-6.39s.47-4.58,1.42-6.42c.95-1.83,2.29-3.26,4.03-4.28,1.74-1.02,3.81-1.53,6.2-1.53s4.46,.51,6.2,1.53c1.74,1.02,3.08,2.45,4.03,4.28,.94,1.83,1.42,3.97,1.42,6.42s-.47,4.55-1.42,6.39c-.95,1.83-2.29,3.26-4.03,4.28-1.74,1.02-3.81,1.53-6.2,1.53Zm.03-5.08c1.62,0,2.85-.68,3.69-2.03,.84-1.36,1.26-3.07,1.26-5.13s-.42-3.78-1.26-5.14c-.84-1.36-2.07-2.04-3.69-2.04s-2.9,.68-3.74,2.04-1.26,3.07-1.26,5.14,.42,3.78,1.26,5.13c.84,1.36,2.09,2.03,3.74,2.03Z"/>
          <path class="cls-1" d="M296.82,273.25v-13.59h6.56v23.67h-6.3v-4.3h-.25c-.53,1.39-1.42,2.5-2.66,3.34s-2.74,1.26-4.52,1.26c-2.38,0-4.31-.79-5.79-2.38-1.47-1.59-2.22-3.76-2.23-6.53v-15.07h6.56v13.9c.01,1.4,.38,2.5,1.12,3.31,.74,.81,1.73,1.22,2.97,1.22s2.23-.41,3.15-1.23c.92-.82,1.37-2.02,1.36-3.61Z"/>
          <path class="cls-1" d="M325.25,251.77v31.56h-6.56v-31.56h6.56Z"/>
          <path class="cls-1" d="M333.78,256.61c-.97,0-1.8-.33-2.5-.98s-1.05-1.44-1.05-2.35,.35-1.7,1.05-2.34c.7-.65,1.53-.97,2.5-.97s1.81,.32,2.51,.97c.7,.65,1.05,1.43,1.05,2.34s-.35,1.7-1.05,2.35c-.7,.65-1.54,.98-2.51,.98Zm-3.3,26.72v-23.67h6.56v23.67h-6.56Z"/>
          <path class="cls-1" d="M364.35,259.66l-8.27,23.67h-7.4l-8.27-23.67h6.93l4.92,16.93h.25l4.9-16.93h6.95Z"/>
          <path class="cls-1" d="M377.71,283.79c-2.42,0-4.51-.5-6.27-1.49-1.76-.99-3.11-2.4-4.05-4.22-.94-1.82-1.42-3.98-1.42-6.48s.47-4.57,1.42-6.41c.95-1.84,2.28-3.27,4-4.3,1.72-1.03,3.74-1.54,6.06-1.54,2.08,0,3.97,.44,5.65,1.32,1.68,.88,3.01,2.22,4,4,.99,1.78,1.48,4.01,1.48,6.7v1.8h-16.12v.02c0,1.77,.48,3.16,1.45,4.18,.97,1.02,2.27,1.53,3.91,1.53,1.1,0,2.05-.23,2.85-.69s1.37-1.15,1.7-2.05l6.07,.4c-.46,2.2-1.63,3.95-3.51,5.27-1.88,1.31-4.28,1.97-7.21,1.97Zm-5.25-14.68h9.94c-.01-1.41-.46-2.57-1.36-3.48-.89-.91-2.05-1.37-3.48-1.37s-2.66,.47-3.59,1.42c-.94,.94-1.44,2.09-1.51,3.44Z"/>
          <rect class="cls-1" x="393.44" y="276.79" width="6.51" height="6.51"/>
        </g>
      </g>
    </g>
  </g>
</svg>