<?xml version="1.0" encoding="UTF-8"?>
<svg id="Layer_2" data-name="Layer 2" xmlns="http://www.w3.org/2000/svg" viewBox="0 0 622.87 412.79">
  <defs>
    <style>
      .cls-1 {
        fill: #f5f7fa;
      }

      .cls-2 {
        fill: #1d9afa;
      }
    </style>
  </defs>
  <g id="Layer_1-2" data-name="Layer 1">
    <rect class="cls-2" width="622.87" height="412.79"/>
    <g>
      <g>
        <path class="cls-1" d="M409.13,205.15c-.01-3.42-.49-6.54-1.44-9.36-.95-2.82-2.31-5.21-4.08-7.17-1.77-1.96-3.93-3.48-6.47-4.55-2.54-1.07-5.38-1.6-8.52-1.59s-6.18,.59-8.8,1.75c-2.61,1.15-4.82,2.74-6.64,4.77-1.81,2.03-3.21,4.42-4.19,7.16-.98,2.74-1.47,5.68-1.45,8.81,.01,3.19,.52,6.15,1.52,8.89,1,2.73,2.46,5.09,4.37,7.08,1.91,1.99,4.24,3.55,7,4.67,2.76,1.13,5.88,1.69,9.35,1.67,3.97-.02,7.27-.6,9.91-1.75,2.64-1.15,4.81-2.47,6.51-3.96l-4.58-9.3c-1.43,1.32-3.12,2.38-5.07,3.18-1.95,.81-4.17,1.21-6.65,1.22-1.21,0-2.41-.15-3.6-.46s-2.28-.8-3.27-1.48c-.99-.68-1.87-1.53-2.61-2.55-.75-1.02-1.29-2.25-1.63-3.67l-.08-.17,30.42-.12v-3.08Zm-30.54-5.01c.54-2.57,1.63-4.55,3.28-5.96,1.65-1.4,3.79-2.11,6.44-2.12,2.65-.01,4.71,.74,6.21,2.24,1.49,1.5,2.38,3.43,2.67,5.76l-18.6,.08Z"/>
        <path class="cls-1" d="M358.48,166.62c-2.15,0-4.13,.33-5.95,.96-1.82,.63-3.38,1.6-4.7,2.88-1.32,1.29-2.36,2.93-3.12,4.93-.76,2-1.14,4.39-1.13,7.19v2.14s-8.34,.03-8.34,.03l.04,9.49,8.35-.03,.13,33.26,10.91-.04-.13-33.26,11.74-.05-.04-9.49-11.74,.05v-.94c-.01-2.22,.41-3.88,1.26-4.96,.85-1.09,2.38-1.63,4.58-1.64,.94,0,1.9,.05,2.89,.16,.99,.11,2.12,.28,3.39,.5l-.04-10.43c-1.38-.22-2.69-.4-3.93-.54-1.24-.14-2.63-.2-4.18-.2Z"/>
        <rect class="cls-1" x="318.96" y="184.8" width="10.91" height="42.75" transform="translate(-.83 1.31) rotate(-.23)"/>
        <path class="cls-1" d="M271.42,183.99c-3.03,.01-5.66,.69-7.89,2.04-2.23,1.35-4.05,3.08-5.48,5.2l-.02-6.16-10.58,.04,.17,42.75,10.91-.04-.08-20.44c-.02-3.82,.67-6.86,2.07-9.11,1.4-2.26,3.69-3.39,6.89-3.41,2.31,0,4.15,.71,5.51,2.16,1.36,1.45,2.04,3.8,2.05,7.05l.1,23.68,11.16-.05-.11-26.51c-.02-5.42-1.27-9.64-3.73-12.68-2.46-3.04-6.12-4.55-10.97-4.53Z"/>
        <path class="cls-1" d="M224.9,168.1l.24,59.85,11.57-.05-.19-47.88c-.03-6.61-5.23-11.95-11.62-11.92Z"/>
        <path class="cls-1" d="M296.94,178.57v.61s.19,45.25,.19,45.25v3.23s11.01-.04,11.01-.04v-3.23s-.24-56.62-.24-56.62c-6.07,.02-10.97,4.86-10.95,10.8Z"/>
        <path class="cls-1" d="M265.39,120.21l52.4,35.52h0c-3.73,5.88-11.36,7.53-17.05,3.67l-35.29-23.92-35.09,24.21c-5.66,3.9-13.3,2.32-17.08-3.53h0s11.8-8.14,11.8-8.14h-.27s-.05-12.24-.05-12.24l13.81-.06v2.98s26.81-18.49,26.81-18.49Z"/>
      </g>
      <g>
        <g>
          <path class="cls-1" d="M229.46,259.27l-4.43-15.49h3.58l2.56,10.76h.13l2.83-10.76h3.06l2.82,10.78h.14l2.56-10.78h3.58l-4.43,15.49h-3.19l-2.95-10.13h-.12l-2.94,10.13h-3.19Z"/>
          <path class="cls-1" d="M252.01,259.5c-1.19,0-2.22-.24-3.08-.73s-1.53-1.18-1.99-2.07c-.46-.89-.7-1.95-.7-3.18s.23-2.24,.7-3.15c.46-.9,1.12-1.61,1.96-2.11,.84-.5,1.84-.76,2.98-.76,1.02,0,1.95,.22,2.77,.65,.82,.43,1.48,1.09,1.96,1.96,.48,.87,.73,1.97,.73,3.29v.88h-7.91c0,.87,.24,1.56,.71,2.06,.47,.5,1.11,.75,1.92,.75,.54,0,1.01-.11,1.4-.34s.67-.56,.83-1.01l2.98,.2c-.23,1.08-.8,1.94-1.72,2.59-.92,.65-2.1,.97-3.54,.97Zm-2.58-7.21h4.88c0-.69-.23-1.26-.67-1.71-.44-.45-1.01-.67-1.71-.67s-1.3,.23-1.76,.7c-.46,.46-.71,1.03-.74,1.69Z"/>
          <path class="cls-1" d="M274.05,250.97l-2.95,.18c-.08-.37-.29-.69-.61-.96-.33-.27-.77-.4-1.33-.4-.5,0-.92,.1-1.27,.31-.35,.21-.52,.49-.51,.84,0,.28,.1,.51,.33,.7,.22,.19,.61,.35,1.15,.46l2.1,.42c2.23,.46,3.35,1.51,3.36,3.15,0,.76-.22,1.43-.67,2-.45,.57-1.06,1.02-1.83,1.34-.78,.32-1.67,.48-2.67,.48-1.54,0-2.76-.32-3.68-.96-.91-.64-1.44-1.52-1.6-2.63l3.17-.17c.1,.47,.33,.83,.7,1.07,.37,.24,.84,.36,1.41,.36s1.02-.11,1.37-.33c.34-.22,.52-.5,.53-.85-.01-.57-.51-.96-1.49-1.16l-2.01-.4c-2.25-.45-3.37-1.56-3.36-3.32,0-1.12,.44-2,1.34-2.65,.9-.65,2.09-.97,3.58-.97s2.62,.31,3.47,.93,1.34,1.46,1.48,2.53Z"/>
          <path class="cls-1" d="M279.57,252.56v6.72h-3.22v-15.49h3.13v5.92h.14c.27-.69,.69-1.22,1.27-1.61,.58-.39,1.31-.59,2.2-.59,1.21,0,2.18,.39,2.92,1.16,.74,.78,1.1,1.85,1.1,3.21v7.4h-3.22v-6.82c0-.72-.18-1.27-.54-1.67-.37-.4-.88-.6-1.53-.6s-1.19,.21-1.61,.62c-.42,.42-.63,1-.63,1.75Z"/>
          <path class="cls-1" d="M294.89,259.5c-1.17,0-2.19-.25-3.04-.75-.85-.5-1.51-1.2-1.98-2.1-.46-.9-.7-1.94-.7-3.13s.23-2.25,.7-3.15c.46-.9,1.12-1.6,1.98-2.1,.85-.5,1.87-.75,3.04-.75s2.19,.25,3.04,.75c.85,.5,1.51,1.2,1.98,2.1,.46,.9,.7,1.95,.7,3.15s-.23,2.23-.7,3.13c-.46,.9-1.12,1.6-1.98,2.1-.85,.5-1.87,.75-3.04,.75Zm.01-2.5c.8,0,1.4-.33,1.81-1,.41-.67,.62-1.5,.62-2.52s-.21-1.85-.62-2.52c-.41-.67-1.01-1-1.81-1s-1.42,.33-1.84,1c-.41,.67-.62,1.51-.62,2.52s.21,1.85,.62,2.52c.41,.67,1.03,1,1.84,1Z"/>
          <path class="cls-1" d="M304.71,259.27l-3.16-11.62h3.26l1.8,7.8h.11l1.88-7.8h3.2l1.91,7.76h.1l1.77-7.76h3.25l-3.15,11.62h-3.41l-2-7.31h-.14l-2,7.31h-3.4Z"/>
          <rect class="cls-1" x="319.22" y="256.22" width="3.19" height="3.19"/>
        </g>
        <g>
          <path class="cls-1" d="M324.59,243.78h3.67l3.53,6.67h.15l3.53-6.67h3.67l-5.65,10.01v5.48h-3.25v-5.48l-5.65-10.01Z"/>
          <path class="cls-1" d="M343.7,259.5c-1.17,0-2.19-.25-3.04-.75-.85-.5-1.51-1.2-1.98-2.1-.46-.9-.7-1.94-.7-3.13s.23-2.25,.7-3.15c.46-.9,1.12-1.6,1.98-2.1,.85-.5,1.87-.75,3.04-.75s2.19,.25,3.04,.75c.85,.5,1.51,1.2,1.98,2.1,.46,.9,.7,1.95,.7,3.15s-.23,2.23-.7,3.13c-.46,.9-1.12,1.6-1.98,2.1-.85,.5-1.87,.75-3.04,.75Zm.01-2.5c.8,0,1.4-.33,1.81-1,.41-.67,.62-1.5,.62-2.52s-.21-1.85-.62-2.52c-.41-.67-1.01-1-1.81-1s-1.42,.33-1.84,1-.62,1.51-.62,2.52,.21,1.85,.62,2.52c.41,.67,1.03,1,1.84,1Z"/>
          <path class="cls-1" d="M358.97,254.33v-6.67h3.22v11.62h-3.09v-2.11h-.12c-.26,.68-.7,1.23-1.3,1.64s-1.35,.62-2.22,.62c-1.17,0-2.12-.39-2.84-1.17-.72-.78-1.09-1.85-1.09-3.2v-7.4h3.22v6.82c0,.69,.19,1.23,.55,1.63,.36,.4,.85,.6,1.46,.6s1.1-.2,1.55-.6c.45-.4,.67-.99,.67-1.77Z"/>
          <path class="cls-1" d="M372.92,243.78v15.49h-3.22v-15.49h3.22Z"/>
          <path class="cls-1" d="M377.11,246.16c-.47,0-.88-.16-1.23-.48s-.51-.7-.51-1.15,.17-.83,.51-1.15c.34-.32,.75-.48,1.23-.48s.89,.16,1.23,.48c.34,.32,.51,.7,.51,1.15s-.17,.83-.51,1.15c-.34,.32-.75,.48-1.23,.48Zm-1.62,13.11v-11.62h3.22v11.62h-3.22Z"/>
          <path class="cls-1" d="M392.11,247.66l-4.06,11.62h-3.63l-4.06-11.62h3.4l2.41,8.31h.12l2.4-8.31h3.41Z"/>
          <path class="cls-1" d="M398.67,259.5c-1.19,0-2.22-.24-3.08-.73-.86-.49-1.53-1.18-1.99-2.07-.46-.89-.7-1.95-.7-3.18s.23-2.24,.7-3.15c.46-.9,1.12-1.61,1.96-2.11,.84-.5,1.84-.76,2.98-.76,1.02,0,1.95,.22,2.77,.65,.82,.43,1.48,1.09,1.96,1.96,.48,.87,.73,1.97,.73,3.29v.88h-7.91c0,.87,.24,1.56,.71,2.06,.47,.5,1.11,.75,1.92,.75,.54,0,1.01-.11,1.4-.34s.67-.56,.83-1.01l2.98,.2c-.23,1.08-.8,1.94-1.72,2.59-.92,.65-2.1,.97-3.54,.97Zm-2.58-7.21h4.88c0-.69-.23-1.26-.67-1.71-.44-.45-1.01-.67-1.71-.67s-1.3,.23-1.76,.7c-.46,.46-.71,1.03-.74,1.69Z"/>
          <rect class="cls-1" x="406.39" y="256.06" width="3.19" height="3.19"/>
        </g>
      </g>
    </g>
  </g>
</svg>