<?xml version="1.0" encoding="UTF-8"?>
<svg id="Layer_2" data-name="Layer 2" xmlns="http://www.w3.org/2000/svg" viewBox="0 0 246.51 51.92">
  <defs>
    <style>
      .cls-1 {
        fill: #c5c5c7;
      }

      .cls-2 {
        fill: #7dd1fc;
      }

      .cls-3 {
        fill: #2845c9;
      }

      .cls-4 {
        fill: #1d9afa;
      }

      .cls-5 {
        fill: #edf1f8;
      }
    </style>
  </defs>
  <g id="Layer_1-2" data-name="Layer 1">
    <polygon class="cls-4" points="77.17 36.54 73.6 46.95 72.82 35.98 65.33 44.03 69.08 33.69 58.96 38 66.59 30.08 55.59 29.9 65.78 25.77 55.81 21.13 66.8 21.5 59.57 13.21 69.47 18.02 66.24 7.5 73.32 15.92 74.64 5 77.69 15.57 83.34 6.13 81.83 17.03 90.83 10.71 85.01 20.04 95.81 17.93 86.7 24.09 97.42 26.55 86.59 28.48 95.38 35.09 84.7 32.44 90.05 42.05 81.37 35.29 82.34 46.25 77.17 36.54"/>
    <g>
      <polygon class="cls-3" points="21.74 37.16 13.36 46.17 17.55 34.6 6.23 39.42 14.77 30.56 2.47 30.36 13.87 25.73 2.71 20.55 15.01 20.96 6.92 11.68 17.99 17.06 14.38 5.3 22.3 14.72 23.79 2.5 27.19 14.33 33.52 3.77 31.82 15.96 41.9 8.89 35.39 19.33 47.46 16.97 37.27 23.86 49.26 26.62 37.15 28.77 46.98 36.16 35.04 33.2 41.02 43.96 31.31 36.39 32.4 48.65 26.61 37.79 22.62 49.43 21.74 37.16"/>
      <path class="cls-4" d="M23.99,5l3.05,10.57,5.65-9.44-1.52,10.89,9-6.32-5.82,9.34,10.79-2.11-9.11,6.16,10.72,2.46-10.83,1.92,8.79,6.61-10.68-2.65,5.34,9.61-8.68-6.76,.97,10.96-5.18-9.71-3.57,10.4-.78-10.97-7.49,8.05,3.75-10.34-10.12,4.31,7.63-7.92-11-.18,10.19-4.13-9.97-4.64,10.99,.37-7.23-8.29,9.89,4.81-3.23-10.51,7.08,8.42,1.33-10.92m-.4-5l-.59,4.88-1.05,8.64-5.6-6.66-3.16-3.76,1.44,4.7,2.55,8.32-7.82-3.8-4.42-2.15,3.23,3.71,5.72,6.56-8.69-.29-4.91-.17,4.46,2.07,7.89,3.67-8.06,3.27-4.55,1.85,4.91,.08,8.7,.14-6.04,6.27-3.41,3.54,4.52-1.93,8-3.41-2.97,8.18-1.68,4.62,3.35-3.6,5.93-6.37,.62,8.68,.35,4.9,1.59-4.65,2.82-8.23,4.09,7.68,2.31,4.34-.43-4.9-.77-8.67,6.86,5.35,3.88,3.02-2.39-4.3-4.23-7.6,8.44,2.09,4.77,1.18-3.93-2.95-6.95-5.23,8.57-1.52,4.84-.86-4.79-1.1-8.48-1.95,7.21-4.87,4.07-2.75-4.82,.94-8.54,1.67,4.6-7.38,2.6-4.17-4.02,2.82-7.12,5,1.2-8.62,.68-4.87-2.53,4.22-4.47,7.46-2.41-8.36-1.36-4.72h0Z"/>
    </g>
    <polygon class="cls-2" points="126.86 36.54 123.3 46.95 122.51 35.98 115.02 44.03 118.77 33.69 108.65 38 116.28 30.08 105.29 29.9 115.48 25.77 105.5 21.13 116.5 21.5 109.27 13.21 119.16 18.02 115.93 7.5 123.01 15.92 124.34 5 127.39 15.57 133.04 6.13 131.52 17.03 140.53 10.71 134.71 20.04 145.5 17.93 136.39 24.09 147.11 26.55 136.28 28.48 145.08 35.09 134.4 32.44 139.74 42.05 131.07 35.29 132.04 46.25 126.86 36.54"/>
    <polygon class="cls-1" points="176.56 36.54 172.99 46.95 172.21 35.98 164.72 44.03 168.47 33.69 158.35 38 165.98 30.08 154.98 29.9 165.17 25.77 155.2 21.13 166.19 21.5 158.97 13.21 168.86 18.02 165.63 7.5 172.71 15.92 174.04 5 177.08 15.57 182.74 6.13 181.22 17.03 190.22 10.71 184.41 20.04 195.2 17.93 186.09 24.09 196.81 26.55 185.98 28.48 194.77 35.09 184.1 32.44 189.44 42.05 180.76 35.29 181.74 46.25 176.56 36.54"/>
    <polygon class="cls-5" points="226.26 36.54 222.69 46.95 221.91 35.98 214.42 44.03 218.17 33.69 208.05 38 215.68 30.08 204.68 29.9 214.87 25.77 204.9 21.13 215.89 21.5 208.66 13.21 218.56 18.02 215.33 7.5 222.41 15.92 223.73 5 226.78 15.57 232.43 6.13 230.92 17.03 239.92 10.71 234.1 20.04 244.9 17.93 235.79 24.09 246.51 26.55 235.68 28.48 244.47 35.09 233.79 32.44 239.14 42.05 230.46 35.29 231.43 46.25 226.26 36.54"/>
  </g>
</svg>