<?xml version="1.0" encoding="UTF-8"?>
<svg id="Layer_2" data-name="Layer 2" xmlns="http://www.w3.org/2000/svg" viewBox="0 0 433.73 120.7">
  <defs>
    <style>
      .cls-1 {
        fill: #c5c5c7;
      }

      .cls-2 {
        fill: none;
        stroke: #edf1f8;
        stroke-miterlimit: 10;
      }

      .cls-3 {
        fill: #7dd1fc;
      }

      .cls-4 {
        fill: #1d9afa;
      }

      .cls-5 {
        fill: #edf1f8;
      }
    </style>
  </defs>
  <g id="Layer_1-2" data-name="Layer 1">
    <g>
      <g>
        <polygon class="cls-2" points="16.81 85.57 7.54 85.57 7.54 119.74 30.62 119.74 30.62 112.26 16.81 112.26 16.81 85.57"/>
        <rect class="cls-2" x="34.36" y="85.57" width="9.28" height="34.16"/>
        <polygon class="cls-2" points="68.32 103.46 68.05 103.46 55.91 85.57 48.04 85.57 48.04 119.74 57.31 119.74 57.31 101.79 57.51 101.79 69.86 119.74 77.6 119.74 77.6 85.57 68.32 85.57 68.32 103.46"/>
        <polygon class="cls-2" points="112.83 85.57 102.02 85.57 91.74 99.39 91.27 99.39 91.27 85.57 82 85.57 82 119.74 91.27 119.74 91.27 110.93 94.34 106.93 102.02 119.74 113.09 119.74 101.28 100.79 112.83 85.57"/>
        <polygon class="cls-2" points="115.56 119.74 140.12 119.74 140.12 112.26 124.84 112.26 124.84 106.39 138.92 106.39 138.92 98.92 124.84 98.92 124.84 93.05 140.18 93.05 140.18 85.57 115.56 85.57 115.56 119.74"/>
        <path class="cls-2" d="M166.91,87.62c-2.56-1.36-5.6-2.04-9.12-2.04h-13.01v34.16h13.15c3.47,0,6.48-.68,9.02-2.04s4.52-3.32,5.91-5.87c1.39-2.55,2.08-5.61,2.08-9.17s-.7-6.61-2.09-9.17c-1.39-2.55-3.38-4.51-5.94-5.87Zm-2.25,20.61c-.63,1.33-1.54,2.27-2.74,2.82s-2.64,.82-4.33,.82h-3.54v-18.42h3.27c1.78,0,3.28,.27,4.51,.82,1.23,.54,2.16,1.48,2.8,2.82,.64,1.33,.96,3.19,.96,5.57s-.31,4.24-.94,5.57Z"/>
        <rect class="cls-2" x="179.21" y="85.57" width="9.28" height="34.16"/>
        <polygon class="cls-2" points="213.18 103.46 212.91 103.46 200.77 85.57 192.89 85.57 192.89 119.74 202.17 119.74 202.17 101.79 202.37 101.79 214.71 119.74 222.45 119.74 222.45 85.57 213.18 85.57 213.18 103.46"/>
        <path class="cls-2" d="M248.87,94.32c1.07-.76,2.39-1.13,3.95-1.13,.89,0,1.69,.13,2.39,.38s1.3,.61,1.79,1.07c.5,.46,.88,1.01,1.17,1.64,.28,.63,.46,1.34,.53,2.12h9.41c-.18-2.12-.68-4.01-1.52-5.66-.83-1.65-1.93-3.03-3.3-4.16-1.37-1.13-2.96-1.99-4.77-2.58-1.81-.59-3.8-.88-5.96-.88-3.07,0-5.85,.67-8.34,2.01-2.49,1.34-4.47,3.31-5.94,5.92-1.47,2.61-2.2,5.81-2.2,9.62s.72,6.98,2.16,9.59c1.44,2.61,3.4,4.59,5.89,5.94,2.49,1.35,5.3,2.02,8.43,2.02,2.5,0,4.7-.38,6.59-1.15,1.89-.77,3.48-1.78,4.76-3.04,1.28-1.26,2.28-2.64,2.98-4.14,.7-1.5,1.11-2.97,1.22-4.41l-9.41-.07c-.11,.73-.33,1.39-.64,1.98-.32,.58-.73,1.08-1.23,1.49s-1.09,.73-1.77,.94-1.45,.33-2.3,.33c-1.5,0-2.79-.35-3.85-1.06-1.07-.71-1.88-1.76-2.44-3.17-.56-1.41-.84-3.16-.84-5.25,0-1.98,.28-3.68,.83-5.09,.55-1.41,1.36-2.5,2.44-3.25Z"/>
        <path class="cls-2" d="M297.18,87.12c-2.51-1.34-5.31-2.01-8.41-2.01s-5.92,.67-8.43,2.01c-2.51,1.34-4.5,3.31-5.97,5.92-1.47,2.61-2.21,5.81-2.21,9.62s.74,6.98,2.21,9.58c1.47,2.61,3.46,4.59,5.97,5.94,2.51,1.35,5.32,2.03,8.43,2.03s5.89-.67,8.41-2.01c2.51-1.34,4.51-3.31,5.99-5.92,1.48-2.61,2.22-5.81,2.22-9.62s-.74-7.01-2.22-9.62c-1.48-2.61-3.48-4.58-5.99-5.92Zm-2.14,20.72c-.54,1.41-1.33,2.47-2.39,3.2s-2.34,1.09-3.88,1.09-2.83-.36-3.88-1.09-1.85-1.8-2.38-3.2c-.54-1.41-.81-3.13-.81-5.18s.27-3.77,.81-5.18c.54-1.41,1.33-2.47,2.38-3.2,1.05-.73,2.34-1.09,3.88-1.09s2.83,.37,3.88,1.09c1.05,.73,1.85,1.8,2.39,3.2,.54,1.41,.81,3.13,.81,5.18s-.27,3.77-.81,5.18Z"/>
        <polygon class="cls-2" points="324.14 109.66 323.87 109.66 316.87 85.57 306.39 85.57 317.67 119.74 330.34 119.74 341.62 85.57 331.14 85.57 324.14 109.66"/>
        <polygon class="cls-2" points="344.89 119.74 369.44 119.74 369.44 112.26 354.16 112.26 354.16 106.39 368.24 106.39 368.24 98.92 354.16 98.92 354.16 93.05 369.51 93.05 369.51 85.57 344.89 85.57 344.89 119.74"/>
        <path class="cls-2" d="M399.91,103.37c1.08-1.68,1.63-3.74,1.63-6.19s-.53-4.5-1.58-6.24c-1.06-1.74-2.54-3.06-4.44-3.99-1.9-.92-4.12-1.38-6.66-1.38h-14.75v34.16h9.28v-11.28h3.21l6,11.28h10.08l-6.95-12.75c1.77-.85,3.17-2.04,4.19-3.61Zm-8.67-3.84c-.42,.6-1.01,1.04-1.79,1.31-.77,.27-1.7,.41-2.79,.41h-3.27v-8.27h3.27c1.09,0,2.02,.15,2.79,.44,.77,.29,1.37,.75,1.79,1.37s.63,1.42,.63,2.39-.21,1.75-.63,2.35Z"/>
        <path class="cls-2" d="M432.61,106.06c-.41-1.1-1.04-2.09-1.89-2.98-.86-.88-1.96-1.65-3.3-2.31-1.35-.66-2.96-1.18-4.85-1.58l-2.8-.6c-.81-.17-1.51-.36-2.1-.57s-1.07-.45-1.45-.71c-.38-.26-.65-.56-.83-.88-.17-.33-.25-.7-.22-1.11,.01-.5,.16-.95,.45-1.33,.29-.39,.74-.7,1.34-.93,.61-.23,1.39-.34,2.34-.34,1.5,0,2.62,.31,3.36,.93,.74,.62,1.15,1.49,1.24,2.6h8.88c-.01-2.23-.56-4.19-1.66-5.86-1.1-1.67-2.65-2.97-4.66-3.89s-4.4-1.38-7.16-1.38-5.1,.46-7.18,1.37c-2.08,.91-3.71,2.18-4.89,3.81-1.17,1.63-1.75,3.53-1.74,5.7,0,2.67,.85,4.77,2.59,6.31,1.74,1.54,4.12,2.64,7.15,3.29l3.4,.73c1.27,.28,2.27,.58,3.02,.89,.75,.32,1.28,.67,1.61,1.07,.33,.39,.5,.85,.51,1.38-.01,.56-.19,1.05-.53,1.48-.35,.43-.85,.77-1.52,1.02-.67,.25-1.5,.37-2.49,.37-1.18,0-2.19-.18-3.04-.55-.85-.37-1.51-.91-1.98-1.62-.47-.71-.73-1.59-.78-2.64h-8.81c.01,2.86,.63,5.2,1.84,7.03,1.22,1.83,2.93,3.18,5.14,4.06,2.21,.88,4.8,1.32,7.76,1.32s5.37-.41,7.43-1.22,3.65-2,4.76-3.55,1.67-3.46,1.68-5.71c-.01-1.3-.22-2.5-.62-3.6Z"/>
      </g>
      <g>
        <polygon class="cls-4" points="22 33.17 17.4 43.75 17.5 32.22 9 40.01 13.78 29.52 2.84 33.17 11.48 25.53 0 24.43 11 20.96 .96 15.28 12.42 16.59 5.56 7.32 15.5 13.17 13 1.91 19.7 11.3 22 0 24.29 11.3 30.99 1.91 28.5 13.17 38.43 7.32 31.57 16.59 43.03 15.28 32.99 20.96 43.99 24.43 32.51 25.53 41.15 33.17 30.21 29.52 34.99 40.01 26.49 32.22 26.59 43.75 22 33.17"/>
        <polygon class="cls-3" points="71.36 29.08 68.43 35.83 68.5 28.47 63.07 33.44 66.12 26.75 59.15 29.08 64.66 24.21 57.34 23.5 64.35 21.29 57.95 17.67 65.26 18.5 60.88 12.59 67.22 16.32 65.63 9.14 69.9 15.13 71.36 7.92 72.83 15.13 77.1 9.14 75.51 16.32 81.85 12.59 77.47 18.5 84.78 17.67 78.38 21.29 85.39 23.5 78.07 24.21 83.58 29.08 76.61 26.75 79.66 33.44 74.23 28.47 74.3 35.83 71.36 29.08"/>
        <polygon class="cls-1" points="110.54 29.08 107.61 35.83 107.67 28.47 102.25 33.44 105.3 26.75 98.33 29.08 103.83 24.21 96.51 23.5 103.53 21.29 97.13 17.67 104.43 18.5 100.06 12.59 106.4 16.32 104.8 9.14 109.08 15.13 110.54 7.92 112.01 15.13 116.28 9.14 114.69 16.32 121.02 12.59 116.65 18.5 123.96 17.67 117.56 21.29 124.57 23.5 117.25 24.21 122.76 29.08 115.78 26.75 118.83 33.44 113.41 28.47 113.47 35.83 110.54 29.08"/>
        <polygon class="cls-5" points="149.97 29.08 147.04 35.83 147.1 28.47 141.68 33.44 144.73 26.75 137.76 29.08 143.26 24.21 135.94 23.5 142.96 21.29 136.56 17.67 143.86 18.5 139.49 12.59 145.83 16.32 144.23 9.14 148.51 15.13 149.97 7.92 151.44 15.13 155.71 9.14 154.12 16.32 160.45 12.59 156.08 18.5 163.39 17.67 156.99 21.29 164 23.5 156.68 24.21 162.19 29.08 155.21 26.75 158.26 33.44 152.84 28.47 152.9 35.83 149.97 29.08"/>
      </g>
    </g>
  </g>
</svg>