<?xml version="1.0" encoding="UTF-8"?>
<svg id="Layer_2" data-name="Layer 2" xmlns="http://www.w3.org/2000/svg" viewBox="0 0 533.34 574.52">
  <defs>
    <style>
      .cls-1 {
        fill: #2845c9;
      }

      .cls-2 {
        fill: #1d9afa;
      }
    </style>
  </defs>
  <g id="Layer_1-2" data-name="Layer 1">
    <g>
      <path class="cls-1" d="M487.07,182.3l-93.74,29.56H181.34c-4.68,0-9.32,.18-13.91,.53l-95.42-30.09,108.3-10.43L98.82,99.77l103.18,34.53-45.11-99.01,80.21,73.5-.95-108.79,43.39,99.77L322.93,0l-.95,108.79,80.22-73.5-45.12,99.01,103.18-34.53-81.49,72.1,108.3,10.43Z"/>
      <path class="cls-2" d="M434.61,343.74l-93.74-55.22,23.55,106.22-63.19-88.57-21.69,106.61-21.69-106.61-63.18,88.57,23.54-106.22-93.74,55.22,64.71-87.46-108.1,12.31,94.7-53.57-8.35-2.63c4.59-.35,9.23-.53,13.91-.53h211.99l-10.02,3.16,94.69,53.57-108.1-12.31,64.71,87.46Z"/>
      <path class="cls-1" d="M533.34,574.52H181.34C81.19,574.52,0,493.34,0,393.19c0-50.08,20.3-95.41,53.11-128.22,29.75-29.75,69.79-49.21,114.32-52.58l8.35,2.63-94.7,53.57,108.1-12.31-64.71,87.46,93.74-55.22-23.54,106.22,63.18-88.57,21.69,106.61,21.69-106.61,63.19,88.57-23.55-106.22,93.74,55.22-64.71-87.46,108.1,12.31-94.69-53.57,10.02-3.16h140.01"/>
    </g>
  </g>
</svg>