<?xml version="1.0" encoding="UTF-8"?>
<svg id="Layer_2" data-name="Layer 2" xmlns="http://www.w3.org/2000/svg" viewBox="0 0 618.47 496">
  <defs>
    <style>
      .cls-1 {
        fill: #2845c9;
      }

      .cls-2 {
        fill: #1d9afa;
      }
    </style>
  </defs>
  <g id="Layer_1-2" data-name="Layer 1">
    <g>
      <polygon class="cls-1" points="410.33 141.07 366.81 41 367.76 150.11 287.31 76.39 332.56 175.69 229.08 141.07 310.8 213.37 202.19 223.83 306.26 256.65 211.28 310.38 319.7 298.03 254.8 385.75 348.82 330.37 325.2 436.9 388.57 348.07 410.33 455 410.33 496 0 496 0 0 410.33 0 410.33 141.07"/>
      <polygon class="cls-1" points="609.37 310.38 500.95 298.03 565.86 385.75 471.83 330.37 495.45 436.9 432.08 348.07 410.33 455 410.33 141.07 453.84 41 452.89 150.11 533.34 76.39 488.09 175.69 591.57 141.07 509.85 213.37 618.47 223.83 514.4 256.65 609.37 310.38"/>
      <polygon class="cls-2" points="410.33 141.07 410.33 455 388.57 348.07 325.2 436.9 348.82 330.37 254.8 385.75 319.7 298.03 211.28 310.38 306.26 256.65 202.19 223.83 310.8 213.37 229.08 141.07 332.56 175.69 287.31 76.39 367.76 150.11 366.81 41 410.33 141.07"/>
    </g>
  </g>
</svg>